<svg width="72" height="72" viewBox="0 0 72 72" fill="none" xmlns="http://www.w3.org/2000/svg">
<path d="M68.5171 0C66.5963 0 65.0332 1.5631 65.0332 3.48387V8.22077C65.7497 8.95935 66.1945 9.96387 66.1945 11.0741V22.32C66.8123 22.8774 67.6217 23.2258 68.5171 23.2258C70.4378 23.2258 72.0009 21.6627 72.0009 19.7419V3.48387C72.0009 1.5631 70.4378 0 68.5171 0Z" fill="#2FD0AB"/>
<path d="M5.80645 11.0741C5.80645 9.96387 6.25122 8.95935 6.96774 8.22077V3.48387C6.96774 1.5631 5.40464 0 3.48387 0C1.5631 0 0 1.5631 0 3.48387V19.7419C0 21.6627 1.5631 23.2258 3.48387 23.2258C4.37922 23.2258 5.18864 22.8762 5.80645 22.32V11.0741Z" fill="#2FD0AB"/>
<path d="M50.2873 69.6776L47.6547 67.9229C45.7281 66.6385 44.2695 64.8106 43.4241 62.6866C49.615 62.4451 54.5806 57.347 54.5806 51.097V48.7744H55.7419C58.9436 48.7744 61.5484 46.1696 61.5484 42.9679C61.5484 39.7662 58.9436 37.1615 55.7419 37.1615H54.5806C61.6239 37.1615 67.3548 31.4305 67.3548 24.3873V11.0743C67.3548 8.16987 64.9916 5.80664 62.0872 5.80664H61.0084C59.1944 5.80664 57.5907 6.7287 56.6431 8.12922H15.3557C14.4081 6.7287 12.8055 5.80664 10.9904 5.80664H9.91277C7.00839 5.80664 4.64516 8.16987 4.64516 11.0743V24.3873C4.64516 31.4305 10.375 37.1603 17.4182 37.1615H16.2581C13.0564 37.1615 10.4516 39.7662 10.4516 42.9679C10.4516 46.1696 13.0564 48.7744 16.2581 48.7744H17.4194V51.097C17.4194 57.347 22.385 62.4451 28.5759 62.6866C27.7304 64.8095 26.2719 66.6373 24.3453 67.9229L21.7126 69.6776H0V72.0002H72V69.6776H50.2873ZM55.7419 39.4841C57.6627 39.4841 59.2258 41.0471 59.2258 42.9679C59.2258 44.8887 57.6627 46.4518 55.7419 46.4518H54.5806L54.5795 39.4841H55.7419ZM61.0095 8.12922H62.0884C63.7107 8.12922 65.0322 9.45077 65.0322 11.0743V24.3873C65.0322 30.1496 60.343 34.8389 54.5806 34.8389H51.6507C52.7551 33.601 53.4193 31.9693 53.4193 30.1937H53.9233C57.5512 30.1937 60.5334 27.4693 60.8632 23.8566L61.5925 15.8216L58.9273 13.1564C58.3711 12.6002 58.0645 11.8604 58.0645 11.0743C58.0645 9.45077 59.3861 8.12922 61.0095 8.12922ZM21.5384 34.8389C21.1285 34.1352 20.9032 33.3455 20.9032 32.5163C20.9032 30.4062 22.313 28.6097 24.2803 28.0546C25.5112 30.0323 27.6979 31.355 30.1935 31.355V29.0324C27.6317 29.0324 25.5484 26.9491 25.5484 24.3873C25.5484 21.8255 27.6317 19.7421 30.1935 19.7421C32.7553 19.7421 34.8387 21.8255 34.8387 24.3873V34.8389H22.0645H21.5384ZM14.4163 15.097H57.5837L59.1817 16.6949L58.5499 23.6464C58.3304 26.0549 56.3411 27.8712 53.9233 27.8712H53.0059C52.3033 25.9028 50.7461 24.3083 48.7312 23.6104C48.3433 20.1323 45.3855 17.4195 41.8064 17.4195C39.384 17.4195 37.2495 18.6633 36 20.5434C34.7504 18.6621 32.616 17.4195 30.1935 17.4195C26.3508 17.4195 23.2258 20.5446 23.2258 24.3873C23.2258 24.9052 23.2873 25.4092 23.3953 25.8958C22.2039 26.2802 21.1575 26.9665 20.3504 27.8712H18.0766C15.6588 27.8712 13.6695 26.0549 13.4512 23.6464L12.8195 16.6949L14.4163 15.097ZM37.1613 24.3873C37.1613 21.8255 39.2446 19.7421 41.8064 19.7421C44.3682 19.7421 46.4516 21.8255 46.4586 24.277L46.4121 25.4475L47.3725 25.6415C49.5302 26.0758 51.0968 27.9908 51.0968 30.1937C51.0968 32.5616 49.327 34.5451 46.9788 34.8099L46.9812 34.8389H37.1613V24.3873ZM55.8046 10.4518C55.7802 10.6585 55.7419 10.8606 55.7419 11.0743C55.7419 11.6642 55.8592 12.2321 56.0439 12.7744H15.9561C16.1419 12.2321 16.2581 11.6642 16.2581 11.0743C16.2581 10.8617 16.2197 10.6585 16.1954 10.4518H55.8046ZM6.96774 24.3873V11.0743C6.96774 9.45077 8.28929 8.12922 9.91277 8.12922H10.9916C12.6139 8.12922 13.9355 9.45077 13.9355 11.0743C13.9355 11.8604 13.6289 12.6002 13.0726 13.1564L10.4075 15.8216L11.1368 23.8566C11.4666 27.4693 14.4488 30.1937 18.0766 30.1937H18.9929C18.7351 30.9242 18.5806 31.7022 18.5806 32.5163C18.5806 33.3199 18.7235 34.1003 18.9859 34.8389H17.4194C11.657 34.8389 6.96774 30.1496 6.96774 24.3873ZM16.2581 46.4518C14.3373 46.4518 12.7742 44.8887 12.7742 42.9679C12.7742 41.0471 14.3373 39.4841 16.2581 39.4841H17.4182L17.4194 46.4518H16.2581ZM19.7419 51.097L19.7408 37.1615H22.0645H49.9355H52.2569L52.2581 51.097C52.2581 56.2194 48.0902 60.3873 42.9677 60.3873H29.0323C23.9098 60.3873 19.7419 56.2194 19.7419 51.097ZM31.0378 62.7099H40.961C41.8773 65.5318 43.6796 67.9693 46.1241 69.6776H25.8747C28.3204 67.9693 30.1227 65.5318 31.0378 62.7099Z" fill="black"/>
<path d="M29.0312 51.0967C29.0312 54.9394 32.1563 58.0644 35.999 58.0644C39.8417 58.0644 42.9667 54.9394 42.9667 51.0967H40.6442C40.6442 53.6585 38.5608 55.7418 35.999 55.7418C33.4372 55.7418 31.3538 53.6585 31.3538 51.0967H29.0312Z" fill="black"/>
<path d="M44.1284 45.2905C46.0492 45.2905 47.6123 43.7274 47.6123 41.8066H45.2897C45.2897 42.4465 44.7683 42.9679 44.1284 42.9679C43.4885 42.9679 42.9671 42.4465 42.9671 41.8066H40.6445C40.6445 43.7274 42.2076 45.2905 44.1284 45.2905Z" fill="black"/>
<path d="M31.3545 41.8066H29.0319C29.0319 42.4465 28.5105 42.9679 27.8706 42.9679C27.2307 42.9679 26.7093 42.4465 26.7093 41.8066H24.3867C24.3867 43.7274 25.9498 45.2905 27.8706 45.2905C29.7914 45.2905 31.3545 43.7274 31.3545 41.8066Z" fill="black"/>
<path d="M61.172 63.8711C60.0096 63.8711 58.9784 63.1278 58.6114 62.0258L56.9043 56.9033L62.0267 58.6104C63.1288 58.9785 63.872 60.0098 63.872 61.1711C63.872 62.6622 62.6631 63.8711 61.172 63.8711Z" fill="#2FD0AB"/>
<path d="M68.1388 53.4194C66.9764 53.4194 65.9452 52.6762 65.5782 51.5741L63.8711 46.4517L68.9935 48.1588C70.0956 48.5269 70.8388 49.5581 70.8388 50.7194C70.8388 52.2105 69.6299 53.4194 68.1388 53.4194Z" fill="#2FD0AB"/>
<path d="M10.8289 63.8711C11.9914 63.8711 13.0226 63.1278 13.3895 62.0258L15.0966 56.9033L9.9742 58.6104C8.87213 58.9785 8.12891 60.0098 8.12891 61.1711C8.12891 62.6622 9.33781 63.8711 10.8289 63.8711Z" fill="#2FD0AB"/>
<path d="M3.86016 53.4194C5.02261 53.4194 6.05383 52.6762 6.4208 51.5741L8.1279 46.4517L3.00545 48.1588C1.90338 48.5269 1.16016 49.5581 1.16016 50.7194C1.16016 52.2105 2.36906 53.4194 3.86016 53.4194Z" fill="#2FD0AB"/>
</svg>
