<svg width="120" height="69" viewBox="0 0 120 69" fill="none" xmlns="http://www.w3.org/2000/svg">
<path d="M20.6337 17.7358C13.9314 25.3147 13.6317 41.907 28.671 47.3205C43.7103 52.734 75.1239 55.549 86.0629 62.7354C97.0018 69.9218 122.217 76.0526 118.73 50.4468C114.697 20.7538 96.1435 4.1344 77.6713 1.06224C61.3379 -1.6445 36.4767 -0.20993 20.6337 17.7358Z" fill="white"/>
<path d="M113.059 29.7907C111.007 30.9603 109.037 32.2251 107.149 33.7618C103.483 36.7673 100.064 39.9224 95.44 40.752C95.2759 40.5616 95.1117 40.3712 94.9339 40.1808C97.3414 35.2306 97.273 29.0972 94.5508 23.9021C90.0641 15.3752 80.1329 9.26901 70.6395 8.22184C66.2485 7.74586 62.4457 8.92902 59.5867 11.2001C58.6155 10.9282 57.6443 10.697 56.6457 10.5338C55.9754 10.425 55.3325 10.3706 54.7032 10.3434C50.6952 9.5546 46.441 9.84019 42.7339 11.3225C38.2471 10.561 33.4868 14.4096 30.6141 17.252C26.7155 21.087 23.9113 25.7517 24.1438 31.3139C24.1438 31.4499 24.1712 31.5859 24.1849 31.7083C23.2547 32.0755 22.3382 32.4563 21.4217 32.8642C16.4151 35.1082 10.916 36.4681 5.49905 35.0266C3.76179 34.5642 2.13396 33.789 0.519811 32.9322C0.35566 33.2858 0.17783 33.6258 0 33.9658C0.574528 34.2922 1.16273 34.605 1.75094 34.9042C9.35659 38.7393 16.4151 36.2777 23.8155 33.2994C23.9934 33.2314 24.1849 33.1634 24.3627 33.0818C26.7292 46.1646 48.5066 49.4965 58.7249 46.3278C59.1764 46.1918 59.5731 46.0014 59.9834 45.8382C63.2938 47.0758 66.9462 47.6606 70.5301 47.5926C74.0457 48.9797 77.8348 49.5781 81.5009 49.1837C82.2943 51.7404 84.2504 53.7668 87.506 54.066C90.023 54.2972 91.7192 53.7396 92.8273 52.6652C93.1692 52.6924 93.5112 52.6924 93.8669 52.6516C99.407 51.8628 99.1471 46.2054 96.3565 41.9488C97.4782 41.7176 98.5999 41.364 99.749 40.8472C102.28 39.7048 104.468 37.7873 106.575 36.0193C108.859 34.1018 111.144 32.4563 113.647 30.9875C113.319 30.6611 113.127 30.2259 113.073 29.7635L113.059 29.7907ZM86.6306 16.64C90.8164 20.0263 94.2089 24.6093 95.3169 29.9267C95.9872 33.1498 95.3853 36.3865 93.9353 39.2152C93.5933 38.9297 93.2376 38.6713 92.8683 38.4265C92.4716 37.2569 92.0612 36.2097 91.7056 35.3666C91.2678 34.333 90.7754 33.2314 90.2419 32.1027C90.2829 31.3411 90.2692 30.5523 90.2009 29.7227C89.3391 19.2511 79.3532 11.4041 68.9296 13.1449C67.89 13.3217 66.9188 13.5937 66.0023 13.9201C64.3471 12.9681 62.5962 12.1929 60.7905 11.5809C68.1773 6.26351 80.4612 11.6217 86.6579 16.64H86.6306ZM46.2905 22.2702C45.1688 24.5005 44.9636 27.1252 46.3316 29.7227C46.4273 29.9131 46.5778 30.0899 46.7009 30.2667C46.1127 30.1171 45.5382 29.9403 44.9773 29.7499C44.1839 28.1452 43.6367 26.4453 43.3632 24.7045C44.4438 23.9837 45.4287 23.1814 46.3042 22.2702H46.2905ZM43.199 23.3446C43.158 22.8006 43.1443 22.2702 43.158 21.7262C43.2537 18.8159 44.3754 16.3952 46.1674 14.6544C47.0429 15.6608 47.5217 16.98 47.207 18.3807C46.7693 20.3391 45.1825 21.971 43.2127 23.3446H43.199ZM47.6448 31.8171C47.7952 32.8235 48.0415 33.7754 48.3561 34.6866C47.4259 33.6802 46.6051 32.5787 45.8938 31.4227C46.482 31.5723 47.0702 31.7083 47.6584 31.8171H47.6448ZM47.4669 29.1108C45.2509 25.5477 47.6037 21.4134 51.1193 19.2375C48.8622 21.7398 47.4943 25.1805 47.4669 29.1108ZM50.3943 22.3382C51.3929 20.3663 52.6924 18.9247 54.1698 17.9455C54.4297 17.8775 54.6896 17.8231 54.9632 17.7823C54.0877 20.3255 53.8141 23.2086 54.3202 26.2413C54.5801 27.7372 55.0863 29.2332 55.7565 30.6747C53.5952 31.0963 51.2561 31.0963 48.9853 30.7427C48.6297 27.9412 49.0264 25.0309 50.3943 22.3382ZM57.2202 27.1388C57.2613 23.8885 58.3009 21.291 59.9697 19.3055C61.4061 20.6382 62.2815 22.651 62.4457 24.6093C62.7056 27.5876 60.1613 29.342 57.658 30.1715C57.6032 30.1851 57.5348 30.1987 57.4801 30.2123C57.3023 29.1924 57.2065 28.1588 57.2202 27.1252V27.1388ZM57.357 35.1762C55.0042 34.5234 52.7334 33.517 50.8183 32.2387C52.5966 32.3747 54.5391 32.3203 56.3721 31.9667C56.6047 33.041 56.933 34.1154 57.357 35.1762ZM57.4391 16.572C58.7523 16.2592 60.1202 16.1912 61.5018 16.3408C60.982 16.7624 60.4896 17.1976 60.0381 17.6735C59.2174 17.1296 58.3419 16.7624 57.4391 16.572ZM59.1627 18.6663C57.2613 21.0734 56.1806 24.0381 55.9891 27.234C55.182 24.1061 55.2231 20.7878 56.3174 17.7279C57.3844 17.7823 58.3419 18.1223 59.1627 18.6663ZM57.2476 36.4273C57.5075 36.5089 57.7811 36.5769 58.0547 36.6449C58.9301 38.3721 60.0518 39.9632 61.3787 41.3912C57.8632 41.1056 54.416 39.6776 51.4749 37.4881C50.5858 36.1145 49.9155 34.6186 49.4778 33.0818C51.8169 34.7138 54.799 35.7338 57.2613 36.4409L57.2476 36.4273ZM60.1613 37.1073C60.2844 37.1345 60.3938 37.1481 60.5169 37.1617C60.8452 37.4609 61.1735 37.7329 61.5155 37.9913C61.5429 38.4129 61.5839 38.8481 61.666 39.256C61.1188 38.5625 60.6127 37.8553 60.1613 37.1073ZM61.6113 35.9377C61.4334 35.9377 61.2556 35.9105 61.0778 35.8834C59.7782 34.6458 58.6702 33.2178 57.7948 31.6675C57.7948 31.6539 57.7948 31.6403 57.7948 31.6131C59.19 31.2051 60.5032 30.5931 61.5565 29.6684C64.6207 26.9892 64.3745 22.3654 61.8712 19.3055C61.5702 18.9383 61.2419 18.6119 60.8999 18.3127C61.6113 17.6463 62.391 17.0752 63.2391 16.5856C63.5947 16.6672 63.9504 16.7624 64.3061 16.8576C65.4688 18.1631 66.44 19.6591 67.2061 21.2502C65.5509 23.0998 64.5933 25.5749 65.0858 27.982C65.1952 28.5124 65.4141 29.07 65.715 29.6411C63.4169 30.7835 62.0216 33.2994 61.6249 35.9105L61.6113 35.9377ZM62.1174 13.3761C62.9245 13.7161 63.7179 14.0969 64.4839 14.5184C64.2924 14.6 64.1146 14.6952 63.923 14.7904C63.3485 14.2872 62.7466 13.8113 62.1037 13.3897L62.1174 13.3761ZM68.6424 21.5086C69.2443 20.951 69.9419 20.5158 70.6943 20.1895C73.5943 22.4878 75.7145 25.5613 76.166 28.8116C76.4669 32.0347 75.3452 34.7818 70.9815 32.8642C70.7763 32.7691 70.5848 32.6603 70.3933 32.5515C70.4207 32.1707 70.3933 31.7899 70.3386 31.4363C70.5985 28.118 69.9966 24.6773 68.6424 21.5086ZM67.466 29.0972C67.3018 29.1244 67.1377 29.1652 66.9872 29.206C66.3716 27.8868 66.2075 26.3637 66.7136 24.6909C66.9598 23.8613 67.3292 23.1542 67.7669 22.5286C68.6697 24.7589 69.1759 27.1388 69.2579 29.4508C68.8065 29.1244 68.2183 28.9612 67.466 29.0836V29.0972ZM69.0391 31.7083C68.533 31.3139 68.0815 30.8923 67.7122 30.4027C68.6561 30.2531 69.0117 30.8787 69.0391 31.7083ZM66.4811 17.6735C67.5344 18.1359 68.574 18.6935 69.5315 19.3463C69.0391 19.6319 68.5603 19.9719 68.1226 20.3391C67.6575 19.4143 67.083 18.5303 66.4811 17.6735ZM67.6164 14.9264C73.1292 13.7161 79.5858 15.144 83.7306 19.0335C86.4938 21.631 88.2858 25.3437 88.7372 29.1652C85.1669 22.6102 79.8457 16.3816 71.9391 18.3807C70.6122 17.1024 69.1622 15.9464 67.6028 14.9264H67.6164ZM68.3004 16.98C68.232 16.9392 68.1499 16.8848 68.0815 16.844C67.1513 16.3136 66.2075 15.9328 65.2636 15.62C65.4962 15.5248 65.7424 15.4432 65.9886 15.3752C66.782 15.8784 67.5617 16.4088 68.3004 16.98ZM66.44 30.8923C67.0829 31.7899 67.89 32.6467 68.7929 33.3538C68.6287 33.8842 68.4098 34.3466 68.2047 34.5778C67.2745 35.6386 65.5782 35.8698 64.265 35.9785C63.7999 36.0193 63.3075 36.0057 62.8287 36.0057C63.2664 33.8842 64.6207 31.8851 66.4263 30.9059L66.44 30.8923ZM63.5537 37.8417C63.3485 37.7057 63.1433 37.5425 62.9381 37.4065C64.7301 37.4609 66.4947 37.2025 67.9721 36.3865C67.507 37.4337 66.9188 38.3857 66.2212 39.256C65.3183 38.8481 64.4292 38.3993 63.5537 37.8417ZM65.291 40.3576C64.949 40.7112 64.5933 41.0512 64.224 41.364C64.2103 41.364 64.1966 41.364 64.183 41.364C63.9367 41.0376 63.6905 40.7112 63.4716 40.3576C63.1981 39.9224 63.0065 39.46 62.8834 38.9841C63.6768 39.5008 64.4839 39.9632 65.3046 40.344L65.291 40.3576ZM69.7641 34.7682C69.8735 34.5914 69.9556 34.3874 70.0377 34.1834C71.6108 35.081 73.3344 35.4346 74.8664 34.7818C74.2782 35.761 73.5122 36.7129 72.4863 37.6241C71.2688 38.7121 69.9693 39.5416 68.6287 40.1536C68.273 40.0448 67.9037 39.936 67.548 39.8136C68.5603 38.2769 69.299 36.5633 69.7641 34.7682ZM77.6707 31.3547C78.4777 27.8732 76.207 23.195 74.2509 20.8422C73.8815 20.407 73.4848 19.9855 73.0881 19.5639C76.6584 19.1287 80.7485 20.5702 82.9645 23.1814C85.2763 25.8877 87.1777 29.07 88.7782 32.3475C88.6277 34.0746 88.19 35.761 87.4103 37.3249C85.3447 37.8009 83.7443 39.1064 82.6773 40.7792C81.6377 40.8064 80.5844 40.8472 79.5037 40.9424C76.3575 41.228 73.348 41.2008 70.4344 40.616C74.0457 38.7529 77.1372 35.3938 77.6433 31.3683L77.6707 31.3547ZM86.2339 39.2424C85.8235 39.7864 85.3858 40.2896 84.907 40.752C84.7155 40.752 84.5103 40.752 84.3188 40.752C84.8523 40.1264 85.5089 39.6232 86.2339 39.2424ZM82.6636 44.3967C83.8537 43.6895 84.948 42.8735 85.9056 41.9216C87.6018 41.9216 89.298 41.976 91.0216 42.1663C91.3225 42.1935 91.6235 42.2207 91.9108 42.2343C90.6386 43.7575 89.1065 45.0631 87.3829 46.0558C87.3008 46.1102 87.2188 46.1374 87.1367 46.1918C86.74 45.743 86.3023 45.335 85.8372 45.0359C84.9207 44.4511 83.799 44.3831 82.6499 44.5463C82.6499 44.5055 82.6773 44.4511 82.6773 44.4103L82.6636 44.3967ZM86.9315 40.8064C87.4924 40.1264 87.9848 39.3784 88.4226 38.6033C88.6004 38.5897 88.7782 38.5489 88.956 38.5489C89.9957 38.5217 90.9395 38.7801 91.7876 39.2288C92.0065 39.7864 92.2117 40.3712 92.4169 40.9696C90.5702 40.9424 88.7509 40.8744 86.9315 40.82V40.8064ZM89.1202 37.1617C89.4485 36.3729 89.6947 35.5298 89.8862 34.6458C90.2692 35.489 90.6249 36.3185 90.9669 37.1617C91.0216 37.2977 91.0763 37.4473 91.1447 37.5833C90.4881 37.3521 89.8042 37.2025 89.1202 37.1617ZM62.2815 14.9536C60.6127 14.7768 58.9848 14.94 57.4528 15.348C57.5759 15.1304 57.6853 14.8992 57.8358 14.6816C58.2325 14.0697 58.6702 13.5121 59.1216 13.0225C60.257 13.5257 61.3103 14.1784 62.2815 14.9536ZM53.5405 11.6761C53.8551 11.6761 54.1698 11.6761 54.4981 11.6761C55.7292 11.8937 56.933 12.1929 58.0547 12.5873C57.1245 13.5801 56.3448 14.6952 55.7292 15.9328C55.3872 16.0824 55.0589 16.2456 54.7306 16.4224C52.3094 16.6808 49.9155 17.8911 48.1646 19.6727C49.2316 17.5375 48.575 15.4024 47.1523 13.8113C48.8896 12.5193 51.0919 11.7713 53.5405 11.6625V11.6761ZM48.6981 11.4313C47.7952 11.8393 46.9882 12.3561 46.2495 12.9545C45.8391 12.6145 45.3877 12.3289 44.9226 12.0841C46.14 11.7441 47.4122 11.5401 48.7117 11.4313H48.6981ZM42.8844 12.7777C43.7462 12.9545 44.5806 13.3217 45.2783 13.8521C42.8297 16.3816 41.5575 20.0399 41.8858 24.2013C40.9146 24.7861 39.875 25.3029 38.8764 25.7789C37.6589 24.1741 36.8655 22.1886 36.7014 20.2847C36.4415 17.2656 38.6985 15.0352 41.1061 13.6345C41.6669 13.3081 42.2688 13.0361 42.8707 12.7777H42.8844ZM42.9391 28.9068C42.4193 28.662 41.9132 28.4036 41.4344 28.118C40.8188 27.7508 40.2443 27.2748 39.7382 26.758C40.5179 26.3637 41.2976 25.9557 42.0636 25.5069C42.091 25.6565 42.091 25.8061 42.1184 25.9693C42.3099 26.9892 42.5971 27.9684 42.9391 28.9204V28.9068ZM32.6797 17.1432C34.5811 15.3616 36.9066 13.7569 39.4646 13.0361C38.9448 13.3897 38.4386 13.7705 37.9735 14.192C34.417 17.2928 35.0188 21.903 37.1665 25.6021C37.3169 25.8605 37.5085 26.0781 37.6726 26.3229C36.5099 26.8396 35.4155 27.302 34.5127 27.6828C31.5306 28.9884 28.4391 30.0627 25.4023 31.2323C25.033 25.9013 28.8495 20.7334 32.6797 17.1432ZM49.8608 46.1374C41.7764 45.9878 31.0929 43.1863 26.7976 35.7338C26.1957 34.7002 25.8264 33.6394 25.6075 32.5923C29.4651 31.0963 33.3636 29.7227 37.1391 27.9956C37.5905 27.7916 38.0556 27.574 38.5207 27.3564C39.9297 28.8932 41.749 29.9811 43.7325 30.7291C45.2099 33.7754 47.4533 36.3865 50.1754 38.3585C52.0358 41.1872 54.7306 43.3767 57.8631 44.9135C55.3325 45.7566 52.5966 46.1782 49.8745 46.1238L49.8608 46.1374ZM59.5183 44.2743C57.9589 43.5535 56.4952 42.6695 55.1547 41.5952C54.7716 41.2824 54.4023 40.956 54.0466 40.616C56.6594 41.7856 59.5047 42.4383 62.391 42.4383C62.4457 42.4927 62.5141 42.5471 62.5825 42.6015C61.6249 43.2407 60.599 43.7983 59.5183 44.2607V44.2743ZM61.5976 45.1175C62.4047 44.6959 63.1433 44.2335 63.841 43.7167C65.0995 44.7367 66.4537 45.6206 67.89 46.3822C65.7424 46.2462 63.6221 45.8246 61.5976 45.1175ZM74.2645 47.6198C75.6051 47.6606 76.9046 47.5382 78.0811 47.2526C79.0386 47.0214 80.0509 46.6134 81.0905 46.3142C81.0905 46.9262 81.1315 47.5382 81.241 48.123C78.9155 48.4221 76.5627 48.2182 74.2782 47.6198H74.2645ZM81.5419 43.2951C79.0112 44.7503 76.0976 45.6614 73.3207 46.1374C73.0745 46.1782 72.8145 46.1918 72.5683 46.219C69.8325 45.7838 67.2061 44.4783 65.2499 42.5471C65.373 42.4247 65.4825 42.3023 65.6056 42.1799C66.4127 42.044 67.2061 41.8672 67.9995 41.6224C68.1363 41.5816 68.2594 41.5272 68.3962 41.4864C72.2811 42.5879 76.3848 42.5743 80.6938 42.1799C81.1315 42.1391 81.5693 42.1119 81.9933 42.0848C81.8155 42.4791 81.665 42.8735 81.5419 43.2815V43.2951ZM82.4584 45.9742C83.3612 45.8246 84.2641 45.8382 85.1259 46.2054C85.4405 46.3414 85.7277 46.5318 85.9876 46.763C84.8523 47.2798 83.6895 47.6606 82.5131 47.9054C82.4174 47.2662 82.4174 46.6134 82.4584 45.9742ZM84.4282 51.55C83.5938 50.8837 83.074 49.9861 82.773 48.9933C83.84 48.8165 84.8933 48.5717 85.9193 48.2046C86.2749 48.0822 86.5895 47.919 86.9315 47.783C87.4513 48.4629 87.8891 49.2245 88.3405 49.8093C89.0792 50.7749 90.0093 51.6452 91.09 52.1756C89.0928 53.2636 86.0287 52.8148 84.4282 51.5364V51.55ZM92.2391 51.2101C90.365 50.7885 89.2296 48.9525 88.0122 47.2934C90.0504 46.2462 91.7329 44.8183 93.0598 43.1591C93.7848 46.0966 93.9216 49.1429 92.2391 51.2101ZM93.8259 51.3189C94.9886 48.9797 94.715 45.5254 93.9626 42.2615C94.3046 42.2479 94.6466 42.2207 94.9749 42.1799C95.5221 42.9687 95.9598 43.8255 96.3018 44.6551C97.4235 47.4158 96.9037 50.9925 93.8259 51.3053V51.3189Z" fill="#FFC76F"/>
</svg>
