<svg width="98" height="76" viewBox="0 0 98 76" fill="none" xmlns="http://www.w3.org/2000/svg">
<path d="M3.96121 28.9458C-2.07067 35.7574 -2.34727 50.6775 11.1952 55.5489C24.7483 60.4203 53.0673 62.951 62.9184 69.4146C72.78 75.8782 95.4927 81.3928 92.365 58.3748C88.7267 31.6767 72.0141 16.7355 55.3652 13.973C40.6419 11.5372 18.2484 12.8342 3.96121 28.9563V28.9458Z" fill="#EEA6C2"/>
<path d="M42.6476 54.1864C30.0307 33.0558 41.3817 19.9282 49.2965 22.269C56.5412 24.4095 56.4135 32.6867 56.4135 32.6867C56.4135 32.6867 63.9135 29.0489 68.956 34.6374C74.4666 40.7425 67.3177 56.5062 42.6476 54.1864Z" fill="#D77198"/>
<path d="M34.0208 23.9646C36.7653 16.2185 32.7108 7.71406 24.9646 4.96949C17.2185 2.22491 8.71407 6.27948 5.96949 14.0256C3.22492 21.7718 7.27949 30.2762 15.0256 33.0208C22.7718 35.7653 31.2762 31.7108 34.0208 23.9646Z" fill="#D77198"/>
<path opacity="0.7" d="M34.0208 23.9646C36.7653 16.2185 32.7108 7.71406 24.9646 4.96949C17.2185 2.22491 8.71407 6.27948 5.96949 14.0256C3.22492 21.7718 7.27949 30.2762 15.0256 33.0208C22.7718 35.7653 31.2762 31.7108 34.0208 23.9646Z" fill="#FAFAFA"/>
<path d="M21.5636 26.6081C25.5336 25.7881 28.1836 22.2881 27.4636 18.8181C27.4036 18.5481 27.1436 18.3781 26.8736 18.4281C26.6036 18.4781 13.7136 21.1481 13.4436 21.2081C13.1736 21.2681 13.0036 21.5281 13.0536 21.7981C13.7736 25.2681 17.5936 27.4281 21.5636 26.6081Z" fill="#D77198"/>
<path d="M23.0853 15.0883C23.3553 15.0283 23.5253 14.7683 23.4753 14.4983C23.3153 13.7183 23.8153 12.9483 24.5953 12.7883C25.3753 12.6283 26.1453 13.1283 26.3053 13.9083C26.3653 14.1783 26.6253 14.3483 26.8953 14.2983C27.1653 14.2383 27.3353 13.9783 27.2853 13.7083C27.0153 12.3883 25.7153 11.5383 24.3953 11.8083C23.0753 12.0783 22.2253 13.3783 22.4953 14.6983C22.5553 14.9683 22.8153 15.1383 23.0853 15.0883Z" fill="#D77198"/>
<path d="M11.7846 17.4282C12.0546 17.3682 12.2246 17.1082 12.1746 16.8382C12.0146 16.0582 12.5145 15.2882 13.2945 15.1282C14.0745 14.9682 14.8445 15.4682 15.0045 16.2482C15.0645 16.5182 15.3245 16.6882 15.5945 16.6382C15.8645 16.5882 16.0346 16.3182 15.9846 16.0482C15.7146 14.7282 14.4145 13.8782 13.0945 14.1482C11.7745 14.4182 10.9246 15.7182 11.1946 17.0382C11.2546 17.3082 11.5146 17.4782 11.7846 17.4282Z" fill="#D77198"/>
<path opacity="0.7" d="M84.32 40L84.37 46.56L79 50.32L85.26 52.29L87.17 58.57L90.99 53.23L97.55 53.34L93.65 48.07L95.78 41.86L89.56 43.94L84.32 40Z" fill="#FAFAFA"/>
<path opacity="0.7" d="M20.4415 39L20.4739 43.2391L17 45.6688L21.0496 46.9418L22.2852 51L24.7563 47.5493L29 47.6204L26.4771 44.2149L27.855 40.2019L23.8313 41.546L20.4415 39Z" fill="#FAFAFA"/>
</svg>
