<svg width="75" height="75" viewBox="0 0 75 75" fill="none" xmlns="http://www.w3.org/2000/svg">
<path fill-rule="evenodd" clip-rule="evenodd" d="M57.5304 33.6741C48.2395 33.6741 40.6934 26.1279 40.6934 16.837C40.6934 7.54613 48.2395 0 57.5304 0C66.7777 0 74.3238 7.54613 74.3238 16.837C74.3238 26.1279 66.7777 33.6741 57.5304 33.6741ZM62.2413 22.7256C62.503 22.7256 62.6775 22.5511 62.6775 22.2894V20.4574L66.9085 22.682C66.9958 22.7256 67.0394 22.7256 67.1266 22.7256C67.2139 22.7256 67.3011 22.682 67.3447 22.682C67.4756 22.5948 67.5628 22.4639 67.5628 22.2894V11.5591C67.5628 11.4282 67.4756 11.2538 67.3447 11.1665C67.2139 11.1229 67.0394 11.1229 66.9085 11.1665L62.6775 13.3911V11.5591C62.6775 11.2974 62.503 11.1229 62.2413 11.1229H47.7161C47.498 11.1229 47.2799 11.2974 47.2799 11.5591V22.2894C47.2799 22.5511 47.498 22.7256 47.7161 22.7256H62.2413ZM62.6775 19.4542V14.3944L66.6904 12.257V21.5479L62.6775 19.4542ZM48.1522 21.8532V11.9953H61.8051V21.8532H48.1522Z" fill="#FAFBFC"/>
<path fill-rule="evenodd" clip-rule="evenodd" d="M47.017 33.6738H36.592C34.76 33.4557 33.277 31.8854 33.277 29.9662C33.277 27.9161 34.9781 26.2585 37.0282 26.2585C37.2899 26.2585 37.4644 26.0404 37.4644 25.8223C37.4644 25.5606 37.2899 25.3862 37.0282 25.3862C34.4983 25.3862 32.4482 27.4363 32.4482 29.9662C32.4482 31.4928 33.1461 32.845 34.2802 33.6738H25.0329C26.167 32.845 26.9086 31.4928 26.9086 29.9662C26.9086 27.4363 24.8148 25.3862 22.2849 25.3862C22.0232 25.3862 21.8487 25.5606 21.8487 25.8223C21.8487 26.0404 22.0232 26.2585 22.2849 26.2585C24.335 26.2585 26.0362 27.9161 26.0362 29.9662C26.0362 31.8854 24.5967 33.4557 22.7647 33.6738H14.5207C13.4302 33.4993 12.5578 32.5397 12.5578 31.362C12.5578 30.0534 13.6483 29.0065 14.9133 29.0065C15.175 29.0065 15.3495 28.8321 15.3495 28.5704C15.3495 28.3523 15.175 28.1342 14.9133 28.1342C13.1249 28.1342 11.6855 29.5736 11.6855 31.362C11.6855 32.278 12.078 33.1068 12.6887 33.6738H12.2961C7.75972 33.6738 4.0957 30.0098 4.0957 25.517C4.0957 20.9806 7.75972 17.3166 12.2961 17.3166C12.8196 17.3166 13.3866 17.4038 13.91 17.4911V17.5783C13.91 19.8465 15.2186 21.8966 17.2251 22.8562H17.4432C17.6177 22.8562 17.7485 22.769 17.8358 22.6381C17.923 22.42 17.8358 22.1583 17.6177 22.0275C15.9165 21.2423 14.826 19.5848 14.7824 17.7092C15.5676 15.092 18.0102 13.1728 20.8455 13.1728C21.1072 13.1728 21.3689 13.2164 21.6306 13.2164C23.2446 14.0452 24.2914 15.7463 24.2914 17.6219C24.2914 17.84 24.5095 18.0581 24.7276 18.0581C24.9893 18.0581 25.1638 17.84 25.1638 17.6219C25.1638 15.3537 23.8552 13.3036 21.8051 12.344C22.8084 8.9417 25.9489 6.49902 29.6566 6.49902C33.7132 6.49902 37.1155 9.50875 37.7261 13.3909C37.6389 15.2229 36.5484 16.8804 34.8473 17.6655C34.6292 17.7528 34.5419 18.0145 34.6728 18.2326C34.7164 18.4071 34.8909 18.4943 35.0654 18.4943C35.109 18.4943 35.1526 18.4943 35.2398 18.4507C37.2463 17.5347 38.5985 15.441 38.5985 13.2164C39.122 13.1728 39.6454 13.1728 40.1688 13.26C39.9507 14.3941 39.8199 15.6154 39.8199 16.8368C39.8199 24.034 44.0946 30.2279 50.2885 33.0195C49.2852 33.4557 48.1511 33.6738 47.017 33.6738Z" fill="#003F46"/>
<path fill-rule="evenodd" clip-rule="evenodd" d="M52.7312 56.1814C52.5131 56.1814 52.3386 56.0942 52.1641 55.9633C48.4565 52.6483 48.5001 50.2056 48.5437 48.1119C48.631 46.1054 48.6746 44.3606 45.3159 41.6562L44.8361 41.2637C44.1818 40.6966 43.5711 40.2168 43.353 40.1732C43.353 40.1732 43.1786 40.1732 42.5243 40.9147C36.0686 48.1991 23.768 45.1458 16.7017 39.9987C16.3963 41.3509 15.7421 42.485 15.2622 43.2701C15.0878 43.5319 14.9569 43.7936 14.8697 43.9244C14.7388 44.2298 14.4335 44.4479 14.1281 44.4479C13.7792 44.4479 13.4739 44.2734 13.343 43.9681C12.7323 42.8776 11.8163 42.2233 10.6386 41.9616C10.8567 43.8808 10.6822 46.9778 9.9407 49.8567C9.28641 52.4302 8.32678 54.175 7.06183 55.0037C6.80011 55.1782 6.40754 55.2218 6.14582 55.0037C3.35419 53.3462 1.43494 50.3801 0.562559 46.4544C-0.789638 40.4349 0.344463 33.1505 3.44143 27.3491C4.31381 31.4493 7.93421 34.5463 12.2961 34.5463H36.941H47.017C48.282 34.5463 49.5033 34.2846 50.6374 33.8048L51.4226 33.4558C53.2982 34.1537 55.3483 34.5463 57.5293 34.5463C58.4453 34.5463 59.3613 34.4591 60.2773 34.3282C60.8007 36.7273 60.9316 39.2136 60.7571 41.7435C60.3209 47.9374 57.5729 53.1281 53.211 56.007C53.0801 56.1378 52.9056 56.1814 52.7312 56.1814Z" fill="#003F46"/>
<path fill-rule="evenodd" clip-rule="evenodd" d="M30.0919 74.3274C17.3987 74.3274 7.84606 66.5196 5.70872 54.437C5.62148 53.9572 5.97044 53.521 6.45025 53.4338C6.93006 53.3466 7.36625 53.6519 7.45349 54.1317C9.41636 65.5163 18.0966 72.5826 30.0919 72.5826H30.1791C41.7382 72.5826 50.244 65.7344 51.8579 55.1786C51.9451 54.6988 52.3813 54.3498 52.8611 54.437C53.3409 54.5243 53.6899 54.9605 53.6026 55.4403C51.8579 66.694 42.4797 74.3274 30.1791 74.3274C30.1355 74.3274 30.1355 74.3274 30.0919 74.3274Z" fill="#003F46"/>
<path fill-rule="evenodd" clip-rule="evenodd" d="M29.6573 69.1803C27.869 69.1803 26.2114 68.6569 24.9465 67.6536C24.5539 67.3483 24.5103 66.7813 24.8156 66.4323C25.0773 66.0397 25.6444 65.9525 26.0369 66.2578C26.9966 67.043 28.2615 67.4355 29.6573 67.4355C31.0095 67.4355 32.3181 67.043 33.2777 66.2578C33.6703 65.9525 34.2374 66.0397 34.4991 66.4323C34.8044 66.7813 34.7608 67.3483 34.3682 67.6536C33.1033 68.6569 31.4021 69.1803 29.6573 69.1803Z" fill="#003F46"/>
</svg>
