<svg width="15" height="14" viewBox="0 0 15 14" fill="none" xmlns="http://www.w3.org/2000/svg">
<path d="M8.39566 13.2625H0.0859375V7.24991C0.0859375 3.65177 3.00039 0.737305 6.59854 0.737305H8.89573C12.2165 0.737305 14.9083 3.42908 14.9083 6.74984C14.9083 10.348 11.9938 13.2625 8.39566 13.2625Z" fill="#F8C4D8"/>
<g clip-path="url(#clip0_812_1101)">
<path fill-rule="evenodd" clip-rule="evenodd" d="M9.40183 5.60938C10.0028 5.60938 10.49 6.09657 10.49 6.69758C10.49 7.29858 10.0028 7.78599 9.40183 7.78599C8.80082 7.78599 8.31362 7.29879 8.31362 6.69758C8.31362 6.09636 8.80082 5.60938 9.40183 5.60938ZM5.38117 5.85045C5.98218 5.85045 6.46938 6.33765 6.46938 6.93865C6.46938 7.53966 5.98218 8.02707 5.38117 8.02707C4.78017 8.02707 4.29297 7.53987 4.29297 6.93865C4.29297 6.33744 4.78017 5.85045 5.38117 5.85045Z" fill="white"/>
<path fill-rule="evenodd" clip-rule="evenodd" d="M9.40134 6.15723C9.70005 6.15723 9.94218 6.39935 9.94218 6.69807C9.94218 6.99678 9.70005 7.23891 9.40134 7.23891C9.10262 7.23891 8.8605 6.99678 8.8605 6.69807C8.8605 6.39935 9.10262 6.15723 9.40134 6.15723ZM5.38069 6.39851C5.6794 6.39851 5.92153 6.64064 5.92153 6.93935C5.92153 7.23807 5.6794 7.48019 5.38069 7.48019C5.08197 7.48019 4.83984 7.23807 4.83984 6.93935C4.83984 6.64064 5.08197 6.39851 5.38069 6.39851Z" fill="#04B6C8"/>
<path fill-rule="evenodd" clip-rule="evenodd" d="M9.40368 6.44385C9.54399 6.44385 9.65779 6.55765 9.65779 6.69797C9.65779 6.83828 9.54399 6.95208 9.40368 6.95208C9.26337 6.95208 9.14956 6.83828 9.14956 6.69797C9.14956 6.55765 9.26337 6.44385 9.40368 6.44385ZM5.38302 6.68513C5.52334 6.68513 5.63714 6.79894 5.63714 6.93925C5.63714 7.07956 5.52334 7.19337 5.38302 7.19337C5.24271 7.19337 5.12891 7.07956 5.12891 6.93925C5.12891 6.79894 5.24271 6.68513 5.38302 6.68513Z" fill="#161511"/>
<path fill-rule="evenodd" clip-rule="evenodd" d="M9.85928 6.03223C9.75515 6.03223 9.66512 6.1921 9.65797 6.38921C9.65081 6.58632 9.72949 6.7462 9.83362 6.7462C9.93775 6.7462 10.028 6.58632 10.0349 6.38921C10.0421 6.1921 9.9632 6.03223 9.85907 6.03223H9.85928ZM4.89095 6.30717C4.99508 6.30717 5.08511 6.46705 5.09226 6.66415C5.09942 6.86126 5.02074 7.02114 4.91661 7.02114C4.81248 7.02114 4.72224 6.86126 4.71529 6.66415C4.70814 6.46705 4.78703 6.30717 4.89116 6.30717H4.89095Z" fill="white"/>
<path fill-rule="evenodd" clip-rule="evenodd" d="M3.99406 4.93544C4.21557 4.88979 4.69141 4.79849 4.98466 4.62263C5.2779 4.44677 5.48637 4.25113 5.62332 4.13396C5.76026 4.01658 6.07307 4.17961 5.9296 4.46633C5.78614 4.75306 5.29094 5.02674 4.98466 5.16368C4.67837 5.30063 4.26122 5.44389 4.02014 5.37867C3.77907 5.31346 3.77907 4.98109 3.99406 4.93544ZM8.33425 4.40091C8.16491 4.18823 8.49055 3.87311 8.69923 4.02289C8.9077 4.17267 9.01204 4.42699 9.42267 4.57025C9.83329 4.71372 10.1329 4.64851 10.3415 4.64851C10.5502 4.64851 10.5696 4.8961 10.2828 5.02001C9.99611 5.14391 9.57245 5.08522 9.14899 4.92219C8.72553 4.75916 8.42345 4.51261 8.33446 4.40091H8.33425Z" fill="#161511"/>
<path fill-rule="evenodd" clip-rule="evenodd" d="M3.43407 10.1897C3.4307 10.1857 3.42776 10.1813 3.42544 10.1766C3.35224 10.0611 3.33562 9.93808 3.33541 9.93744C3.32973 9.89705 3.35771 9.85982 3.3981 9.85393C3.43849 9.84825 3.47572 9.87623 3.48161 9.91662C3.48161 9.91683 3.48834 9.96647 3.51232 10.0258C3.62297 9.94354 3.8611 9.81691 4.28688 9.80765C4.6203 9.8005 4.85359 9.86634 5.08562 9.93197C5.27705 9.98604 5.46764 10.0401 5.71166 10.0487C5.97377 10.058 6.18876 9.99067 6.41301 9.92041C6.64567 9.84762 6.8878 9.77168 7.20734 9.76831C7.52351 9.76495 7.77889 9.827 8.02649 9.88696C8.26861 9.94565 8.50317 10.0024 8.77538 9.98982C9.04191 9.97741 9.29476 9.89937 9.52805 9.82742C9.77944 9.7498 10.0094 9.67891 10.2246 9.69658C10.5672 9.72477 11.107 9.94165 11.2751 10.0121C11.3264 9.94249 11.3586 9.87981 11.3588 9.87959C11.3776 9.84341 11.4222 9.82932 11.4583 9.84804C11.4945 9.86676 11.5086 9.91136 11.4899 9.94754C11.4897 9.94796 11.4392 10.0462 11.3578 10.1442C11.3555 10.1476 11.3527 10.1505 11.35 10.1535C11.2961 10.2166 11.2297 10.2787 11.1554 10.3127C11.1184 10.3298 11.0746 10.3136 11.0576 10.2768C11.0406 10.2397 11.0568 10.196 11.0938 10.1789C11.1205 10.1665 11.1462 10.1489 11.1706 10.128C10.9703 10.046 10.5086 9.86802 10.213 9.84383C10.0249 9.82848 9.80826 9.89537 9.57139 9.96837C9.32968 10.043 9.06778 10.1238 8.78169 10.1371C8.48886 10.1508 8.24442 10.0914 7.99178 10.0302C7.75281 9.97236 7.50626 9.91241 7.2086 9.91557C6.9122 9.91872 6.67996 9.9913 6.45697 10.0613C6.22116 10.1352 5.9946 10.2061 5.70661 10.196C5.44408 10.1867 5.2455 10.1303 5.04586 10.074C4.82393 10.0113 4.60074 9.94817 4.28982 9.95469C3.87541 9.96374 3.67009 10.0855 3.58974 10.1501C3.61687 10.1781 3.65032 10.2017 3.69176 10.2151C3.73047 10.2275 3.75171 10.269 3.7393 10.3077C3.72689 10.3464 3.68545 10.3676 3.64653 10.3552C3.54872 10.3237 3.48077 10.2587 3.43386 10.1892L3.43407 10.1897ZM11.8523 10.1541C11.8494 10.1135 11.8799 10.078 11.9205 10.075C11.9611 10.0721 11.9967 10.1026 11.9996 10.1432C11.9996 10.144 12.0303 10.4621 11.623 10.6398C11.5858 10.656 11.5423 10.639 11.5261 10.6018C11.5099 10.5645 11.5269 10.521 11.5641 10.5048C11.8736 10.3697 11.8523 10.1547 11.8523 10.1543V10.1541ZM2.88944 10.1545C2.88986 10.1558 3.0348 10.57 3.37138 10.7665C3.40651 10.7869 3.45174 10.7749 3.47214 10.7396C3.49255 10.7044 3.48056 10.6592 3.44522 10.6388C3.15618 10.4703 3.02828 10.1047 3.02786 10.1036C3.01376 10.0653 2.97148 10.0458 2.9332 10.0597C2.89491 10.0735 2.87535 10.116 2.88923 10.1543L2.88944 10.1545Z" fill="#161511"/>
</g>
<defs>
<clipPath id="clip0_812_1101">
<rect width="9.115" height="6.79239" fill="white" transform="translate(2.88477 3.98389)"/>
</clipPath>
</defs>
</svg>
