<svg width="34" height="34" viewBox="0 0 34 34" fill="none" xmlns="http://www.w3.org/2000/svg">
<g clip-path="url(#clip0_780_1321)">
<path d="M12.9756 33.6665H2.45478C1.10114 33.6665 0 32.5654 0 31.2117V24.8992C0 23.5453 1.10114 22.4442 2.45478 22.4442H12.9756C14.3295 22.4442 15.4307 23.5453 15.4307 24.8992V31.2117C15.4307 32.5654 14.3295 33.6665 12.9756 33.6665Z" fill="#737791"/>
<path d="M12.9756 19.6387H2.45478C1.10114 19.6387 0 18.5375 0 17.1836V2.45446C0 1.10083 1.10114 -0.000314713 2.45478 -0.000314713H12.9756C14.3295 -0.000314713 15.4307 1.10083 15.4307 2.45446V17.1836C15.4307 18.5375 14.3295 19.6387 12.9756 19.6387Z" fill="#737791"/>
<path d="M31.2122 11.2222H20.6914C19.3375 11.2222 18.2363 10.121 18.2363 8.76713V2.45463C18.2363 1.101 19.3375 -0.000146866 20.6914 -0.000146866H31.2122C32.5658 -0.000146866 33.667 1.101 33.667 2.45463V8.76713C33.667 10.121 32.5658 11.2222 31.2122 11.2222Z" fill="#737791"/>
<path d="M31.2122 33.6665H20.6914C19.3375 33.6665 18.2363 32.5654 18.2363 31.2117V16.4826C18.2363 15.1287 19.3375 14.0275 20.6914 14.0275H31.2122C32.5658 14.0275 33.667 15.1287 33.667 16.4826V31.2117C33.667 32.5654 32.5658 33.6665 31.2122 33.6665Z" fill="#737791"/>
</g>
<defs>
<clipPath id="clip0_780_1321">
<rect width="33.6667" height="33.6667" fill="white" transform="matrix(1 0 0 -1 0 33.6665)"/>
</clipPath>
</defs>
</svg>
