<svg width="125" height="125" viewBox="0 0 125 125" fill="none" xmlns="http://www.w3.org/2000/svg">
<path d="M94.2451 96.1157C91.6426 94.8779 89.7261 93.3057 88.4932 92.0264C86.3398 93.23 83.3857 94.4482 80.9834 95.2515C81.3789 97.0239 82.0137 99.2798 82.27 100.947H104.887C105.158 100.408 105.434 99.6118 105.2 99.1479C104.875 98.5107 103.491 98.2422 102.404 98.1787C99.1816 97.9761 96.4595 97.168 94.2451 96.1157ZM30.0313 24.3433C30.4878 23.7964 31.3057 23.7207 31.8525 24.1772C32.3921 24.6338 32.4678 25.4517 32.0112 25.9985L28.6543 30.0049L33.9424 34.1284C34.5039 34.5581 34.6064 35.3662 34.1768 35.9277L28.1074 44.7925C27.707 45.3809 26.9038 45.5322 26.3154 45.1318C25.7271 44.7314 25.5757 43.9282 25.9761 43.3398L31.4009 35.415L26.0103 31.2207C25.4438 30.7642 25.3389 29.9414 25.8174 29.3726L30.0313 24.3433ZM25.7808 36.543C26.4863 36.5576 27.0601 37.1387 27.0552 37.8442C27.0405 38.5571 26.4595 39.1235 25.7466 39.1187L23.8008 39.1113C19.6064 39.1113 16.208 35.7129 16.208 31.5186C16.208 27.6147 19.1694 24.3701 23.0098 23.9746C23.2319 19.9756 26.5522 16.8188 30.5879 16.8188C34.7529 16.8188 38.1392 20.1758 38.1733 24.3335C42.7339 23.689 46.8232 27.2412 46.8232 31.8481C46.8232 36.0352 43.4248 39.4336 39.2378 39.4336L37.3481 39.3994C36.6353 39.3774 36.0811 38.7842 36.1104 38.0713C36.1299 37.3584 36.7329 36.8042 37.4385 36.8262L39.2378 36.853C43.6812 36.853 45.915 31.4551 42.7754 28.313C41.3081 26.8384 39.0718 26.4307 37.1772 27.2827C36.1885 27.7319 35.1069 26.8188 35.4048 25.7593C36.291 22.6025 33.9302 19.3994 30.5879 19.3994C27.6948 19.3994 25.3975 21.8555 25.5903 24.7412L25.6318 25.3564C25.5708 26.0693 24.9458 26.5942 24.2329 26.5332C19.5625 26.1377 16.9795 31.7798 20.2534 35.0586C21.1592 35.9644 22.4116 36.5186 23.7959 36.5186L25.7808 36.543ZM114.252 103.528H9.17188V108.948H114.252V103.528ZM33.8911 100.945C37.9194 100.945 40.8125 100.73 43.6201 99.5044C45.9932 98.4741 47.9585 96.8115 50.5488 94.5068L70.0239 77.1582C70.7026 76.5625 71.7964 76.8189 72.0991 77.6904C74.5283 84.5752 75.3804 87.6147 77.2261 93.6426C80.0508 93.0542 84.9287 91.0815 87.2944 89.7388L80.0557 73.7524C78.332 69.8975 76.5205 66.5283 74.1328 65.0684C71.9185 63.7061 68.9839 64.0234 64.7285 67.2754L45.7466 81.7603C44.6455 82.5977 43.1514 81.3232 43.8423 80.1001L55.0679 60.4663C55.6709 59.4067 56.5132 58.5767 57.4897 57.9883L51.1226 55.5518C50.4585 55.3027 50.1265 54.5557 50.3755 53.8916C50.6318 53.2202 51.3789 52.8882 52.043 53.1445L64.6309 57.9614L78.6738 63.291C85.9688 66.0596 87.8218 58.3081 81.3667 55.8301C79.8726 55.2563 78.4663 54.6191 76.1006 53.5474C74.9507 53.0273 73.6226 52.4341 72.7095 52.0239C72.48 51.9263 72.2798 51.7676 72.1284 51.5454C71.9063 51.5723 71.6792 51.5527 71.457 51.4624L56.4473 45.3027C55.7905 45.0317 55.478 44.2773 55.749 43.6206C56.02 42.9639 56.7744 42.6514 57.4312 42.9224L72.4409 49.0747C72.6484 49.165 72.8218 49.2969 72.9536 49.4629C76.0469 47.3584 77.6118 44.4727 77.6118 40.398C77.6118 38.1152 76.0615 35.5542 73.791 33.5596C71.5498 31.5942 68.6348 30.2246 65.8247 30.2246C61.0762 30.2246 57.1528 33.7061 56.1299 38.3911C56.0396 38.8135 55.7344 39.1797 55.2925 39.3335C54.6626 39.5557 53.9766 39.7559 53.1953 39.9829C50.5732 40.7568 46.8086 41.8726 41.5547 44.751C34.3013 48.7378 29.0986 59.2432 26.6548 70.1782C25.3462 76.04 24.8408 82.0044 25.2559 87.1533C25.7393 93.2837 27.8022 100.876 33.8911 100.945Z" fill="#EEBB88"/>
</svg>
