<svg width="37" height="37" viewBox="0 0 37 37" fill="none" xmlns="http://www.w3.org/2000/svg">
<path d="M18.4991 19.0569C23.1301 19.0569 26.8927 15.2942 26.8927 10.6633C26.4356 -0.472715 10.5609 -0.469484 10.1055 10.6633C10.1055 15.2942 13.8681 19.0569 18.4991 19.0569Z" fill="#003F46"/>
<path d="M32.7799 26.4434C30.8236 22.8077 27.5201 20.0064 23.6106 18.7271C22.1345 19.6706 20.3805 20.2148 18.4991 20.2148C16.6178 20.2148 14.8638 19.6706 13.3877 18.7271C9.47848 20.0119 6.17222 22.8081 4.21841 26.4434C2.17626 30.0462 4.97509 34.7707 9.1273 34.6865C9.12722 34.6865 27.8711 34.6865 27.8711 34.6865C32.0195 34.77 34.825 30.0477 32.7799 26.4434ZM27.4369 28.6084H21.7929C21.5729 28.6084 21.3704 28.4868 21.2719 28.29L19.9868 25.714L17.6308 31.9948C17.5498 32.2089 17.3472 32.3595 17.1156 32.371C16.8914 32.3805 16.6743 32.2592 16.5715 32.0527L14.8465 28.6084H9.56138C9.243 28.6084 8.9825 28.3479 8.9825 28.0295C8.9825 27.7111 9.243 27.4506 9.56138 27.4506H15.2054C15.4253 27.4506 15.6279 27.5722 15.7264 27.769L17.0114 30.345L19.3675 24.0642C19.5242 23.6023 20.2217 23.5596 20.4268 24.0064C20.4268 24.0064 22.1518 27.4506 22.1518 27.4506H27.4369C28.1912 27.4635 28.2023 28.5932 27.4369 28.6084Z" fill="#003F46"/>
</svg>
