<svg width="77" height="77" viewBox="0 0 77 77" fill="none" xmlns="http://www.w3.org/2000/svg">
<path d="M38.4991 39.6589C48.1365 39.6589 55.9669 31.8285 55.9669 22.1911C55.0156 -0.983758 21.9791 -0.977034 21.0312 22.1913C21.0313 31.8285 28.8617 39.6589 38.4991 39.6589Z" fill="#94B4EF"/>
<path d="M68.2181 55.0305C64.1469 47.4644 57.272 41.6346 49.136 38.9722C46.0641 40.9358 42.4139 42.0682 38.4987 42.0682C34.5835 42.0682 30.9333 40.9358 27.8614 38.9722C19.726 41.6461 12.8454 47.4651 8.77932 55.0306C4.52945 62.5282 10.354 72.3604 18.9951 72.185C18.995 72.1852 58.0024 72.1852 58.0024 72.1852C66.6357 72.3589 72.4742 62.5313 68.2181 55.0305ZM57.0989 59.536H45.3533C44.8955 59.536 44.4739 59.283 44.2691 58.8735L41.5947 53.5126L36.6917 66.5834C36.523 67.0291 36.1014 67.3423 35.6195 67.3664C35.1529 67.386 34.7011 67.1337 34.4871 66.7039L30.8972 59.536H19.8985C19.2359 59.536 18.6938 58.9939 18.6938 58.3313C18.6938 57.6688 19.2359 57.1267 19.8985 57.1267H31.6441C32.1019 57.1267 32.5235 57.3796 32.7283 57.7892L35.4027 63.15L40.3057 50.0793C40.6319 49.1181 42.0835 49.0291 42.5103 49.9589C42.5103 49.9588 46.1002 57.1267 46.1002 57.1267H57.0989C58.6686 57.1534 58.6918 59.5045 57.0989 59.536Z" fill="#94B4EF"/>
</svg>
