<svg width="983" height="738" viewBox="0 0 983 738" fill="none" xmlns="http://www.w3.org/2000/svg">
<g clip-path="url(#clip0_812_2576)">
<path d="M116.553 417.888C116.353 417.888 116.196 417.726 116.196 417.532V215.804C116.196 172.819 132.935 132.41 163.331 102.02C193.727 71.6241 234.137 54.8916 277.121 54.8916C335.157 54.8916 388.917 86.3315 417.432 136.948C417.532 137.123 417.469 137.342 417.294 137.435C417.125 137.529 416.901 137.473 416.807 137.298C388.423 86.9128 334.9 55.6104 277.127 55.6104C188.789 55.6104 116.921 127.478 116.921 215.81V417.538C116.921 417.738 116.759 417.894 116.565 417.894L116.553 417.888Z" fill="#003F46"/>
<path d="M105.371 643.599H133.123L86.9693 736.662H74.1934L105.371 643.599Z" fill="#ADADAD"/>
<path d="M87.195 737.019H73.7002L105.115 643.243H133.705L133.448 643.761L87.2012 737.025L87.195 737.019ZM74.694 736.3H86.7449L132.542 643.955H105.628L74.694 736.3Z" fill="black"/>
<path d="M225.768 643.599H198.016L244.163 736.662H256.939L225.768 643.599Z" fill="#ADADAD"/>
<path d="M257.439 737.019H243.944L197.435 643.243H226.024L257.439 737.019ZM244.388 736.3H256.439L225.505 643.955H198.591L244.388 736.3Z" fill="black"/>
<path d="M210.584 464.692L205.702 417.526H27.8076L61.3539 468.761L132.103 619.61L237.824 665.963H306.954L210.584 464.692Z" fill="#163336"/>
<path d="M306.955 666.319H237.831C237.781 666.319 237.731 666.307 237.687 666.288L131.967 619.935C131.885 619.897 131.823 619.835 131.785 619.76L61.0299 468.911L27.5086 417.725C27.4336 417.613 27.4274 417.475 27.4961 417.357C27.5586 417.238 27.6774 417.169 27.8087 417.169H205.71C205.891 417.169 206.047 417.307 206.066 417.494L210.941 464.598L307.286 665.813C307.342 665.926 307.33 666.057 307.267 666.157C307.199 666.263 307.086 666.326 306.961 666.326L306.955 666.319ZM237.9 665.607H306.38L210.254 464.854C210.235 464.817 210.223 464.779 210.223 464.735L205.378 417.894H28.4712L61.655 468.573L132.373 619.347L237.9 665.613V665.607Z" fill="black"/>
<path d="M660.232 280.502C665.395 271.77 666.295 253.532 658.738 245.556H610.997C613.103 249.694 614.197 254.263 614.197 259.007C614.197 275.421 600.84 288.772 584.426 288.772C568.013 288.772 554.655 275.421 554.655 259.007C554.655 254.194 555.78 249.569 557.943 245.387H514.002V293.847C514.002 294.885 513.415 295.829 512.49 296.291C511.558 296.754 510.452 296.647 509.627 296.016C505.37 292.778 500.289 291.072 494.926 291.072C481.518 291.072 470.611 301.979 470.611 315.386C470.611 328.794 481.518 339.701 494.926 339.701C500.22 339.701 505.245 338.032 509.471 334.869C510.296 334.25 511.402 334.15 512.327 334.613C513.252 335.075 513.833 336.019 513.833 337.05V384.085C539.21 425.951 609.691 398.824 612.253 359.533C624.998 360.69 641.224 352.583 640.299 340.532C640.299 340.532 654.669 334.275 646.787 316.199C670.195 310.173 667.414 290.009 660.232 280.509V280.502Z" fill="#94B4EF"/>
<path d="M552.762 405.531C536.004 405.531 521.903 398.08 513.534 384.267C513.503 384.21 513.484 384.148 513.484 384.079V337.044C513.484 336.144 512.984 335.332 512.177 334.925C511.371 334.519 510.421 334.607 509.696 335.144C505.408 338.351 500.308 340.045 494.932 340.045C481.331 340.045 470.262 328.975 470.262 315.374C470.262 301.773 481.331 290.703 494.932 290.703C500.37 290.703 505.533 292.441 509.852 295.722C510.571 296.272 511.527 296.36 512.34 295.96C513.152 295.56 513.659 294.741 513.659 293.835V245.375C513.659 245.175 513.821 245.019 514.015 245.019H557.956C558.081 245.019 558.2 245.081 558.262 245.194C558.325 245.3 558.331 245.431 558.275 245.544C556.118 249.713 555.024 254.238 555.024 259.001C555.024 275.215 568.219 288.409 584.433 288.409C600.647 288.409 613.841 275.215 613.841 259.001C613.841 254.307 612.779 249.838 610.679 245.712C610.622 245.6 610.629 245.469 610.691 245.362C610.754 245.256 610.872 245.194 610.997 245.194H658.739C658.839 245.194 658.932 245.237 659.001 245.306C666.958 253.7 665.514 272.008 660.664 280.471C664.614 285.815 667.339 294.622 664.602 302.467C662.251 309.198 656.27 314.018 647.288 316.424C651.201 325.7 649.2 331.813 646.8 335.332C644.519 338.682 641.531 340.32 640.681 340.738C640.912 344.77 639.281 348.633 635.943 351.92C630.493 357.29 620.954 360.552 612.598 359.909C610.941 381.841 588.927 398.48 567.925 403.618C562.7 404.893 557.625 405.518 552.768 405.525L552.762 405.531ZM514.203 383.985C524.841 401.449 544.855 408.537 567.75 402.931C588.621 397.824 610.485 381.273 611.904 359.509C611.91 359.415 611.954 359.321 612.029 359.259C612.104 359.196 612.198 359.165 612.291 359.171C620.529 359.921 630.043 356.733 635.431 351.42C638.681 348.214 640.243 344.457 639.943 340.557C639.931 340.407 640.018 340.263 640.156 340.201C640.731 339.951 654.101 333.863 646.463 316.337C646.419 316.243 646.425 316.13 646.463 316.036C646.506 315.943 646.594 315.874 646.694 315.849C655.657 313.543 661.614 308.836 663.914 302.242C666.595 294.554 663.851 285.897 659.939 280.721C659.851 280.603 659.845 280.446 659.914 280.321C665.183 271.408 665.583 253.494 658.57 245.919H611.566C613.548 250 614.548 254.401 614.548 259.013C614.548 275.627 601.034 289.141 584.42 289.141C567.807 289.141 554.293 275.627 554.293 259.013C554.293 254.332 555.324 249.875 557.356 245.75H514.359V293.847C514.359 295.029 513.703 296.085 512.646 296.61C511.584 297.135 510.346 297.016 509.408 296.304C505.214 293.116 500.208 291.435 494.926 291.435C481.719 291.435 470.974 302.179 470.974 315.386C470.974 328.594 481.719 339.338 494.926 339.338C500.139 339.338 505.096 337.694 509.258 334.582C510.202 333.875 511.44 333.769 512.49 334.294C513.54 334.819 514.196 335.875 514.196 337.051V383.985H514.203Z" fill="black"/>
<path d="M551.999 308.286C551.868 308.286 551.743 308.211 551.68 308.092C543.823 292.991 533.735 286.091 521.684 287.578C521.49 287.61 521.309 287.466 521.284 287.266C521.259 287.072 521.397 286.891 521.597 286.866C533.566 285.384 543.63 291.91 551.524 306.274C551.186 299.323 552.774 292.616 556.074 287.222C556.181 287.053 556.399 286.997 556.568 287.103C556.737 287.21 556.793 287.428 556.687 287.597C553.205 293.298 551.668 300.504 552.362 307.892C552.38 308.061 552.268 308.224 552.105 308.267C552.074 308.28 552.037 308.28 552.005 308.28L551.999 308.286Z" fill="black"/>
<path d="M518.859 263.945C518.666 263.945 518.509 263.795 518.503 263.602C518.497 263.402 518.653 263.239 518.847 263.233C522.51 263.102 525.61 261.72 527.81 259.232C530.123 256.62 531.267 252.926 530.942 249.094C530.923 248.894 531.073 248.725 531.267 248.707C531.448 248.688 531.635 248.838 531.654 249.032C531.998 253.057 530.792 256.945 528.348 259.701C526.016 262.339 522.735 263.802 518.872 263.939C518.872 263.939 518.866 263.939 518.859 263.939V263.945Z" fill="black"/>
<path d="M629.43 275.821C626.255 275.821 622.817 275.209 619.248 273.965C619.061 273.902 618.961 273.696 619.03 273.508C619.092 273.321 619.298 273.221 619.486 273.29C628.955 276.59 637.469 275.34 642.269 269.939C645.963 265.783 646.65 259.92 644.075 254.626C643.988 254.444 644.063 254.232 644.238 254.144C644.413 254.057 644.632 254.132 644.719 254.313C647.425 259.87 646.694 266.039 642.806 270.414C639.637 273.983 634.937 275.821 629.43 275.821Z" fill="black"/>
<path d="M617.471 293.822C612.24 293.822 606.552 291.397 602.958 285.353C602.858 285.184 602.914 284.965 603.083 284.859C603.252 284.759 603.47 284.815 603.577 284.984C608.121 292.616 616.128 294.222 622.047 292.435C627.716 290.716 633.591 285.284 633.073 275.19C633.06 274.99 633.216 274.821 633.41 274.815C633.635 274.802 633.779 274.958 633.785 275.152C634.329 285.659 628.185 291.322 622.253 293.122C620.759 293.572 619.14 293.822 617.471 293.822Z" fill="black"/>
<path d="M621.843 301.336C621.643 301.336 621.486 301.173 621.486 300.973C621.549 294.904 624.387 290.653 629.074 289.597C633.862 288.522 640.563 291.229 644.107 298.504C644.194 298.685 644.119 298.898 643.944 298.985C643.769 299.073 643.55 298.998 643.463 298.823C640.081 291.885 633.744 289.285 629.231 290.303C624.893 291.279 622.261 295.273 622.205 300.986C622.205 301.186 622.043 301.342 621.849 301.342L621.843 301.336Z" fill="black"/>
<path d="M590.321 330.538C590.183 330.538 590.058 330.463 589.996 330.331C585.789 321.406 586.095 312.799 590.846 306.705C594.902 301.498 601.572 299.073 608.241 300.379C617.129 302.123 624.217 309.898 627.799 321.774C628.705 320.087 631.118 316.361 635.418 314.749C638.868 313.455 642.75 313.83 646.95 315.874C647.125 315.961 647.2 316.174 647.119 316.355C647.031 316.537 646.819 316.612 646.638 316.524C642.625 314.574 638.931 314.205 635.674 315.424C630.442 317.387 628.067 322.849 628.042 322.906C627.98 323.043 627.83 323.125 627.692 323.125C627.542 323.112 627.411 323.012 627.367 322.862C623.961 310.755 616.935 302.817 608.103 301.085C601.703 299.829 595.302 302.148 591.408 307.148C586.833 313.017 586.552 321.362 590.639 330.025C590.727 330.206 590.646 330.419 590.471 330.5C590.421 330.525 590.371 330.531 590.321 330.531V330.538Z" fill="black"/>
<path d="M585.963 348.139C581.069 348.139 575.193 346.358 568.611 340.957C568.461 340.832 568.436 340.607 568.561 340.451C568.686 340.295 568.912 340.276 569.068 340.401C582.25 351.221 592.501 347.139 597.439 343.739C606.614 337.426 611.44 324.394 608.208 314.68C608.146 314.493 608.246 314.287 608.433 314.224C608.621 314.162 608.827 314.262 608.89 314.449C612.221 324.444 607.271 337.845 597.851 344.326C595.226 346.133 591.151 348.127 585.963 348.127V348.139Z" fill="black"/>
<path d="M543.967 350.158C543.817 350.158 543.673 350.064 543.623 349.908C543.561 349.72 543.667 349.52 543.855 349.458C558.4 344.733 562.119 338.213 560.756 333.694C558.956 327.725 548.161 323.75 533.866 327.744C533.673 327.8 533.479 327.688 533.423 327.494C533.366 327.3 533.479 327.106 533.673 327.05C548.386 322.943 559.543 327.194 561.444 333.488C562.906 338.332 559.112 345.258 544.08 350.139C544.042 350.152 544.005 350.158 543.967 350.158Z" fill="black"/>
<path d="M564.431 368.059C555.937 368.059 548.161 363.171 542.43 354.002C542.324 353.833 542.374 353.614 542.542 353.508C542.711 353.402 542.93 353.452 543.036 353.621C550.093 364.915 560.312 369.547 571.063 366.34C580.445 363.54 587.952 355.221 587.796 347.795C587.796 347.595 587.946 347.433 588.146 347.427H588.152C588.346 347.427 588.508 347.583 588.508 347.777C588.671 355.502 580.939 364.14 571.263 367.028C568.951 367.716 566.663 368.059 564.425 368.059H564.431Z" fill="black"/>
<path d="M494.932 285.616C499.744 285.616 504.37 286.741 508.558 288.904V245.425H460.454C459.416 245.425 458.473 244.838 458.01 243.913C457.547 242.988 457.654 241.875 458.285 241.05C461.523 236.794 463.229 231.712 463.229 226.349C463.229 212.942 452.322 202.035 438.915 202.035C425.507 202.035 414.6 212.942 414.6 226.349C414.6 231.643 416.269 236.669 419.432 240.894C420.051 241.719 420.151 242.825 419.688 243.75C419.226 244.675 418.282 245.257 417.251 245.257H364.247C356.371 253.064 357.227 271.665 362.459 280.509C355.277 290.01 352.496 310.174 375.904 316.2C368.022 334.276 382.392 340.533 382.392 340.533C381.467 352.584 397.687 360.697 410.438 359.534C412.969 398.381 482.249 422.414 508.401 382.042V341.952C504.263 344.058 499.688 345.152 494.95 345.152C478.537 345.152 465.179 331.801 465.179 315.387C465.179 298.973 478.537 285.622 494.95 285.622L494.932 285.616Z" fill="#F8C4D8"/>
<path d="M467.811 403.237C462.16 403.237 456.622 402.456 451.547 401.137C428.476 395.13 411.488 378.217 410.087 359.921C401.731 360.565 392.192 357.309 386.742 351.933C383.404 348.639 381.766 344.777 382.004 340.751C381.154 340.332 378.166 338.695 375.885 335.345C373.491 331.832 371.484 325.713 375.397 316.437C366.415 314.03 360.434 309.211 358.083 302.48C355.346 294.635 358.071 285.828 362.021 280.484C357.152 271.983 355.802 253.113 363.99 245C364.059 244.931 364.146 244.894 364.24 244.894H417.244C418.144 244.894 418.957 244.394 419.363 243.588C419.769 242.781 419.682 241.831 419.144 241.106C415.938 236.818 414.244 231.718 414.244 226.343C414.244 212.741 425.314 201.672 438.915 201.672C452.516 201.672 463.585 212.741 463.585 226.343C463.585 231.78 461.848 236.943 458.566 241.256C458.016 241.981 457.929 242.931 458.329 243.744C458.729 244.556 459.547 245.063 460.454 245.063H508.557C508.757 245.063 508.914 245.225 508.914 245.419V288.897C508.914 289.022 508.851 289.141 508.739 289.204C508.632 289.266 508.501 289.272 508.389 289.216C504.22 287.06 499.694 285.966 494.931 285.966C478.718 285.966 465.523 299.161 465.523 315.374C465.523 331.588 478.718 344.783 494.931 344.783C499.625 344.783 504.095 343.72 508.22 341.62C508.332 341.564 508.464 341.57 508.57 341.633C508.676 341.695 508.739 341.814 508.739 341.939V382.029C508.739 382.098 508.72 382.167 508.682 382.223C498.65 397.712 482.83 403.218 467.811 403.218V403.237ZM410.425 359.171C410.512 359.171 410.594 359.203 410.656 359.259C410.731 359.321 410.775 359.409 410.781 359.509C411.963 377.635 428.801 394.468 451.728 400.443C470.029 405.212 494.413 402.85 508.026 381.942V342.533C503.945 344.514 499.544 345.514 494.931 345.514C478.318 345.514 464.804 332.001 464.804 315.387C464.804 298.773 478.318 285.259 494.931 285.259C499.607 285.259 504.07 286.291 508.195 288.322V245.781H460.447C459.266 245.781 458.204 245.125 457.679 244.069C457.153 243.013 457.272 241.769 457.985 240.831C461.173 236.637 462.86 231.63 462.86 226.349C462.86 213.142 452.116 202.397 438.908 202.397C425.701 202.397 414.957 213.142 414.957 226.349C414.957 231.562 416.6 236.518 419.713 240.681C420.419 241.619 420.526 242.863 420.001 243.913C419.476 244.963 418.419 245.619 417.238 245.619H364.384C357.046 253.063 357.34 271.171 362.753 280.328C362.828 280.453 362.815 280.609 362.728 280.728C358.815 285.903 356.071 294.56 358.752 302.248C361.052 308.843 367.009 313.543 375.972 315.856C376.072 315.881 376.16 315.949 376.204 316.043C376.247 316.137 376.254 316.249 376.204 316.343C373.035 323.612 373.122 330.044 376.46 334.945C378.979 338.639 382.473 340.189 382.504 340.207C382.642 340.27 382.729 340.414 382.717 340.564C382.417 344.464 383.979 348.221 387.229 351.427C392.617 356.74 402.131 359.928 410.369 359.178C410.381 359.178 410.387 359.178 410.4 359.178L410.425 359.171Z" fill="black"/>
<path d="M436.489 230.355C432.52 230.355 428.826 229.336 425.751 227.28C425.588 227.168 425.544 226.949 425.651 226.78C425.763 226.617 425.982 226.574 426.151 226.68C432.87 231.174 442.671 230.505 451.728 224.942C451.896 224.842 452.115 224.892 452.221 225.061C452.328 225.23 452.271 225.449 452.103 225.555C446.921 228.736 441.489 230.355 436.495 230.355H436.489Z" fill="black"/>
<path d="M469.454 294.922C469.298 294.922 469.154 294.822 469.11 294.666C465.591 282.759 454.797 272.746 438.639 277.221C438.527 277.252 438.402 277.221 438.314 277.152C438.227 277.077 438.177 276.959 438.189 276.84C438.72 271.727 434.57 264.951 428.307 260.714C420.006 255.101 409.718 254.801 400.086 259.889C399.911 259.982 399.692 259.914 399.599 259.738C399.505 259.563 399.574 259.345 399.749 259.251C409.624 254.038 420.175 254.351 428.707 260.12C434.97 264.351 439.183 271.108 438.939 276.396C455.297 272.127 466.21 282.34 469.798 294.46C469.854 294.647 469.748 294.847 469.554 294.904C469.523 294.916 469.485 294.916 469.454 294.916V294.922Z" fill="black"/>
<path d="M503.826 263.945C503.826 263.945 503.82 263.945 503.813 263.945C499.951 263.807 496.669 262.339 494.338 259.707C491.894 256.951 490.687 253.057 491.031 249.038C491.05 248.838 491.244 248.694 491.419 248.713C491.619 248.731 491.763 248.9 491.744 249.1C491.419 252.925 492.556 256.619 494.875 259.238C497.075 261.72 500.176 263.107 503.838 263.239C504.038 263.245 504.195 263.414 504.182 263.607C504.176 263.801 504.013 263.951 503.826 263.951V263.945Z" fill="black"/>
<path d="M393.255 275.821C387.748 275.821 383.048 273.984 379.879 270.415C375.991 266.039 375.253 259.87 377.966 254.313C378.053 254.132 378.272 254.063 378.447 254.145C378.622 254.232 378.697 254.445 378.61 254.626C376.035 259.92 376.722 265.783 380.416 269.94C385.217 275.34 393.736 276.59 403.199 273.29C403.387 273.227 403.593 273.321 403.655 273.509C403.724 273.696 403.624 273.902 403.437 273.965C399.868 275.209 396.43 275.821 393.255 275.821Z" fill="black"/>
<path d="M405.249 293.835C404.23 293.835 403.224 293.741 402.242 293.566C395.192 292.279 388.335 286.084 388.898 275.159C388.91 274.959 389.048 274.809 389.273 274.821C389.473 274.834 389.623 275.002 389.61 275.196C389.073 285.691 395.629 291.629 402.367 292.86C409.305 294.123 417.775 290.841 421.044 280.628C421.106 280.44 421.306 280.334 421.494 280.396C421.681 280.459 421.788 280.659 421.725 280.847C418.781 290.035 411.768 293.835 405.236 293.835H405.249Z" fill="black"/>
<path d="M400.843 301.336C400.649 301.336 400.486 301.179 400.486 300.979C400.424 295.266 397.799 291.272 393.455 290.297C388.942 289.278 382.604 291.885 379.228 298.817C379.141 298.998 378.928 299.067 378.747 298.979C378.566 298.892 378.497 298.679 378.585 298.498C382.129 291.229 388.835 288.516 393.617 289.591C398.305 290.647 401.143 294.898 401.205 300.967C401.205 301.167 401.049 301.329 400.849 301.329L400.843 301.336Z" fill="black"/>
<path d="M432.364 330.538C432.314 330.538 432.258 330.525 432.214 330.507C432.033 330.419 431.958 330.207 432.045 330.032C436.133 321.362 435.852 313.024 431.276 307.155C427.382 302.161 420.988 299.836 414.581 301.092C405.749 302.823 398.73 310.761 395.317 322.869C395.274 323.012 395.149 323.119 394.992 323.131C394.855 323.131 394.699 323.056 394.642 322.912C394.617 322.856 392.242 317.393 387.01 315.431C383.748 314.212 380.066 314.58 376.047 316.531C375.872 316.618 375.653 316.543 375.566 316.362C375.478 316.187 375.553 315.968 375.735 315.881C379.935 313.837 383.816 313.462 387.267 314.755C391.567 316.368 393.98 320.093 394.886 321.781C398.461 309.905 405.556 302.13 414.444 300.386C421.113 299.079 427.782 301.498 431.839 306.711C436.589 312.805 436.895 321.412 432.689 330.338C432.626 330.469 432.501 330.544 432.364 330.544V330.538Z" fill="black"/>
<path d="M436.714 348.139C431.533 348.139 427.457 346.145 424.826 344.339C415.406 337.857 410.456 324.456 413.788 314.462C413.85 314.274 414.056 314.174 414.244 314.237C414.431 314.299 414.531 314.499 414.469 314.693C411.231 324.406 416.063 337.438 425.232 343.751C430.17 347.145 440.427 351.233 453.603 340.414C453.753 340.289 453.978 340.307 454.109 340.464C454.234 340.614 454.209 340.845 454.059 340.97C447.484 346.37 441.602 348.152 436.708 348.152L436.714 348.139Z" fill="black"/>
<path d="M458.166 368.059C453.341 368.059 448.446 366.516 443.996 363.484C437.914 359.346 434.058 353.183 434.17 347.783C434.17 347.589 434.333 347.433 434.527 347.433H434.533C434.733 347.433 434.889 347.602 434.883 347.802C434.77 352.971 438.508 358.896 444.396 362.897C451.365 367.634 459.429 368.641 466.523 365.659C466.704 365.584 466.917 365.666 466.992 365.853C467.067 366.034 466.985 366.247 466.798 366.322C464.023 367.491 461.104 368.066 458.16 368.066L458.166 368.059Z" fill="black"/>
<path d="M584.131 127.228C578.65 127.228 573.38 125.947 568.611 123.484V172.607H624.622C625.803 172.607 626.878 173.276 627.403 174.332C627.928 175.388 627.81 176.651 627.091 177.595C623.403 182.439 621.459 188.233 621.459 194.34C621.459 209.61 633.885 222.029 649.155 222.029C664.425 222.029 676.851 209.61 676.851 194.34C676.851 188.314 674.951 182.583 671.35 177.77C670.644 176.826 670.532 175.57 671.063 174.52C671.588 173.469 672.663 172.807 673.838 172.807H729.342C730.867 165.056 732.43 144.567 720.454 137.786C720.454 137.786 730.749 107.164 695.115 97.9262C700.659 92.1196 707.784 56.7481 672.15 55.4293C680.07 41.7032 666.606 19.7953 638.623 21.3767C638.623 14.7762 623.578 -0.00621498 607.208 10.8196C606.22 1.46265 582.5 -6.05043 568.818 8.62569V63.0736C573.53 60.6734 578.737 59.4296 584.144 59.4296C602.839 59.4296 618.053 74.637 618.053 93.3322C618.053 112.027 602.839 127.235 584.144 127.235L584.131 127.228Z" fill="#0099A8"/>
<path d="M649.156 222.386C633.686 222.386 621.104 209.803 621.104 194.333C621.104 188.145 623.079 182.282 626.81 177.376C627.448 176.538 627.554 175.432 627.085 174.494C626.617 173.551 625.673 172.969 624.623 172.969H568.256V122.897L568.781 123.165C573.537 125.622 578.7 126.872 584.132 126.872C602.633 126.872 617.678 111.821 617.678 93.3257C617.678 74.8305 602.627 59.7794 584.132 59.7794C578.775 59.7794 573.675 60.992 568.975 63.3859L568.456 63.6484V8.47546L568.55 8.3692C577.238 -0.950257 589.507 -1.18778 597.371 1.44368C602.965 3.31257 606.765 6.63157 607.478 10.2068C616.872 4.26264 625.029 6.98785 629.098 9.17552C635.055 12.3758 638.705 17.5887 638.961 20.9952C653.219 20.2951 665.313 25.708 671.364 35.5275C675.345 41.9905 675.845 49.2536 672.739 55.0915C688.846 55.8666 695.378 63.7109 698.009 70.1989C702.229 80.581 699.01 93.6007 695.759 97.7198C706.879 100.714 714.617 106.114 718.767 113.777C724.436 124.241 721.449 135.685 720.88 137.617C734.831 145.855 729.912 171.769 729.693 172.875L729.637 173.163H673.839C672.795 173.163 671.851 173.744 671.382 174.682C670.914 175.619 671.014 176.72 671.639 177.557C675.283 182.432 677.214 188.233 677.214 194.34C677.214 209.81 664.632 222.392 649.162 222.392L649.156 222.386ZM568.975 172.244H624.623C625.948 172.244 627.135 172.982 627.729 174.169C628.317 175.357 628.185 176.751 627.385 177.807C623.748 182.589 621.822 188.308 621.822 194.333C621.822 209.403 634.086 221.667 649.156 221.667C664.226 221.667 676.489 209.403 676.489 194.333C676.489 188.383 674.614 182.726 671.057 177.982C670.264 176.926 670.145 175.538 670.732 174.357C671.326 173.176 672.514 172.444 673.833 172.444H729.037C729.593 169.382 733.468 145.567 720.267 138.092L720.011 137.948L720.105 137.667C720.149 137.542 724.162 125.247 718.124 114.109C713.998 106.502 706.223 101.176 695.009 98.2698L694.415 98.1198L694.834 97.676C698.097 94.257 701.61 81.006 697.328 70.4677C693.615 61.3357 684.896 56.2541 672.114 55.7791L671.52 55.7541L671.82 55.2353C675.101 49.5473 674.695 42.3218 670.739 35.8963C664.782 26.2206 652.769 20.9264 638.624 21.7202L638.242 21.739V21.3577C638.242 18.2512 634.611 12.9508 628.742 9.79431C624.748 7.6504 616.666 4.96269 607.384 11.0944L606.89 11.4194L606.828 10.8319C606.465 7.38163 602.652 3.96262 597.121 2.11248C589.489 -0.437718 577.6 -0.225202 569.15 8.74423V62.4671C573.813 60.1919 578.844 59.0418 584.113 59.0418C603.009 59.0418 618.378 74.4117 618.378 93.3069C618.378 112.202 603.009 127.572 584.113 127.572C578.763 127.572 573.669 126.391 568.956 124.053V172.232L568.975 172.244Z" fill="black"/>
<path d="M636.373 61.9803C636.311 61.9803 636.248 61.9616 636.192 61.9303C636.023 61.8303 635.967 61.6116 636.067 61.4365C636.123 61.3428 641.517 52.0233 637.773 44.229C635.192 38.8536 628.929 35.4096 619.166 33.997C619.066 33.9845 618.978 33.9282 618.922 33.8469C618.866 33.7657 618.841 33.6657 618.866 33.5719C618.884 33.4719 620.785 23.6837 616.328 17.0019C614.278 13.9267 611.184 11.964 607.134 11.1577C606.94 11.1202 606.815 10.9327 606.852 10.7389C606.89 10.5452 607.077 10.4139 607.271 10.4577C611.515 11.3015 614.759 13.3704 616.922 16.6081C621.097 22.8649 619.953 31.4405 619.628 33.3407C629.442 34.822 635.761 38.3848 638.417 43.9227C642.324 52.0671 636.736 61.7053 636.68 61.8053C636.611 61.9178 636.492 61.9803 636.373 61.9803Z" fill="black"/>
<path d="M600.34 53.7978C600.253 53.7978 600.171 53.7665 600.103 53.7102C590.108 44.8721 573.213 53.0227 573.044 53.1039C572.863 53.1915 572.651 53.1164 572.563 52.9414C572.476 52.7664 572.551 52.5477 572.726 52.4602C572.901 52.3726 590.221 44.0095 600.578 53.1727C600.728 53.304 600.74 53.529 600.609 53.679C600.54 53.7602 600.44 53.7978 600.34 53.7978Z" fill="black"/>
<path d="M571.299 30.44C571.199 30.44 571.105 30.4025 571.037 30.3212C570.905 30.1774 570.912 29.9462 571.062 29.8149C578.225 23.3144 587.225 24.1707 587.313 24.1832C587.513 24.202 587.65 24.3833 587.632 24.577C587.613 24.7708 587.438 24.9145 587.238 24.8958C587.15 24.8833 578.462 24.0707 571.543 30.3462C571.474 30.4087 571.387 30.44 571.299 30.44Z" fill="black"/>
<path d="M671.176 81.8253C671.176 81.8253 671.164 81.8253 671.158 81.8253C670.958 81.8128 670.808 81.644 670.82 81.4503C671.101 76.3186 669.464 72.0183 665.963 68.6743C665.82 68.5368 665.813 68.3118 665.951 68.168C666.088 68.0242 666.313 68.018 666.457 68.1555C670.12 71.6558 671.826 76.1436 671.533 81.494C671.52 81.6878 671.364 81.8315 671.176 81.8315V81.8253Z" fill="black"/>
<path d="M615.134 120.516C615.134 120.516 615.116 120.516 615.109 120.516C614.909 120.503 614.766 120.328 614.778 120.134C615.484 110.402 625.241 102.939 625.654 102.627C625.81 102.508 626.035 102.539 626.154 102.696C626.273 102.852 626.241 103.077 626.085 103.196C625.985 103.271 616.178 110.777 615.491 120.184C615.478 120.372 615.322 120.516 615.134 120.516Z" fill="black"/>
<path d="M676.451 121.772C676.451 121.772 676.42 121.772 676.402 121.772C655.906 118.934 651.5 108.627 651.412 100.483C651.412 100.283 651.568 100.12 651.768 100.12C651.95 100.108 652.131 100.277 652.131 100.477C652.256 111.915 660.45 118.84 676.501 121.066C676.695 121.091 676.833 121.272 676.808 121.472C676.783 121.653 676.626 121.784 676.451 121.784V121.772Z" fill="black"/>
<path d="M602.664 165.394C602.564 165.394 602.464 165.35 602.395 165.269C602.264 165.119 602.282 164.894 602.426 164.763C609.571 158.494 610.514 150.587 609.421 147.943C609.364 147.805 609.396 147.643 609.508 147.543C609.621 147.443 609.777 147.418 609.914 147.486C618.115 151.618 625.553 150.812 630.31 145.268C635.679 139.011 636.116 128.404 631.278 121.622C631.178 121.484 631.191 121.297 631.303 121.172C631.416 121.047 631.603 121.016 631.747 121.103C636.004 123.516 640.048 124.078 643.773 122.785C651.086 120.247 654.786 111.334 654.824 111.246C654.899 111.065 655.112 110.971 655.293 111.052C655.474 111.127 655.562 111.334 655.493 111.521C655.337 111.903 651.63 120.822 644.011 123.466C640.448 124.703 636.629 124.335 632.629 122.378C636.816 129.416 636.123 139.598 630.853 145.736C626.009 151.381 618.565 152.368 610.339 148.499C611.202 152.268 609.233 159.75 602.895 165.313C602.826 165.375 602.745 165.4 602.658 165.4L602.664 165.394Z" fill="black"/>
<path d="M674.252 142.13C671.408 142.13 668.457 141.798 665.463 141.123C665.27 141.079 665.151 140.886 665.195 140.692C665.238 140.498 665.426 140.379 665.626 140.423C676.914 142.973 687.546 140.529 694.078 133.885C698.641 129.241 700.435 123.191 698.991 117.278C698.941 117.084 699.06 116.89 699.253 116.846C699.441 116.796 699.641 116.915 699.685 117.109C701.185 123.266 699.328 129.566 694.584 134.391C689.621 139.442 682.365 142.13 674.252 142.13Z" fill="black"/>
<path d="M690.903 162C690.728 162 690.578 161.869 690.546 161.694C689.577 155.131 686.402 148.218 681.096 141.161C680.977 141.005 681.008 140.78 681.164 140.661C681.321 140.542 681.546 140.574 681.664 140.73C687.04 147.887 690.271 154.906 691.253 161.594C691.284 161.788 691.146 161.975 690.953 162C690.934 162 690.915 162 690.896 162H690.903Z" fill="black"/>
<path d="M648.824 215.041C648.642 215.041 648.486 214.904 648.467 214.722C647.586 206.278 657.005 194.133 670.469 191.127C670.663 191.083 670.856 191.208 670.894 191.402C670.938 191.596 670.813 191.789 670.619 191.827C657.505 194.752 648.323 206.497 649.174 214.647C649.192 214.847 649.048 215.022 648.855 215.041C648.842 215.041 648.83 215.041 648.817 215.041H648.824Z" fill="black"/>
<path d="M623.049 68.1489C622.924 68.1489 622.799 68.0801 622.737 67.9614C622.643 67.7863 622.706 67.5676 622.881 67.4738C640.888 57.6043 649.583 61.2233 649.945 61.3796C650.126 61.4609 650.208 61.6671 650.126 61.8546C650.045 62.0359 649.833 62.1172 649.651 62.0422C649.564 62.0047 640.876 58.4294 623.218 68.1051C623.162 68.1364 623.106 68.1489 623.043 68.1489H623.049Z" fill="black"/>
<path d="M527.346 146.017C522.052 146.017 517.027 147.686 512.802 150.849C511.976 151.468 510.87 151.568 509.945 151.105C509.02 150.642 508.439 149.699 508.439 148.667V95.6133C496.375 83.2248 475.943 89.7566 475.086 97.8947C460.716 88.394 447.509 101.37 447.509 107.164C422.945 105.777 411.125 125.009 418.076 137.06C386.786 138.217 393.042 169.275 397.912 174.369C366.622 182.482 375.66 209.366 375.66 209.366C365.303 215.229 366.478 232.78 367.797 239.805H412.344C410.237 235.668 409.144 231.099 409.144 226.354C409.144 209.941 422.501 196.59 438.915 196.59C455.328 196.59 468.686 209.941 468.686 226.354C468.686 231.167 467.561 235.793 465.398 239.974H508.27V191.871C508.27 190.833 508.857 189.889 509.789 189.427C510.714 188.964 511.826 189.07 512.652 189.702C516.908 192.939 521.99 194.646 527.353 194.646C540.76 194.646 551.667 183.739 551.667 170.331C551.667 156.924 540.76 146.017 527.353 146.017H527.346Z" fill="#FFDDA7"/>
<path d="M508.264 240.325H465.392C465.267 240.325 465.148 240.262 465.086 240.15C465.023 240.044 465.017 239.912 465.073 239.8C467.23 235.631 468.324 231.105 468.324 226.343C468.324 210.129 455.129 196.934 438.915 196.934C422.701 196.934 409.507 210.129 409.507 226.343C409.507 231.037 410.569 235.506 412.669 239.631C412.726 239.744 412.719 239.875 412.657 239.981C412.594 240.087 412.476 240.15 412.351 240.15H367.803C367.628 240.15 367.485 240.025 367.453 239.856C365.81 231.112 365.628 214.898 375.242 209.179C374.716 207.385 372.154 197.397 377.11 188.252C380.754 181.527 387.536 176.789 397.274 174.151C394.424 170.463 391.636 159.081 395.331 149.993C397.643 144.293 403.369 137.404 417.488 136.704C414.795 131.579 415.245 125.21 418.732 119.547C424.045 110.921 434.677 106.158 447.172 106.765C447.428 103.764 450.635 99.2016 455.854 96.3951C459.423 94.4762 466.586 92.0823 474.83 97.2702C475.474 94.2074 478.724 91.3385 483.475 89.6946C490.282 87.3382 500.976 87.4007 508.708 95.3388C508.77 95.4075 508.808 95.495 508.808 95.5888V148.643C508.808 149.543 509.308 150.355 510.114 150.762C510.921 151.168 511.871 151.081 512.596 150.543C516.884 147.337 521.984 145.643 527.359 145.643C540.96 145.643 552.03 156.712 552.03 170.313C552.03 183.914 540.96 194.984 527.359 194.984C521.921 194.984 516.759 193.246 512.439 189.965C511.721 189.415 510.764 189.327 509.952 189.727C509.139 190.127 508.633 190.946 508.633 191.852V239.956C508.633 240.156 508.47 240.312 508.277 240.312L508.264 240.325ZM465.973 239.612H507.908V191.871C507.908 190.69 508.564 189.633 509.621 189.108C510.683 188.583 511.921 188.702 512.858 189.415C517.052 192.602 522.059 194.284 527.341 194.284C540.548 194.284 551.292 183.539 551.292 170.332C551.292 157.125 540.548 146.38 527.341 146.38C522.128 146.38 517.171 148.024 513.008 151.137C512.064 151.843 510.827 151.949 509.777 151.424C508.727 150.899 508.07 149.843 508.07 148.668V95.7576C500.582 88.1632 490.269 88.1132 483.687 90.3947C478.912 92.051 475.749 94.9387 475.43 97.9327C475.418 98.0577 475.343 98.164 475.224 98.2203C475.112 98.2765 474.98 98.264 474.874 98.1953C466.742 92.8198 459.667 95.1763 456.166 97.0514C451.029 99.8141 447.847 104.452 447.847 107.165C447.847 107.265 447.81 107.358 447.735 107.427C447.66 107.496 447.566 107.533 447.466 107.527C435.071 106.827 424.539 111.471 419.314 119.953C415.845 125.579 415.495 131.91 418.364 136.886C418.426 136.992 418.426 137.129 418.364 137.242C418.301 137.354 418.189 137.423 418.064 137.429C406.856 137.842 399.218 142.292 395.968 150.299C392.218 159.531 395.293 171.145 398.149 174.139C398.237 174.232 398.268 174.364 398.237 174.482C398.206 174.607 398.106 174.701 397.981 174.732C388.149 177.283 381.329 181.952 377.717 188.615C372.429 198.372 375.942 209.154 375.979 209.26C376.035 209.422 375.967 209.604 375.817 209.685C366.416 215.01 366.51 230.755 368.078 239.456H411.751C409.769 235.374 408.769 230.974 408.769 226.361C408.769 209.747 422.283 196.234 438.896 196.234C455.51 196.234 469.024 209.747 469.024 226.361C469.024 231.037 467.992 235.499 465.961 239.625L465.973 239.612Z" fill="black"/>
<path d="M449.477 142.854C449.352 142.854 449.234 142.792 449.171 142.679C448.965 142.336 444.202 134.11 447.646 126.941C449.984 122.071 455.528 118.94 464.128 117.634C463.835 115.871 462.878 108.414 466.522 102.958C468.429 100.101 471.285 98.2822 475.023 97.5384C475.217 97.5009 475.404 97.6259 475.442 97.8197C475.479 98.0134 475.354 98.2009 475.161 98.2384C471.617 98.9385 468.91 100.664 467.116 103.345C463.216 109.196 464.879 117.771 464.897 117.859C464.916 117.952 464.897 118.059 464.841 118.134C464.785 118.215 464.697 118.265 464.597 118.284C456.04 119.521 450.552 122.534 448.296 127.247C445.021 134.072 449.746 142.236 449.79 142.317C449.89 142.486 449.834 142.704 449.665 142.811C449.609 142.842 449.546 142.861 449.484 142.861L449.477 142.854Z" fill="black"/>
<path d="M481.112 135.673C481.012 135.673 480.912 135.629 480.843 135.554C480.712 135.404 480.725 135.179 480.875 135.048C489.988 126.985 505.22 134.342 505.37 134.417C505.545 134.504 505.62 134.717 505.533 134.898C505.445 135.073 505.233 135.148 505.052 135.06C504.902 134.985 490.094 127.847 481.343 135.585C481.275 135.648 481.193 135.673 481.106 135.673H481.112Z" fill="black"/>
<path d="M506.608 115.165C506.52 115.165 506.433 115.134 506.364 115.071C500.307 109.571 492.7 110.289 492.619 110.296C492.413 110.314 492.244 110.171 492.225 109.977C492.207 109.777 492.35 109.602 492.544 109.583C492.625 109.577 500.538 108.821 506.845 114.54C506.989 114.671 507.001 114.902 506.87 115.046C506.801 115.121 506.701 115.165 506.608 115.165Z" fill="black"/>
<path d="M418.919 160.274C418.732 160.274 418.569 160.124 418.563 159.937C418.038 150.374 424.739 145.867 430.452 143.773C438.865 140.685 449.891 141.342 452.422 144.061C468.923 139.542 474.642 152.73 475.536 155.124C488.275 150.305 501.795 158.449 501.932 158.53C502.101 158.637 502.151 158.856 502.051 159.024C501.951 159.193 501.732 159.249 501.557 159.143C501.42 159.062 487.962 150.955 475.455 155.924C475.361 155.962 475.255 155.955 475.168 155.912C475.08 155.868 475.011 155.787 474.98 155.693C474.78 155.043 469.917 139.867 452.397 144.811C452.253 144.848 452.103 144.798 452.016 144.679C450.216 142.304 439.509 141.21 430.702 144.442C425.22 146.455 418.788 150.767 419.282 159.893C419.294 160.093 419.138 160.262 418.944 160.268C418.938 160.268 418.932 160.268 418.926 160.268L418.919 160.274Z" fill="black"/>
<path d="M465.842 177.801C465.73 177.801 465.617 177.801 465.511 177.801C459.679 177.62 453.397 172.551 449.51 164.875C449.422 164.7 449.491 164.481 449.666 164.394C449.841 164.306 450.06 164.375 450.147 164.55C453.916 171.994 459.954 176.914 465.53 177.089C470.061 177.239 474.186 174.326 477.48 168.707C477.581 168.538 477.799 168.482 477.974 168.575C478.143 168.675 478.206 168.894 478.106 169.069C474.749 174.795 470.517 177.814 465.848 177.814L465.842 177.801Z" fill="black"/>
<path d="M473.305 192.721C473.118 192.721 472.962 192.577 472.949 192.39C472.349 184.151 463.755 177.576 463.667 177.507C463.511 177.388 463.48 177.163 463.599 177.007C463.717 176.851 463.942 176.82 464.099 176.938C464.461 177.213 473.043 183.776 473.668 192.34C473.681 192.54 473.531 192.708 473.337 192.721C473.331 192.721 473.318 192.721 473.312 192.721H473.305Z" fill="black"/>
<path d="M502.001 226.43H501.989C487.475 226.042 480.956 219.279 478.362 215.285C475.512 210.898 474.949 206.366 475.868 204.153C475.943 203.972 476.155 203.884 476.337 203.959C476.518 204.035 476.605 204.247 476.53 204.428C475.705 206.416 476.28 210.76 478.968 214.898C481.487 218.773 487.825 225.336 502.014 225.717C502.214 225.717 502.37 225.886 502.364 226.086C502.364 226.28 502.201 226.436 502.007 226.436L502.001 226.43Z" fill="black"/>
<path d="M401.738 210.053C401.738 210.053 401.682 210.053 401.657 210.041C393.5 208.147 387.456 202.728 385.874 195.909C385.831 195.715 385.949 195.521 386.143 195.477C386.337 195.434 386.531 195.552 386.574 195.746C388.093 202.303 393.937 207.516 401.819 209.347C402.013 209.391 402.132 209.585 402.088 209.778C402.051 209.947 401.901 210.053 401.738 210.053Z" fill="black"/>
<path d="M533.604 187.002C533.542 187.002 533.473 186.983 533.417 186.952C533.248 186.846 533.198 186.627 533.298 186.458C535.179 183.389 536.742 177.67 534.935 171.67C533.854 168.063 531.098 163.075 524.147 159.831C523.966 159.75 523.891 159.531 523.972 159.356C524.053 159.175 524.272 159.1 524.447 159.181C531.641 162.538 534.492 167.713 535.617 171.463C537.161 176.595 536.486 182.627 533.898 186.833C533.829 186.946 533.71 187.002 533.592 187.002H533.604Z" fill="black"/>
<path d="M409.056 525.69L389.78 506.808L386.992 523.478L401.156 534.585C403.243 536.222 406.169 536.279 408.325 534.728C411.294 532.585 411.644 528.29 409.063 525.69H409.056Z" fill="white"/>
<path d="M404.838 536.204C403.456 536.204 402.075 535.754 400.937 534.866L386.774 523.759C386.674 523.678 386.618 523.547 386.643 523.415L389.43 506.745C389.449 506.614 389.549 506.508 389.674 506.464C389.805 506.42 389.943 506.458 390.037 506.551L409.319 525.434C410.626 526.747 411.288 528.559 411.138 530.403C410.988 532.247 410.038 533.929 408.538 535.01C407.438 535.804 406.138 536.197 404.838 536.197V536.204ZM387.38 523.328L401.375 534.304C403.325 535.835 406.1 535.891 408.113 534.435C409.444 533.472 410.282 531.985 410.419 530.347C410.551 528.709 409.963 527.109 408.807 525.94L390.018 507.539L387.38 523.322V523.328Z" fill="#003F46"/>
<path d="M416.495 526.359L397.218 507.476L394.431 524.146L408.594 535.253C410.682 536.891 413.607 536.947 415.764 535.397C418.733 533.253 419.083 528.959 416.501 526.359H416.495Z" fill="white"/>
<path d="M412.276 536.872C410.895 536.872 409.514 536.422 408.376 535.535L394.212 524.428C394.112 524.347 394.056 524.215 394.081 524.084L396.869 507.414C396.888 507.283 396.981 507.176 397.113 507.133C397.244 507.089 397.381 507.126 397.475 507.22L416.752 526.103C418.058 527.416 418.72 529.228 418.57 531.072C418.42 532.916 417.47 534.597 415.97 535.685C414.87 536.479 413.57 536.872 412.27 536.872H412.276ZM394.819 523.997L408.813 534.972C410.764 536.504 413.539 536.56 415.552 535.104C416.883 534.141 417.72 532.653 417.858 531.016C417.989 529.378 417.402 527.778 416.245 526.609L397.456 508.208L394.819 523.99V523.997Z" fill="#003F46"/>
<path d="M343.759 491.4L387.312 497.432C393.644 499.163 399.425 502.482 404.113 507.07L423.39 525.953C425.977 528.553 425.627 532.841 422.652 534.991C420.496 536.547 417.577 536.491 415.483 534.847L401.319 523.74L401.244 524.584C400.744 530.235 395.681 534.36 390.05 533.704C370.023 531.378 340.421 531.491 340.421 531.491L343.759 491.394V491.4Z" fill="white"/>
<path d="M419.164 536.466C417.783 536.466 416.401 536.016 415.264 535.129L401.619 524.434L401.6 524.622C401.35 527.453 400 529.997 397.8 531.791C395.6 533.585 392.831 534.391 390.006 534.066C370.229 531.772 340.721 531.86 340.421 531.86C340.302 531.847 340.221 531.816 340.158 531.747C340.089 531.672 340.058 531.572 340.064 531.472L343.402 491.375C343.408 491.275 343.458 491.188 343.533 491.125C343.608 491.063 343.708 491.032 343.808 491.05L387.362 497.082C393.781 498.832 399.644 502.195 404.363 506.82L423.639 525.703C424.952 527.022 425.615 528.828 425.458 530.678C425.308 532.522 424.358 534.204 422.858 535.291C421.758 536.085 420.458 536.479 419.158 536.479L419.164 536.466ZM401.325 523.384C401.406 523.384 401.481 523.409 401.544 523.459L415.708 534.566C417.658 536.098 420.427 536.154 422.446 534.697C423.777 533.735 424.614 532.247 424.752 530.61C424.883 528.972 424.296 527.366 423.139 526.203L403.863 507.327C399.231 502.789 393.475 499.488 387.218 497.776L344.09 491.807L340.821 531.135C344.402 531.128 371.523 531.191 390.106 533.347C392.731 533.654 395.312 532.897 397.362 531.228C399.413 529.56 400.669 527.184 400.9 524.553L400.975 523.709C400.988 523.578 401.069 523.465 401.188 523.409C401.231 523.39 401.281 523.378 401.331 523.378L401.325 523.384Z" fill="#003F46"/>
<path d="M401.325 523.74C401.356 523.165 401.25 522.615 401.05 522.115C400.525 520.827 399.312 519.877 397.837 519.752L376.11 517.915L401.325 523.74Z" fill="white"/>
<path d="M401.325 524.096C401.325 524.096 401.312 524.096 401.306 524.096C401.106 524.084 400.956 523.921 400.969 523.721C400.994 523.209 400.906 522.715 400.719 522.246C400.225 521.04 399.112 520.221 397.812 520.108L376.085 518.271C375.885 518.252 375.742 518.083 375.76 517.883C375.779 517.683 375.96 517.54 376.148 517.558L397.875 519.396C399.443 519.527 400.794 520.521 401.387 521.977C401.619 522.54 401.719 523.14 401.687 523.759C401.681 523.953 401.519 524.103 401.331 524.103L401.325 524.096Z" fill="#003F46"/>
<path d="M399.944 524.472C399.85 526.415 397.687 527.891 395.112 527.766C392.537 527.641 390.531 525.959 390.631 524.015C390.731 522.071 392.887 520.596 395.462 520.721L399.944 524.472Z" fill="white"/>
<path d="M395.413 528.134C395.307 528.134 395.2 528.134 395.088 528.128C392.319 527.99 390.156 526.14 390.263 524.003C390.369 521.865 392.719 520.234 395.469 520.371C395.669 520.384 395.819 520.552 395.807 520.746C395.8 520.946 395.638 521.102 395.432 521.09C393.05 520.965 391.063 522.296 390.975 524.04C390.888 525.784 392.75 527.297 395.119 527.415C397.488 527.534 399.488 526.209 399.576 524.465C399.582 524.265 399.757 524.121 399.951 524.121C400.151 524.134 400.301 524.303 400.288 524.496C400.188 526.553 398.026 528.134 395.4 528.134H395.413Z" fill="#003F46"/>
<path d="M424.908 528.565C424.645 527.615 424.145 526.709 423.389 525.953L419.207 521.859C418.207 523.365 418.82 525.734 420.676 527.303C421.995 528.422 423.608 528.853 424.908 528.565Z" fill="white"/>
<path d="M424.102 529.009C422.864 529.009 421.533 528.497 420.445 527.578C418.458 525.89 417.795 523.346 418.908 521.659C418.964 521.571 419.064 521.509 419.17 521.502C419.277 521.49 419.383 521.527 419.458 521.602L423.639 525.696C424.408 526.471 424.965 527.428 425.252 528.472C425.277 528.565 425.265 528.665 425.215 528.753C425.165 528.84 425.083 528.897 424.983 528.915C424.696 528.978 424.402 529.009 424.096 529.009H424.102ZM419.302 522.446C418.733 523.809 419.383 525.728 420.914 527.028C421.977 527.928 423.296 528.384 424.446 528.278C424.171 527.503 423.721 526.79 423.139 526.203L419.302 522.446Z" fill="#003F46"/>
<path d="M281.335 441.515L287.235 474.249L363.885 485.225L352.09 531.985H270.765L267.715 444.772L281.335 441.515Z" fill="#EBEBEB"/>
<path d="M352.371 532.347H270.421L270.408 532.003L267.352 444.49L281.628 441.084L287.547 473.936L364.334 484.937L352.377 532.353L352.371 532.347ZM271.108 531.628H351.808L363.434 485.525L286.922 474.568L286.878 474.311L281.053 441.953L268.083 445.047L271.108 531.622V531.628Z" fill="#003F46"/>
<path d="M204.616 380.029C205.01 379.235 220.261 348.795 220.261 348.795L245.019 362.403L239.869 380.229L204.616 380.029Z" fill="white"/>
<path d="M204.616 380.386C204.559 380.386 204.509 380.373 204.453 380.348C204.278 380.261 204.203 380.042 204.291 379.867C204.684 379.073 219.936 348.633 219.936 348.633C219.979 348.546 220.054 348.483 220.148 348.452C220.242 348.421 220.342 348.433 220.429 348.483L245.187 362.09C245.362 362.184 245.425 362.403 245.331 362.578C245.237 362.753 245.019 362.815 244.844 362.722L220.411 349.296C218.754 352.602 205.303 379.454 204.934 380.198C204.872 380.323 204.747 380.398 204.616 380.398V380.386Z" fill="black"/>
<path d="M195.334 379.817C195.234 379.51 206.21 362.84 206.21 362.84C232.843 369.141 243.112 375.241 243.112 375.241L195.334 379.817Z" fill="#EBEBEB"/>
<path d="M195.084 380.198L194.996 379.929C194.928 379.717 194.84 379.46 205.916 362.64L206.054 362.428L206.297 362.484C232.681 368.728 243.194 374.866 243.3 374.929L244.244 375.491L195.09 380.198H195.084ZM206.372 363.247C202.603 368.972 197.222 377.229 195.953 379.398L241.9 374.997C238.706 373.366 227.874 368.353 206.372 363.247Z" fill="#003F46"/>
<path d="M391.637 334.932L359.141 323.8C359.141 323.8 364.147 297.335 373.548 283.653C380.705 273.234 398.394 268.189 406.425 266.377C407.626 266.108 408.813 266.396 409.726 267.071C410.513 267.652 411.095 268.514 411.295 269.552C411.488 270.533 411.307 271.508 410.845 272.327C410.326 273.246 409.444 273.959 408.351 274.252L401.969 275.934C406.682 275.934 410.938 275.952 413.895 275.977C415.382 275.99 416.658 276.821 417.314 278.034C417.664 278.678 417.839 279.428 417.776 280.215L417.758 280.422C417.633 282.003 416.564 283.353 415.057 283.841L414.882 285.359C414.795 286.116 414.576 286.835 414.245 287.491C413.526 288.916 412.288 290.041 410.738 290.585C406.288 292.141 403.044 294.204 403.313 293.854C405.369 293.535 406.963 293.323 408.194 293.191C409.207 293.079 410.132 293.454 410.782 294.104C411.432 294.754 411.795 295.691 411.682 296.698C411.588 297.492 411.207 298.198 410.638 298.704C410.313 298.992 409.932 299.211 409.507 299.348C406.938 300.161 403.2 301.204 403.2 301.204L391.643 334.938L391.637 334.932Z" fill="white"/>
<path d="M391.637 335.288C391.6 335.288 391.562 335.282 391.518 335.27L359.028 324.137C358.86 324.081 358.76 323.906 358.791 323.731C358.841 323.469 363.916 297.035 373.254 283.447C380.555 272.815 398.831 267.721 406.351 266.021C407.601 265.739 408.907 266.014 409.945 266.771C410.832 267.427 411.445 268.389 411.657 269.477C411.857 270.508 411.682 271.583 411.17 272.496C410.576 273.54 409.613 274.284 408.451 274.59L404.744 275.565C408.432 275.565 411.67 275.59 413.908 275.602C415.464 275.615 416.895 276.471 417.639 277.846C418.033 278.571 418.208 279.397 418.139 280.228L418.12 280.434C417.989 282.09 416.927 283.503 415.389 284.091L415.239 285.384C415.145 286.172 414.92 286.928 414.564 287.635C413.789 289.179 412.47 290.341 410.857 290.904C408.757 291.635 406.945 292.479 405.626 293.135C406.544 293.01 407.388 292.904 408.157 292.816C409.232 292.698 410.282 293.073 411.039 293.835C411.801 294.598 412.164 295.654 412.039 296.723C411.939 297.592 411.526 298.385 410.87 298.961C410.501 299.286 410.076 299.529 409.607 299.673C407.388 300.379 404.251 301.261 403.469 301.486L391.968 335.038C391.918 335.188 391.781 335.282 391.631 335.282L391.637 335.288ZM359.553 323.556L391.412 334.469L402.857 301.079C402.894 300.967 402.988 300.879 403.1 300.848C403.138 300.836 406.863 299.798 409.395 298.992C409.77 298.873 410.107 298.679 410.401 298.423C410.92 297.967 411.251 297.329 411.332 296.642C411.432 295.792 411.139 294.948 410.539 294.341C409.932 293.735 409.101 293.441 408.245 293.535C406.926 293.679 405.363 293.891 403.601 294.166C403.269 294.31 403.175 294.273 403.038 294.11C402.932 293.979 402.938 293.76 403.038 293.629C403.094 293.554 403.175 293.504 403.269 293.491C403.313 293.485 403.357 293.479 403.4 293.473C403.557 293.398 403.807 293.266 404.069 293.135C405.344 292.479 407.713 291.26 410.639 290.235C412.076 289.729 413.251 288.697 413.945 287.316C414.264 286.685 414.464 286.01 414.545 285.303L414.72 283.784C414.739 283.647 414.833 283.528 414.964 283.484C416.339 283.041 417.302 281.815 417.42 280.378L417.439 280.172C417.495 279.478 417.352 278.796 417.02 278.19C416.401 277.046 415.208 276.334 413.914 276.321C411.126 276.303 406.807 276.278 401.988 276.284C401.807 276.284 401.657 276.153 401.632 275.971C401.607 275.79 401.719 275.621 401.894 275.577L408.276 273.896C409.245 273.64 410.057 273.015 410.551 272.14C410.982 271.377 411.126 270.477 410.957 269.615C410.782 268.702 410.27 267.902 409.526 267.352C408.663 266.714 407.563 266.483 406.519 266.721C399.081 268.402 381.018 273.427 373.854 283.853C365.141 296.529 360.16 320.575 359.566 323.562L359.553 323.556Z" fill="#003F46"/>
<path d="M391.537 279.64C391.419 279.64 391.306 279.584 391.237 279.478C391.131 279.309 391.175 279.09 391.344 278.984C391.506 278.878 395.406 276.39 401.926 275.578C402.113 275.553 402.301 275.69 402.326 275.89C402.351 276.084 402.213 276.265 402.013 276.29C395.663 277.084 391.769 279.565 391.731 279.59C391.669 279.628 391.606 279.647 391.537 279.647V279.64Z" fill="#003F46"/>
<path d="M397.331 285.784C397.193 285.784 397.056 285.703 396.999 285.565C396.924 285.384 397.006 285.172 397.193 285.097C403.431 282.459 410.313 282.428 410.775 282.59C410.963 282.653 411.063 282.859 411 283.047C410.938 283.234 410.732 283.334 410.544 283.272C410.188 283.197 403.525 283.203 397.468 285.759C397.424 285.778 397.374 285.791 397.331 285.791V285.784Z" fill="#003F46"/>
<path d="M354.547 329.919L357.516 316.649L397.525 328.732L395.744 339.626L354.547 329.919Z" fill="white"/>
<path d="M395.743 339.982C395.743 339.982 395.687 339.982 395.662 339.97L354.465 330.263C354.272 330.219 354.153 330.025 354.197 329.838L357.166 316.568C357.184 316.468 357.247 316.387 357.334 316.337C357.422 316.287 357.522 316.274 357.622 316.306L397.631 328.388C397.806 328.438 397.912 328.613 397.881 328.788L396.1 339.682C396.081 339.782 396.025 339.87 395.944 339.926C395.881 339.964 395.812 339.989 395.743 339.989V339.982ZM354.978 329.657L395.456 339.195L397.125 328.994L357.784 317.118L354.978 329.663V329.657Z" fill="black"/>
<path d="M351.76 593.271L313.057 736.807L439.979 737.219C433.466 713.848 386.756 700.785 381.987 694.184C377.218 687.584 407.795 618.054 407.795 618.054L351.753 593.277L351.76 593.271Z" fill="white"/>
<path d="M439.978 737.569L313.056 737.156C312.943 737.156 312.837 737.106 312.774 737.013C312.705 736.925 312.687 736.806 312.712 736.7L351.415 593.164C351.44 593.064 351.515 592.977 351.608 592.933C351.702 592.889 351.815 592.889 351.908 592.933L407.95 617.71C408.132 617.791 408.213 618.004 408.132 618.185C397.581 642.168 378.611 688.872 382.286 693.966C383.736 695.978 389.43 698.704 396.631 702.16C412.244 709.648 435.834 720.968 440.334 737.113C440.365 737.219 440.34 737.338 440.271 737.425C440.203 737.513 440.096 737.569 439.984 737.569H439.978ZM313.524 736.444L439.503 736.85C434.771 721.255 411.657 710.167 396.312 702.804C389.018 699.304 383.255 696.541 381.698 694.384C376.985 687.859 404.781 624.023 407.325 618.222L351.996 593.764L313.524 736.444Z" fill="#003F46"/>
<path d="M397.719 737.075L313.057 736.8L328.858 678.208C339.884 682.709 355.797 686.272 364.892 683.528C364.892 683.528 374.886 674.327 385.862 673.527C385.862 673.558 385.862 673.583 385.862 673.614C382.468 683.915 380.506 692.116 381.999 694.172C386.769 700.773 433.453 713.83 439.985 737.188C439.985 737.194 439.985 737.2 439.991 737.207L397.732 737.069L397.719 737.075Z" fill="#003F46"/>
<path d="M392.343 725.837C359.703 721.117 358.496 699.81 364.884 681.914C364.884 681.914 374.879 673.683 385.855 672.883C385.805 673.283 385.755 673.676 385.698 674.07C382.392 684.152 380.517 692.146 381.979 694.172C384.792 698.066 402.225 704.216 417.37 713.411C422.964 716.917 428.383 720.974 432.877 725.718C422.426 727.349 408.225 728.131 392.336 725.83L392.343 725.837Z" fill="#E6E6E6"/>
<path d="M412.363 727.631C406.287 727.631 399.531 727.237 392.293 726.187C378.854 724.243 369.678 719.336 365.016 711.592C359.253 702.022 361.578 690.103 364.547 681.79C364.565 681.727 364.609 681.677 364.653 681.633C364.753 681.552 374.86 673.314 385.823 672.52C385.93 672.514 386.036 672.551 386.111 672.633C386.186 672.708 386.217 672.814 386.205 672.92C386.167 673.233 386.123 673.545 386.086 673.858L386.055 674.108C381.386 688.384 381.423 692.778 382.273 693.953C383.723 695.966 389.417 698.697 396.618 702.147C402.806 705.116 410.5 708.81 417.563 713.092C423.976 717.111 429.07 721.155 433.146 725.462C433.239 725.556 433.264 725.699 433.227 725.824C433.183 725.949 433.077 726.043 432.939 726.062C427.689 726.881 420.657 727.618 412.357 727.618L412.363 727.631ZM392.399 725.481C409.013 727.881 423.076 726.831 432.152 725.468C428.202 721.393 423.301 717.542 417.188 713.711C410.163 709.448 402.487 705.767 396.312 702.804C389.017 699.304 383.254 696.541 381.692 694.378C380.292 692.441 381.492 685.759 385.361 673.952L385.38 673.764C385.398 673.602 385.423 673.433 385.442 673.27C375.373 674.189 366.116 681.383 365.184 682.127C362.284 690.29 360.028 701.929 365.622 711.223C370.166 718.774 379.173 723.568 392.386 725.481H392.399Z" fill="black"/>
<path d="M439.973 737.194C438.779 732.919 436.235 728.993 432.853 725.387H316.138L313.057 736.806L397.719 737.081L421.246 737.156L439.973 737.2V737.194Z" fill="#ADADAD"/>
<path d="M440.335 737.55L397.719 737.431L312.594 737.156L315.869 725.018H433.015L433.122 725.13C436.772 729.024 439.197 733.05 440.322 737.088L440.335 737.188V737.55ZM313.525 736.444L421.246 736.794L439.491 736.837C438.353 733.1 436.066 729.368 432.69 725.743H316.407L313.519 736.444H313.525Z" fill="black"/>
<path d="M396.4 693.24C394.293 693.24 391.399 692.84 387.424 691.715C387.312 691.684 387.218 691.597 387.18 691.478C385.88 687.446 387.749 684.14 389.499 683.077C390.237 682.633 390.924 682.615 391.343 683.046C392.143 683.859 391.699 685.865 390.093 688.771C394.481 685.846 398.606 686.202 400.775 687.94C401.956 688.89 402.363 690.178 401.825 691.228C401.513 691.84 400.35 693.24 396.4 693.24ZM387.805 691.078C396.369 693.472 400.369 692.484 401.188 690.903C401.569 690.159 401.244 689.24 400.325 688.503C398.15 686.746 393.712 686.596 389.112 690.403C388.974 690.515 388.78 690.515 388.649 690.397C388.518 690.284 388.487 690.084 388.58 689.934C391.193 685.74 391.231 683.946 390.837 683.552C390.637 683.346 390.206 683.49 389.874 683.696C388.355 684.621 386.743 687.503 387.812 691.078H387.805Z" fill="#003F46"/>
<path d="M271.696 531.353H404.888C417.757 531.353 428.471 537.704 434.959 546.954C442.434 557.611 444.284 572.119 437.334 585.188L394.543 665.626H321.713L353.228 586.432L296.036 587.364L271.696 531.353Z" fill="#003F46"/>
<path d="M372.072 736.794L280.29 736.6L283.247 657.138H335.513L372.072 736.794Z" fill="white"/>
<path d="M372.074 737.15L280.292 736.963C280.192 736.963 280.098 736.925 280.035 736.85C279.966 736.781 279.929 736.688 279.935 736.588L282.892 657.125C282.898 656.931 283.06 656.781 283.248 656.781H335.515C335.652 656.781 335.783 656.863 335.84 656.988L372.399 736.644C372.449 736.756 372.442 736.888 372.374 736.988C372.305 737.088 372.192 737.15 372.074 737.15ZM280.66 736.244L371.511 736.431L335.283 657.494H283.592L280.667 736.238L280.66 736.244Z" fill="#003F46"/>
<path d="M350.795 690.728C336.556 689.959 331.462 683.952 331.462 683.952L299.091 683.571C291.834 687.065 285.302 687.003 282.115 686.634L280.627 727.949C284.065 729.25 290.096 730.856 294.284 730.856H364.265C364.902 730.856 367.44 730.181 370.39 729.293L350.795 690.728Z" fill="#FFC76F"/>
<path d="M364.266 731.218H294.286C289.86 731.218 283.616 729.462 280.497 728.287C280.353 728.231 280.26 728.093 280.266 727.937L281.754 686.621C281.754 686.521 281.804 686.427 281.879 686.365C281.954 686.302 282.06 686.265 282.154 686.284C284.698 686.577 291.417 686.878 298.936 683.258C298.986 683.233 299.036 683.215 299.099 683.221L331.47 683.602C331.576 683.602 331.67 683.652 331.739 683.727C331.789 683.784 336.926 689.628 350.815 690.378C350.94 690.384 351.059 690.459 351.115 690.572L370.71 729.137C370.76 729.231 370.76 729.343 370.723 729.443C370.679 729.543 370.598 729.618 370.498 729.643C368.923 730.118 365.166 731.225 364.266 731.225V731.218ZM280.997 727.706C284.135 728.862 290.073 730.5 294.286 730.5H364.266C364.785 730.5 366.966 729.943 369.879 729.075L350.571 691.072C337.458 690.315 332.139 685.202 331.307 684.309L299.18 683.933C291.879 687.434 285.31 687.315 282.466 687.034L281.003 727.706H280.997Z" fill="black"/>
<path d="M299.092 683.571C310.136 674.052 325.75 677.477 331.463 683.952L354.934 728.668L297.048 729.812L299.092 683.577V683.571Z" fill="white"/>
<path d="M296.673 730.175L298.742 683.402L298.861 683.302C310.13 673.583 325.856 677.058 331.732 683.715L331.782 683.784L355.521 729.012L296.673 730.175ZM299.442 683.746L297.423 729.443L354.346 728.318L331.163 684.159C325.606 677.914 310.193 674.595 299.442 683.746Z" fill="#003F46"/>
<path d="M280.278 736.763H374.404L368.398 725.243H280.741L280.278 736.763Z" fill="#EBEBEB"/>
<path d="M374.998 737.119H279.903L280.397 724.88H368.61L374.998 737.119ZM280.653 736.4H373.817L368.179 725.599H281.091L280.653 736.4Z" fill="#003F46"/>
<path d="M295.143 709.736C295.074 709.736 295.005 709.717 294.943 709.673C294.78 709.561 294.736 709.336 294.849 709.173C299.418 702.454 309.875 697.785 322.145 696.991C336.452 696.06 349.528 700.604 357.11 709.136C357.241 709.286 357.229 709.511 357.079 709.642C356.929 709.773 356.703 709.761 356.572 709.611C349.134 701.241 336.277 696.791 322.188 697.703C310.137 698.485 299.893 703.035 295.443 709.573C295.374 709.673 295.261 709.729 295.149 709.729L295.143 709.736Z" fill="#003F46"/>
<path d="M149.906 531.991V545.96C149.906 559.074 155.687 570.844 164.851 578.869C172.576 585.639 182.702 589.739 193.79 589.739H233.006L274.09 673.101H352.052L306.943 555.492C304.967 550.348 301.942 545.823 298.161 542.129C291.241 535.366 281.797 531.372 271.69 531.416L149.899 531.991H149.906Z" fill="#003F46"/>
<path d="M352.059 673.458H274.097C273.959 673.458 273.834 673.383 273.778 673.258L232.794 590.095H193.803C183.053 590.095 172.689 586.201 164.626 579.138C155.05 570.756 149.562 558.661 149.562 545.96V531.991C149.562 531.791 149.725 531.634 149.919 531.634L271.709 531.059C271.772 531.059 271.834 531.059 271.891 531.059C281.873 531.059 291.292 534.897 298.43 541.873C302.349 545.704 305.331 550.242 307.3 555.361L352.409 672.97C352.453 673.083 352.434 673.208 352.372 673.301C352.303 673.401 352.197 673.458 352.078 673.458H352.059ZM274.316 672.739H351.534L306.612 555.617C304.687 550.592 301.755 546.142 297.911 542.379C290.911 535.535 281.666 531.772 271.878 531.772C271.816 531.772 271.759 531.772 271.697 531.772L150.263 532.347V545.96C150.263 558.455 155.663 570.35 165.082 578.6C173.021 585.551 183.215 589.383 193.791 589.383H233.006C233.144 589.383 233.269 589.458 233.325 589.583L274.31 672.745L274.316 672.739Z" fill="black"/>
<path d="M233.006 589.895C232.875 589.895 232.756 589.826 232.687 589.701L221.249 567.993C221.155 567.818 221.224 567.6 221.399 567.506C221.574 567.412 221.793 567.481 221.887 567.656L233.325 589.364C233.419 589.539 233.35 589.758 233.175 589.851C233.119 589.876 233.062 589.895 233.006 589.895Z" fill="#003F46"/>
<path d="M359.059 593.308C358.971 593.308 358.884 593.277 358.815 593.214L352.977 587.845C352.871 587.745 352.833 587.589 352.883 587.451C352.933 587.314 353.071 587.22 353.214 587.22H365.122C365.322 587.22 365.478 587.382 365.478 587.576C365.478 587.77 365.315 587.933 365.122 587.933H354.14L359.296 592.677C359.44 592.808 359.452 593.039 359.315 593.183C359.246 593.258 359.146 593.302 359.052 593.302L359.059 593.308Z" fill="#003F46"/>
<path d="M278.096 531.535L139.848 532.722L184.764 393.243C187.283 385.43 192.608 379.161 199.371 375.348C204.815 372.279 211.184 370.797 217.766 371.391L341.076 382.204L351.77 327.144L402.474 336.257L388.098 420.114C387.023 426.389 384.21 432.002 380.21 436.484C374.216 443.19 365.546 447.372 356.014 447.484L280.077 448.36L278.096 531.541V531.535Z" fill="#EBEBEB"/>
<path d="M139.355 533.084L139.505 532.609L184.421 393.136C186.896 385.442 192.146 379.01 199.191 375.041C204.866 371.841 211.298 370.453 217.792 371.035L340.783 381.817L351.484 326.731L402.887 335.969L402.825 336.319L388.449 420.176C387.393 426.345 384.63 432.064 380.473 436.721C374.254 443.684 365.341 447.734 356.015 447.84L280.422 448.709L278.44 531.891H278.09L139.349 533.084H139.355ZM214.911 371.622C209.535 371.622 204.272 372.997 199.553 375.666C192.665 379.554 187.534 385.836 185.115 393.361L140.349 532.366L277.747 531.184L279.728 448.003L356.015 447.128C365.141 447.022 373.86 443.059 379.948 436.246C384.017 431.689 386.717 426.089 387.755 420.057L402.069 336.551L352.065 327.563L341.377 382.592L341.052 382.56L217.742 371.747C216.798 371.66 215.854 371.622 214.917 371.622H214.911Z" fill="#003F46"/>
<path d="M280.078 448.716H280.072L237.294 447.922C237.094 447.922 236.937 447.753 236.944 447.559C236.95 447.365 237.137 447.215 237.306 447.209L280.084 448.003C280.284 448.003 280.441 448.172 280.434 448.366C280.434 448.559 280.272 448.716 280.078 448.716Z" fill="#003F46"/>
<path d="M196.096 398.806C196.065 398.806 196.027 398.806 195.996 398.793C195.802 398.737 195.696 398.537 195.752 398.349C200.896 380.548 221.967 374.273 229.824 375.516C230.017 375.548 230.155 375.729 230.124 375.929C230.092 376.123 229.905 376.26 229.711 376.229C222.048 375.023 201.465 381.154 196.44 398.549C196.396 398.706 196.252 398.806 196.096 398.806Z" fill="#003F46"/>
<path d="M351.971 394.449C351.821 394.449 351.677 394.355 351.627 394.199C351.615 394.155 350.121 389.824 340.851 382.486C340.72 382.379 340.676 382.204 340.751 382.054C340.82 381.904 340.989 381.823 341.151 381.854L350.458 383.836C350.652 383.879 350.777 384.067 350.733 384.261C350.69 384.455 350.502 384.58 350.308 384.536L342.47 382.867C350.902 389.792 352.259 393.805 352.309 393.98C352.371 394.168 352.265 394.368 352.077 394.43C352.04 394.443 352.002 394.449 351.965 394.449H351.971Z" fill="#003F46"/>
<path d="M249.976 317.012C244.051 307.899 232.694 303.798 222.293 308.142C210.479 313.074 204.904 326.644 209.836 338.457C213.18 346.945 221.005 353.371 221.005 353.371L223.612 350.958L227.474 360.215C229.087 364.078 231.825 367.122 235.156 369.122C240.144 372.129 246.438 372.797 252.22 370.385C258.246 367.872 262.283 362.597 263.483 356.646C264.202 353.077 263.902 349.258 262.39 345.639L251.589 320.281C251.589 320.281 250.364 317.581 249.976 317.006V317.012Z" fill="white"/>
<path d="M252.213 370.747C252.076 370.747 251.938 370.666 251.882 370.528C251.807 370.347 251.894 370.134 252.076 370.059C257.776 367.678 261.908 362.64 263.126 356.577C263.858 352.946 263.489 349.214 262.051 345.783L251.251 320.424C250.919 319.687 249.975 317.662 249.675 317.212C243.612 307.898 232.412 304.304 222.423 308.474C210.81 313.318 205.31 326.712 210.154 338.32C210.229 338.501 210.141 338.713 209.96 338.788C209.779 338.863 209.566 338.776 209.491 338.595C204.491 326.619 210.166 312.811 222.142 307.811C232.455 303.504 244.019 307.211 250.263 316.818C250.657 317.405 251.851 320.031 251.901 320.137L262.708 345.501C264.195 349.07 264.583 352.946 263.82 356.721C262.551 363.015 258.264 368.253 252.344 370.722C252.301 370.741 252.251 370.747 252.207 370.747H252.213Z" fill="#003F46"/>
<path d="M240.137 347.689C241.612 351.214 239.943 355.271 236.418 356.746C232.893 358.221 228.836 356.552 227.361 353.027C225.886 349.502 227.555 345.445 231.08 343.97C234.606 342.495 238.662 344.164 240.137 347.689Z" fill="#EBEBEB"/>
<path d="M220.999 353.371L222.268 351.083L227.468 360.215C229.081 364.078 231.819 367.122 235.15 369.122C240.138 372.129 246.432 372.797 252.214 370.385C258.239 367.872 262.277 362.597 263.477 356.646C264.196 353.077 263.896 349.258 262.383 345.639L259.839 339.664C259.839 342.264 260.008 344.183 258.014 345.633C252.67 337.088 230.968 346.302 234.706 354.558C225.012 352.177 223.049 347.864 223.049 347.864C221.13 348.377 218.83 348.846 216.786 349.227C219.105 351.814 220.999 353.371 220.999 353.371Z" fill="#003F46"/>
<path d="M223.793 350.646C225.118 353.821 223.618 357.471 220.442 358.796C217.267 360.121 213.617 358.621 212.292 355.446C210.967 352.271 212.467 348.62 215.642 347.295C218.817 345.97 222.467 347.47 223.793 350.646Z" fill="white"/>
<path d="M218.573 355.415C218.498 355.415 218.43 355.396 218.367 355.346C218.205 355.233 218.167 355.008 218.28 354.846L219.736 352.796L214.479 352.608C214.279 352.602 214.123 352.433 214.135 352.239C214.142 352.039 214.323 351.883 214.504 351.896L220.43 352.108C220.561 352.108 220.68 352.19 220.736 352.308C220.792 352.427 220.786 352.565 220.705 352.677L218.867 355.271C218.798 355.371 218.686 355.421 218.573 355.421V355.415Z" fill="#003F46"/>
<path d="M236.012 335.888C236.787 336.913 236.799 338.213 236.037 338.788C235.274 339.363 234.03 338.995 233.255 337.963C232.48 336.938 232.468 335.638 233.23 335.063C233.993 334.488 235.237 334.857 236.012 335.888Z" fill="#003F46"/>
<path d="M249.514 330.45C250.289 331.475 250.301 332.776 249.539 333.351C248.776 333.926 247.532 333.557 246.757 332.526C245.982 331.494 245.97 330.2 246.732 329.625C247.495 329.05 248.739 329.419 249.514 330.45Z" fill="#003F46"/>
<path d="M242.943 335.663C244.7 335.632 246.025 336.488 246.644 337.532C247.331 338.689 247.162 340.083 245.775 340.77C243.137 342.07 241.856 336.588 242.943 335.663Z" fill="#EBEBEB"/>
<path d="M245.776 341.133C245.645 341.133 245.52 341.058 245.457 340.933C245.37 340.758 245.445 340.539 245.62 340.451C246.132 340.195 246.476 339.82 246.614 339.357C246.764 338.851 246.67 338.27 246.339 337.72C245.839 336.876 244.72 335.995 242.951 336.026C242.776 336.007 242.588 335.87 242.582 335.676C242.582 335.476 242.738 335.313 242.932 335.307C242.97 335.307 243.007 335.307 243.045 335.307C245.026 335.307 246.357 336.357 246.951 337.357C247.382 338.082 247.501 338.87 247.295 339.57C247.101 340.226 246.626 340.758 245.932 341.101C245.882 341.126 245.826 341.139 245.776 341.139V341.133Z" fill="#003F46"/>
<path d="M226.905 335.557C226.711 335.557 226.518 335.507 226.343 335.401C225.836 335.088 225.674 334.426 225.986 333.919C228.555 329.719 232.887 328.825 233.068 328.788C233.649 328.675 234.218 329.05 234.331 329.638C234.443 330.219 234.068 330.788 233.481 330.9C233.449 330.907 229.88 331.669 227.824 335.044C227.624 335.376 227.268 335.557 226.905 335.557Z" fill="#003F46"/>
<path d="M243.857 327.494C243.538 327.494 243.219 327.35 243.007 327.081C242.638 326.613 242.719 325.938 243.188 325.569C246.869 322.681 250.351 323.906 251.682 324.956C252.151 325.325 252.226 326 251.857 326.469C251.488 326.931 250.813 327.013 250.345 326.644C250.245 326.569 247.757 324.725 244.519 327.263C244.319 327.419 244.088 327.494 243.857 327.494Z" fill="#003F46"/>
<path d="M254.895 345.552C254.283 356.59 242.863 358.065 237.481 351.133L254.895 345.552Z" fill="white"/>
<path d="M218.042 359.64C217.192 359.64 216.348 359.471 215.536 359.14C213.911 358.471 212.635 357.209 211.96 355.584C211.285 353.958 211.279 352.171 211.948 350.539C212.617 348.914 213.879 347.639 215.504 346.964C215.686 346.889 215.898 346.977 215.973 347.158C216.048 347.339 215.961 347.552 215.779 347.627C214.329 348.233 213.204 349.364 212.61 350.814C212.017 352.265 212.017 353.858 212.623 355.309C213.229 356.752 214.361 357.884 215.811 358.478C217.261 359.071 218.855 359.071 220.305 358.465C220.486 358.39 220.699 358.478 220.774 358.659C220.849 358.84 220.761 359.053 220.58 359.128C219.761 359.471 218.905 359.64 218.042 359.64Z" fill="#003F46"/>
<path d="M282.966 496.77C282.922 496.77 282.872 496.763 282.828 496.745C282.647 496.669 282.559 496.457 282.634 496.276C282.666 496.207 285.478 489.219 286.878 474.218C286.897 474.049 287.028 473.912 287.197 473.893C287.366 473.874 287.522 473.98 287.578 474.143C287.91 475.187 290.847 484.4 290.847 485.637C290.847 485.837 290.685 485.994 290.491 485.994C290.297 485.994 290.135 485.831 290.135 485.637C290.135 484.894 288.666 479.968 287.422 476.024C285.966 489.957 283.328 496.482 283.297 496.551C283.241 496.688 283.109 496.776 282.966 496.776V496.77Z" fill="#003F46"/>
<path d="M237.825 665.963L213.604 613.828C206.216 600.521 192.196 592.264 176.976 592.264H143.086L103.483 459.573C96.0388 434.627 73.0933 417.526 47.0538 417.526H27.8086L97.8514 666.263L237.831 665.957L237.825 665.963Z" fill="#163336"/>
<path d="M97.8462 666.626C97.6837 666.626 97.5462 666.519 97.5024 666.363L27.4596 417.626C27.4283 417.519 27.4533 417.4 27.5221 417.313C27.5909 417.225 27.6971 417.169 27.8096 417.169H47.0548C59.9058 417.169 72.1505 421.226 82.4575 428.908C92.7646 436.589 100.153 447.159 103.828 459.472L143.356 591.908H176.977C192.322 591.908 206.473 600.239 213.918 613.653L238.151 665.807C238.201 665.919 238.194 666.044 238.126 666.151C238.057 666.257 237.944 666.319 237.826 666.319L97.8462 666.626ZM28.2784 417.888L98.115 665.913L237.263 665.613L213.274 613.99C205.967 600.827 192.053 592.633 176.971 592.633H143.081C142.925 592.633 142.781 592.526 142.737 592.376L103.134 459.685C95.7898 435.077 72.7255 417.894 47.0486 417.894H28.2722L28.2784 417.888Z" fill="black"/>
<path d="M982.356 737.55H0.356277C0.156262 737.55 0 737.388 0 737.194C0 737 0.162512 736.838 0.356277 736.838H982.356C982.556 736.838 982.712 737 982.712 737.194C982.712 737.388 982.55 737.55 982.356 737.55Z" fill="#003F46"/>
<path d="M757.482 340.42C757.382 340.42 757.289 340.382 757.214 340.301C752.057 334.588 751.813 325.456 756.62 318.105C761.208 311.092 771.227 305.304 785.591 310.092C785.778 310.155 785.878 310.355 785.816 310.549C785.753 310.736 785.553 310.842 785.359 310.774C771.377 306.117 761.658 311.711 757.214 318.499C752.582 325.581 752.801 334.35 757.739 339.82C757.87 339.97 757.857 340.195 757.714 340.326C757.645 340.388 757.557 340.42 757.476 340.42H757.482Z" fill="#003F46"/>
<path d="M758.368 333.094C749.18 317.687 771.256 302.13 785.482 309.686C807.703 311.912 819.504 345.127 794.195 355.852C765.624 346.577 758.368 333.094 758.368 333.094Z" fill="#003F46"/>
<path d="M795.997 376.266C793.371 378.279 790.134 378.923 787.133 378.316C784.621 377.81 782.277 376.422 780.595 374.228L763.463 351.877L780.902 338.513L807.41 372.81C808.298 373.966 808.916 375.241 809.279 376.56C810.435 380.748 799.653 373.46 795.997 376.266Z" fill="white"/>
<path d="M789.315 378.892C788.565 378.892 787.815 378.817 787.065 378.667C784.377 378.123 781.977 376.623 780.308 374.447L763.176 352.096C763.057 351.94 763.082 351.715 763.244 351.596C763.401 351.477 763.626 351.502 763.744 351.665L780.877 374.016C782.44 376.054 784.69 377.46 787.202 377.967C790.215 378.579 793.34 377.854 795.778 375.985C795.934 375.866 796.159 375.891 796.278 376.054C796.397 376.21 796.372 376.435 796.209 376.554C794.215 378.085 791.784 378.892 789.309 378.892H789.315Z" fill="#003F46"/>
<path d="M775.564 357.79C773.27 357.359 771.051 358.315 769.732 360.059L776.683 369.128C778.502 368.397 779.914 366.784 780.302 364.715C780.908 361.49 778.783 358.39 775.558 357.79H775.564Z" fill="#003F46"/>
<path d="M790.765 350.714L792.49 341.164C779.158 340.007 772.195 322.712 773.745 317.987C773.745 317.987 767.2 323.456 761.512 322.556C751.187 353.577 753.249 358.084 767.688 362.29C777.076 363.234 785.596 359.127 789.49 356.308C789.683 354.29 790.765 350.721 790.765 350.721V350.714Z" fill="white"/>
<path d="M771.238 362.928C770.007 362.928 768.77 362.84 767.626 362.64C761.825 360.952 757.875 359.184 755.981 355.577C753.312 350.483 754.618 342.12 761.169 322.437C761.225 322.268 761.388 322.162 761.563 322.193C767.019 323.05 773.445 317.755 773.507 317.705C773.657 317.58 773.882 317.599 774.014 317.749C774.139 317.899 774.12 318.124 773.97 318.255C773.701 318.48 767.451 323.637 761.756 322.943C755.437 341.963 754.093 350.433 756.619 355.24C758.394 358.621 762.207 360.309 767.788 361.934C772.551 362.759 778.614 361.559 779.689 360.596C779.839 360.465 780.064 360.477 780.195 360.621C780.327 360.771 780.314 360.996 780.17 361.127C779.183 362.015 775.22 362.915 771.245 362.915L771.238 362.928Z" fill="#003F46"/>
<path d="M787.414 347.002C787.239 347.42 787.102 347.858 787.014 348.32C786.364 351.802 788.658 355.152 792.14 355.802C792.84 355.934 793.534 355.94 794.196 355.846L787.414 346.995V347.002Z" fill="#003F46"/>
<path d="M765.614 337.501L764.02 344.039C764.02 344.039 761.714 342.982 761.657 342.057C761.601 341.138 763.932 338.895 765.614 337.501Z" fill="#E6E6E6"/>
<path d="M764.019 344.395C763.969 344.395 763.919 344.383 763.869 344.364C763.451 344.17 761.363 343.164 761.3 342.076C761.219 340.77 764.407 338.032 765.388 337.226C765.538 337.101 765.763 337.12 765.894 337.276C766.019 337.426 766.001 337.657 765.844 337.782C763.663 339.589 761.982 341.457 762.019 342.039C762.044 342.476 763.157 343.245 764.176 343.714C764.357 343.795 764.432 344.008 764.351 344.189C764.288 344.32 764.163 344.395 764.026 344.395H764.019Z" fill="#003F46"/>
<path d="M760.732 331.375C760.595 331.375 760.457 331.294 760.401 331.157C760.326 330.975 760.407 330.763 760.588 330.688L760.657 330.657C762.388 329.769 763.907 329.619 764.889 329.657C765.089 329.663 765.245 329.832 765.232 330.025C765.226 330.225 765.057 330.388 764.864 330.369C763.97 330.338 762.576 330.475 760.982 331.288C760.926 331.313 760.888 331.332 760.87 331.344C760.826 331.363 760.776 331.375 760.726 331.375H760.732Z" fill="#003F46"/>
<path d="M773.746 343.939C773.14 347.164 775.265 350.264 778.49 350.865C781.715 351.465 784.815 349.346 785.415 346.12C786.022 342.895 783.897 339.795 780.671 339.195C777.446 338.589 774.346 340.714 773.746 343.939Z" fill="#E6E6E6"/>
<path d="M774.395 345.751L762.044 346.42C761.931 346.42 761.825 346.483 761.756 346.558C761.688 346.639 761.65 346.745 761.663 346.858C762.269 351.652 767.644 355.408 774.732 346.389C774.801 346.301 774.826 346.201 774.814 346.101C774.789 345.901 774.62 345.733 774.395 345.745V345.751Z" fill="#003F46"/>
<path d="M763.131 350.277C765.2 347.52 770.456 346.839 773.013 348.37C768.612 352.896 765.044 352.471 763.131 350.277Z" fill="white"/>
<path d="M766.563 352.24C766.057 352.24 765.619 352.165 765.269 352.071C763.188 351.496 761.631 349.471 761.306 346.914C761.281 346.702 761.344 346.495 761.487 346.333C761.619 346.177 761.819 346.083 762.025 346.07L774.376 345.401C774.782 345.383 775.126 345.677 775.176 346.077C775.201 346.27 775.145 346.464 775.02 346.627C771.407 351.221 768.469 352.246 766.569 352.246L766.563 352.24ZM774.413 346.114L762.062 346.783C762.306 349.089 763.656 350.877 765.463 351.377C768.063 352.096 771.257 350.252 774.457 346.177L774.42 346.114H774.413Z" fill="#003F46"/>
<path d="M767.319 349.37C767.256 349.37 767.194 349.352 767.137 349.32C766.969 349.22 766.912 349.014 767.006 348.839C767.069 348.727 767.725 347.689 771.181 346.57C771.375 346.508 771.575 346.614 771.631 346.802C771.694 346.989 771.588 347.195 771.4 347.252C768.237 348.277 767.631 349.189 767.625 349.195C767.556 349.302 767.437 349.364 767.319 349.364V349.37Z" fill="#003F46"/>
<path d="M772.178 337.57C771.953 338.77 772.46 339.876 773.304 340.032C774.154 340.189 775.022 339.345 775.247 338.145C775.472 336.945 774.966 335.838 774.122 335.682C773.272 335.526 772.403 336.37 772.178 337.57Z" fill="#003F46"/>
<path d="M773.646 336.488C773.583 336.488 773.514 336.469 773.458 336.438L771.864 335.463C771.695 335.357 771.639 335.138 771.745 334.969C771.852 334.801 772.07 334.751 772.239 334.851L773.833 335.826C774.002 335.932 774.058 336.151 773.952 336.319C773.883 336.432 773.764 336.488 773.646 336.488Z" fill="#003F46"/>
<path d="M760.876 335.451C760.651 336.651 761.157 337.757 762.001 337.913C762.851 338.07 763.72 337.226 763.945 336.026C764.17 334.826 763.663 333.719 762.82 333.563C761.97 333.407 761.101 334.251 760.876 335.451Z" fill="#003F46"/>
<path d="M762.345 334.369C762.282 334.369 762.213 334.351 762.157 334.319L760.563 333.344C760.395 333.238 760.338 333.019 760.445 332.85C760.551 332.682 760.77 332.632 760.938 332.732L762.532 333.707C762.701 333.813 762.757 334.032 762.651 334.2C762.582 334.313 762.464 334.369 762.345 334.369Z" fill="#003F46"/>
<path d="M786.733 346.32C786.083 349.802 788.377 353.152 791.859 353.802C795.34 354.452 798.69 352.158 799.34 348.676C799.99 345.195 797.697 341.845 794.215 341.195C790.733 340.545 787.383 342.838 786.733 346.32Z" fill="white"/>
<path d="M793.321 350.314C793.233 350.314 793.146 350.283 793.077 350.221L790.283 347.695C790.183 347.608 790.145 347.47 790.177 347.345C790.208 347.214 790.308 347.114 790.439 347.083L796.358 345.595C796.552 345.545 796.746 345.664 796.796 345.858C796.846 346.051 796.727 346.245 796.534 346.295L791.264 347.62L793.558 349.695C793.702 349.827 793.715 350.058 793.583 350.202C793.515 350.277 793.414 350.321 793.314 350.321L793.321 350.314Z" fill="#003F46"/>
<path d="M801.035 327.463C808.071 327.463 813.774 321.759 813.774 314.724C813.774 307.689 808.071 301.986 801.035 301.986C794 301.986 788.297 307.689 788.297 314.724C788.297 321.759 794 327.463 801.035 327.463Z" fill="#003F46"/>
<path d="M815.144 322.1C818.17 322.006 820.546 319.476 820.452 316.45C820.357 313.424 817.827 311.048 814.801 311.142C811.775 311.237 809.399 313.767 809.493 316.793C809.588 319.819 812.118 322.195 815.144 322.1Z" fill="#003F46"/>
<path d="M790.22 312.711C790.108 312.711 790.002 312.661 789.933 312.568C787.945 309.868 787.42 306.586 788.526 303.792C789.77 300.648 792.927 298.46 797.415 297.635C797.608 297.598 797.796 297.729 797.833 297.923C797.871 298.117 797.74 298.304 797.546 298.342C793.308 299.123 790.345 301.154 789.195 304.061C788.183 306.623 788.67 309.649 790.514 312.149C790.633 312.311 790.595 312.53 790.439 312.649C790.377 312.699 790.302 312.718 790.227 312.718L790.22 312.711Z" fill="#003F46"/>
<path d="M790.59 312.749C790.54 312.749 790.484 312.736 790.434 312.711C785.402 310.33 783.508 306.248 785.365 301.804C785.44 301.623 785.652 301.535 785.834 301.61C786.015 301.685 786.102 301.898 786.027 302.079C784.333 306.129 786.096 309.861 790.74 312.061C790.921 312.149 790.996 312.361 790.909 312.536C790.846 312.667 790.721 312.742 790.584 312.742L790.59 312.749Z" fill="#003F46"/>
<path d="M788.321 342.207C786.515 342.207 784.79 341.701 783.196 340.682C776.977 336.719 774.145 326.287 774.564 318.043C774.57 317.843 774.72 317.693 774.939 317.706C775.139 317.718 775.289 317.887 775.276 318.081C774.801 327.456 778.295 336.713 783.577 340.082C786.565 341.989 789.915 341.989 793.528 340.082C793.703 339.989 793.922 340.057 794.015 340.232C794.109 340.407 794.04 340.626 793.865 340.72C791.971 341.72 790.103 342.22 788.315 342.22L788.321 342.207Z" fill="#003F46"/>
<path d="M775.814 333.25C775.726 333.25 775.633 333.219 775.564 333.15C775.545 333.132 773.701 331.381 770.682 330.744C770.488 330.7 770.363 330.513 770.407 330.319C770.451 330.125 770.645 330 770.832 330.044C774.064 330.725 775.983 332.557 776.064 332.638C776.208 332.775 776.208 333 776.07 333.144C776.001 333.219 775.908 333.25 775.814 333.25Z" fill="#003F46"/>
<path d="M815.4 375.154C811.993 370.341 804.599 364.353 804.599 364.353C779.828 367.76 772.084 373.741 772.084 373.741L815.4 375.148V375.154Z" fill="#EBEBEB"/>
<path d="M816.105 375.535L771.07 374.073L771.858 373.46C772.177 373.21 779.965 367.378 804.548 363.997L804.704 363.978L804.823 364.078C804.898 364.141 812.298 370.153 815.692 374.948L816.111 375.535H816.105ZM773.239 373.422L814.674 374.773C811.436 370.504 805.417 365.491 804.492 364.734C784.828 367.453 775.939 371.835 773.239 373.429V373.422Z" fill="#003F46"/>
<path d="M610.834 631.336L588.113 663.119L521.858 654.269L577.363 707.923L597.595 701.929L589.139 719.305L607.471 737.025L651.712 671.289L610.834 631.336Z" fill="#ADADAD"/>
<path d="M538.628 656.506L521.858 654.269L577.363 707.923L588.614 704.61L538.628 656.506Z" fill="white"/>
<path d="M593.846 709.655L589.14 719.305L607.472 737.025L613.41 728.237L593.846 709.655Z" fill="white"/>
<path d="M607.471 737.388C607.377 737.388 607.29 737.35 607.221 737.288L588.888 719.568C588.776 719.461 588.745 719.293 588.813 719.155L596.914 702.51L577.463 708.273C577.344 708.311 577.206 708.273 577.113 708.186L521.608 654.531C521.496 654.425 521.465 654.256 521.533 654.119C521.602 653.981 521.746 653.9 521.902 653.919L587.945 662.745L610.54 631.136C610.603 631.048 610.696 630.998 610.803 630.986C610.909 630.98 611.009 631.011 611.084 631.086L651.956 671.039C652.081 671.158 652.1 671.352 652.006 671.495L607.771 737.231C607.709 737.319 607.615 737.375 607.509 737.388C607.496 737.388 607.484 737.388 607.471 737.388ZM589.576 719.23L607.415 736.469L651.243 671.333L610.884 631.88L588.407 663.32C588.332 663.426 588.201 663.482 588.07 663.47L522.896 654.763L577.469 707.517L597.502 701.579C597.639 701.541 597.783 701.579 597.877 701.691C597.97 701.798 597.989 701.954 597.927 702.079L589.589 719.224L589.576 719.23Z" fill="#003F46"/>
<path d="M601.508 633.642L653.162 683.408L724.067 600.771L688.377 525.177L601.508 633.642Z" fill="#003F46"/>
<path d="M653.188 683.934L652.913 683.671L601.021 633.674L688.453 524.503L724.487 600.827L724.337 601.002L653.182 683.927L653.188 683.934ZM601.997 633.611L653.138 682.89L723.643 600.715L688.303 525.847L601.997 633.605V633.611Z" fill="black"/>
<path d="M725.418 660.513L743.788 697.359L689.553 737.637L767.577 737.394L778.009 718.792L784.129 737.344L809.899 737.262L783.185 660.656L725.418 660.513Z" fill="#EBEBEB"/>
<path d="M688.465 738L743.338 697.253L724.837 660.156L783.441 660.3L783.523 660.538L810.406 737.618L783.873 737.7L777.922 719.68L767.784 737.75L688.459 738H688.465ZM725.999 660.875L744.251 697.472L744.007 697.653L690.647 737.281L767.371 737.037L778.097 717.911L784.391 736.987L809.393 736.906L782.929 661.013L725.999 660.875Z" fill="#003F46"/>
<path d="M703.279 727.443L689.553 737.637L767.577 737.393L773.39 727.068L703.279 727.443Z" fill="white"/>
<path d="M780.734 727.03L784.128 737.344L809.899 737.262L806.261 726.893L780.734 727.03Z" fill="white"/>
<path d="M689.552 738C689.396 738 689.258 737.9 689.214 737.756C689.164 737.606 689.214 737.45 689.339 737.356L743.337 697.259L725.098 660.681C725.042 660.569 725.048 660.438 725.117 660.331C725.18 660.225 725.298 660.163 725.423 660.163L783.19 660.3C783.34 660.3 783.478 660.394 783.528 660.544L810.242 737.15C810.28 737.256 810.261 737.381 810.199 737.475C810.13 737.568 810.024 737.625 809.905 737.625L784.134 737.706C783.978 737.706 783.84 737.606 783.797 737.462L777.927 719.686L767.895 737.575C767.833 737.687 767.714 737.756 767.583 737.756L689.558 738H689.552ZM725.999 660.875L744.112 697.203C744.187 697.359 744.144 697.547 744.006 697.653L690.646 737.281L767.37 737.037L777.696 718.617C777.765 718.492 777.902 718.423 778.046 718.436C778.19 718.448 778.309 718.548 778.353 718.68L784.397 736.981L809.399 736.9L782.934 661.006L726.005 660.869L725.999 660.875Z" fill="#003F46"/>
<path d="M805.773 665.101H715.616L659.424 534.616C658.455 532.485 657.805 530.234 657.48 527.94C657.061 524.971 657.199 521.927 657.899 518.965C658.974 514.421 661.293 510.427 664.437 507.314C668.869 502.926 674.944 500.288 681.52 500.288H844.751L833.481 581.988L784.177 593.258L805.779 665.101H805.773Z" fill="#003F46"/>
<path d="M805.775 665.457H715.618C715.474 665.457 715.343 665.37 715.286 665.238L659.095 534.753C658.12 532.609 657.457 530.328 657.126 527.99C656.694 524.94 656.838 521.877 657.551 518.883C658.613 514.389 660.907 510.301 664.183 507.064C668.827 502.463 674.983 499.932 681.521 499.932H844.753C844.859 499.932 844.953 499.976 845.021 500.057C845.09 500.132 845.121 500.238 845.109 500.344L833.839 582.044C833.82 582.194 833.708 582.313 833.564 582.344L784.635 593.527L806.125 665.001C806.156 665.107 806.137 665.226 806.068 665.32C806 665.413 805.893 665.463 805.781 665.463L805.775 665.457ZM715.849 664.738H805.287L783.829 593.358C783.798 593.264 783.81 593.158 783.86 593.076C783.91 592.989 783.992 592.926 784.092 592.908L833.158 581.694L844.34 500.644H681.521C675.177 500.644 669.202 503.101 664.689 507.57C661.507 510.72 659.282 514.689 658.251 519.046C657.563 521.952 657.426 524.928 657.838 527.89C658.157 530.165 658.801 532.372 659.751 534.466L715.855 664.738H715.849Z" fill="black"/>
<path d="M609.233 321.631C610.72 320.962 612.402 321.112 613.721 321.937C614.258 322.275 614.733 322.719 615.114 323.262L616.064 324.625L618.408 323.694C619.346 323.319 620.334 323.225 621.277 323.381C622.815 323.637 624.228 324.556 625.059 325.988L640.823 353.058L645.248 340.607C645.454 340.026 645.76 339.507 646.142 339.057C647.279 337.713 649.086 337.032 650.905 337.395C652.248 337.657 653.355 338.445 654.067 339.495C654.78 340.545 655.086 341.87 654.83 343.214C653.892 348.089 656.68 366.828 657.868 381.167L621.002 399.818C614.796 386.255 604.582 359.709 598.744 344.445C598.288 343.251 598.401 341.945 599.007 340.87C599.194 340.532 599.432 340.22 599.713 339.945C600.763 338.901 602.226 338.526 603.576 338.814C604.32 338.976 605.032 339.339 605.62 339.907L605.782 340.07L604.47 337.27C603.832 335.913 603.701 334.432 604.014 333.051C604.326 331.669 605.089 330.388 606.251 329.444L607.158 328.707L606.808 327.906C606.282 326.706 606.295 325.406 606.733 324.275C607.17 323.144 608.039 322.175 609.233 321.637V321.631Z" fill="white"/>
<path d="M620.822 400.293L620.666 399.956C614.728 386.98 605.115 362.128 598.402 344.564C597.914 343.289 598.021 341.876 598.69 340.682C598.896 340.314 599.152 339.976 599.458 339.676C600.565 338.582 602.127 338.126 603.652 338.451C604.071 338.538 604.471 338.688 604.84 338.888L604.146 337.413C603.496 336.032 603.327 334.451 603.665 332.963C604.002 331.475 604.84 330.119 606.028 329.156L606.721 328.588L606.484 328.038C605.94 326.794 605.915 325.406 606.403 324.137C606.896 322.868 607.846 321.862 609.09 321.306C610.653 320.606 612.459 320.725 613.916 321.631C614.51 322 615.016 322.481 615.416 323.056L616.203 324.187L618.279 323.362C619.254 322.975 620.31 322.862 621.335 323.031C623.035 323.312 624.504 324.325 625.367 325.812L640.743 352.214L644.912 340.489C645.131 339.876 645.449 339.32 645.868 338.826C647.118 337.351 649.075 336.663 650.975 337.038C652.369 337.313 653.569 338.113 654.363 339.288C655.156 340.464 655.444 341.882 655.175 343.276C654.563 346.464 655.594 355.896 656.681 365.884C657.244 371.01 657.819 376.31 658.219 381.129L658.238 381.373L620.822 400.306V400.293ZM602.677 339.063C601.671 339.063 600.696 339.457 599.958 340.182C599.702 340.432 599.49 340.72 599.315 341.032C598.752 342.039 598.658 343.226 599.071 344.308C605.721 361.709 615.222 386.273 621.16 399.318L657.475 380.942C657.075 376.198 656.513 370.991 655.963 365.959C654.869 355.915 653.831 346.427 654.463 343.139C654.694 341.932 654.444 340.707 653.756 339.689C653.069 338.67 652.025 337.976 650.819 337.738C649.175 337.413 647.481 338.007 646.399 339.282C646.037 339.707 645.762 340.195 645.568 340.72L640.886 353.902L624.735 326.162C623.979 324.862 622.691 323.975 621.204 323.731C620.304 323.581 619.379 323.681 618.529 324.025L615.922 325.062L614.81 323.469C614.466 322.975 614.028 322.562 613.522 322.243C612.266 321.462 610.715 321.356 609.372 321.962C608.303 322.443 607.484 323.306 607.059 324.4C606.64 325.494 606.659 326.681 607.128 327.756L607.584 328.806L606.465 329.719C605.403 330.582 604.653 331.794 604.352 333.126C604.046 334.457 604.202 335.876 604.784 337.113L606.934 341.689L605.359 340.164C604.84 339.657 604.19 339.313 603.49 339.163C603.215 339.107 602.94 339.076 602.671 339.076L602.677 339.063Z" fill="black"/>
<path d="M626.273 348.708C626.173 348.708 626.066 348.664 625.998 348.577C625.873 348.427 625.891 348.202 626.041 348.07L626.86 347.383L616.759 327.806C616.666 327.631 616.741 327.412 616.916 327.325C617.091 327.237 617.309 327.3 617.397 327.481L627.629 347.314C627.704 347.464 627.667 347.645 627.542 347.752L626.504 348.627C626.435 348.683 626.354 348.708 626.273 348.708Z" fill="#003F46"/>
<path d="M618.335 352.921C618.21 352.921 618.091 352.858 618.022 352.74C617.922 352.565 617.985 352.346 618.16 352.252L618.728 351.927L607.971 330.382C607.884 330.207 607.953 329.988 608.134 329.9C608.309 329.813 608.528 329.882 608.615 330.063L619.522 351.915C619.61 352.083 619.547 352.29 619.378 352.39L618.516 352.883C618.46 352.915 618.397 352.933 618.341 352.933L618.335 352.921Z" fill="#003F46"/>
<path d="M612.871 356.383C612.74 356.383 612.615 356.315 612.552 356.19C612.459 356.015 612.527 355.796 612.702 355.708L613.359 355.365L609.827 348.727C609.733 348.552 609.802 348.333 609.977 348.239C610.146 348.145 610.371 348.214 610.465 348.389L614.165 355.346C614.209 355.433 614.221 355.527 614.19 355.621C614.159 355.715 614.096 355.79 614.015 355.833L613.034 356.346C612.984 356.371 612.927 356.383 612.871 356.383Z" fill="#003F46"/>
<path d="M804.357 581.313C803.938 581.301 757.534 577.288 731.889 564.468L732.207 563.824C755.834 575.638 800.344 580.457 804.375 580.595L804.35 581.313H804.357Z" fill="black"/>
<path d="M915.183 469.767C915.183 469.767 871.511 393.23 825.026 372.104H765.509C737.92 372.572 685.097 429.858 685.097 429.858L661.151 378.21C661.151 378.21 612.785 401.218 611.379 401.218L652.388 481.906C657.064 491.106 665.496 496.913 674.727 498.657C683.197 500.257 692.341 498.432 699.854 492.663C720.106 477.112 745.995 457.085 762.553 443.721C762.84 443.909 763.109 444.109 763.409 444.29C763.409 444.29 762.003 476.161 747.914 500.457H876.812C876.812 500.457 873.955 488.2 869.024 471.055L915.196 469.761L915.183 469.767Z" fill="#F8C4D8"/>
<path d="M876.792 500.826H747.895C747.763 500.826 747.651 500.757 747.582 500.645C747.52 500.532 747.52 500.395 747.582 500.288C760.877 477.355 762.865 447.266 763.021 444.49C762.896 444.409 762.771 444.322 762.646 444.24L762.552 444.178C745.738 457.741 719.305 478.174 700.054 492.956C692.834 498.501 683.571 500.707 674.639 499.019C664.813 497.163 656.575 490.988 652.05 482.074L611.041 401.387C610.984 401.274 610.99 401.143 611.053 401.037C611.116 400.931 611.234 400.868 611.359 400.868C612.722 400.681 641.787 387.03 660.982 377.898C661.069 377.854 661.169 377.854 661.257 377.885C661.344 377.916 661.419 377.985 661.463 378.073L685.184 429.239C690.284 423.757 738.956 372.216 765.49 371.76H825.013C825.063 371.76 825.113 371.772 825.163 371.791C871.223 392.724 915.045 468.836 915.482 469.605C915.545 469.711 915.545 469.848 915.482 469.961C915.42 470.073 915.307 470.142 915.182 470.142L869.466 471.424C874.267 488.15 877.105 500.282 877.13 500.401C877.155 500.507 877.129 500.62 877.061 500.707C876.992 500.795 876.892 500.845 876.78 500.845L876.792 500.826ZM748.52 500.107H876.342C875.786 497.763 873.017 486.306 868.66 471.161C868.629 471.055 868.648 470.942 868.716 470.849C868.779 470.761 868.885 470.705 868.998 470.699L914.57 469.423C910.613 462.654 868.766 392.43 824.951 372.46H765.509C738.394 372.922 685.884 429.527 685.359 430.095C685.277 430.183 685.159 430.227 685.04 430.208C684.921 430.189 684.821 430.114 684.771 430.002L660.976 378.679C652.637 382.642 616.76 399.674 611.884 401.418L652.7 481.731C657.125 490.444 665.176 496.476 674.783 498.294C683.515 499.945 692.572 497.788 699.622 492.369C718.949 477.53 745.513 456.991 762.308 443.434C762.433 443.334 762.602 443.328 762.733 443.415L763.052 443.634C763.227 443.753 763.396 443.872 763.583 443.984C763.69 444.053 763.758 444.172 763.752 444.303C763.74 444.622 762.202 476.068 748.52 500.095V500.107Z" fill="black"/>
<path d="M853.479 718.724C853.279 718.724 853.123 718.561 853.123 718.368V601.14C853.123 600.94 853.286 600.784 853.479 600.784C853.673 600.784 853.836 600.946 853.836 601.14V718.368C853.836 718.568 853.673 718.724 853.479 718.724Z" fill="#003F46"/>
<path d="M916.479 718.93H790.475C790.275 718.93 790.119 718.768 790.119 718.574C790.119 718.38 790.282 718.218 790.475 718.218H916.479C916.679 718.218 916.835 718.38 916.835 718.574C916.835 718.768 916.673 718.93 916.479 718.93Z" fill="#003F46"/>
<path d="M853.479 737.45C858.467 737.45 862.511 733.407 862.511 728.418C862.511 723.43 858.467 719.386 853.479 719.386C848.491 719.386 844.447 723.43 844.447 728.418C844.447 733.407 848.491 737.45 853.479 737.45Z" fill="#003F46"/>
<path d="M918.508 737.45C923.497 737.45 927.54 733.407 927.54 728.418C927.54 723.43 923.497 719.386 918.508 719.386C913.52 719.386 909.477 723.43 909.477 728.418C909.477 733.407 913.52 737.45 918.508 737.45Z" fill="#003F46"/>
<path d="M790.544 737.45C795.532 737.45 799.576 733.407 799.576 728.418C799.576 723.43 795.532 719.386 790.544 719.386C785.556 719.386 781.512 723.43 781.512 728.418C781.512 733.407 785.556 737.45 790.544 737.45Z" fill="#003F46"/>
<path d="M727.888 591.12C728.545 588.907 729.714 586.951 731.232 585.357C733.858 582.613 737.539 580.951 741.527 580.951H804.369L832.571 486.3C835.122 477.743 840.953 470.855 848.448 466.829C853.085 464.342 858.361 462.954 863.886 462.954H956.387L919.709 586.057C917.697 592.814 913.634 598.533 908.327 602.621C902.752 606.915 895.801 609.403 888.394 609.403H741.527C735.908 609.403 731.226 606.209 728.888 601.721C727.263 598.602 726.776 594.852 727.888 591.114V591.12Z" fill="#FFC76F"/>
<path d="M888.395 609.772H741.527C736.064 609.772 731.101 606.753 728.57 601.896C726.82 598.533 726.457 594.671 727.545 591.02C728.201 588.814 729.389 586.77 730.97 585.114C733.708 582.245 737.558 580.601 741.521 580.601H804.094L832.215 486.206C834.747 477.712 840.447 470.717 848.267 466.523C853.048 463.961 858.442 462.604 863.874 462.604H956.375C956.487 462.604 956.594 462.661 956.662 462.748C956.731 462.842 956.75 462.954 956.719 463.067L920.041 586.17C918.047 592.864 914.065 598.658 908.527 602.915C902.783 607.334 895.626 609.772 888.376 609.772H888.395ZM727.889 591.12L728.232 591.22C727.201 594.689 727.545 598.365 729.207 601.559C731.614 606.178 736.333 609.047 741.527 609.047H888.395C895.489 609.047 902.483 606.665 908.109 602.34C913.521 598.171 917.416 592.508 919.366 585.957L955.906 463.311H863.886C858.574 463.311 853.292 464.636 848.617 467.148C840.966 471.255 835.391 478.093 832.915 486.4L804.713 581.051C804.669 581.201 804.526 581.307 804.369 581.307H741.527C737.758 581.307 734.102 582.87 731.495 585.601C729.989 587.176 728.864 589.12 728.239 591.214L727.895 591.114L727.889 591.12Z" fill="black"/>
<path d="M674.997 450.991C674.997 450.991 674.934 450.991 674.903 450.978C674.709 450.928 674.597 450.728 674.653 450.541C674.684 450.428 677.653 439.702 683.966 430.795C682.41 431.583 679.61 433.133 676.628 435.427C676.472 435.546 676.247 435.521 676.122 435.358C676.003 435.202 676.028 434.977 676.191 434.858C680.754 431.352 684.916 429.545 684.954 429.533C685.104 429.47 685.279 429.514 685.379 429.639C685.479 429.77 685.479 429.945 685.379 430.077C678.578 439.071 675.372 450.616 675.341 450.734C675.297 450.897 675.153 450.997 674.997 450.997V450.991Z" fill="#003F46"/>
<path d="M771.491 418.944C771.447 418.944 771.403 418.938 771.36 418.919C771.178 418.844 771.085 418.638 771.16 418.451C771.885 416.638 775.573 392.136 762.415 376.554C762.284 376.404 762.309 376.179 762.459 376.047C762.609 375.922 762.834 375.941 762.965 376.091C776.335 391.917 772.566 416.869 771.828 418.713C771.772 418.851 771.641 418.938 771.497 418.938L771.491 418.944Z" fill="#003F46"/>
<path d="M859.185 463.673C858.991 463.673 858.835 463.523 858.829 463.329C858.822 463.123 858.022 442.571 849.334 410.938C849.284 410.744 849.397 410.55 849.584 410.494C849.778 410.444 849.972 410.556 850.028 410.744C858.741 442.465 859.541 463.092 859.547 463.298C859.554 463.498 859.397 463.66 859.204 463.667C859.204 463.667 859.197 463.667 859.191 463.667L859.185 463.673Z" fill="#003F46"/>
<path d="M328.506 269.751C326.381 256.425 317.555 245.337 305.592 240.043C317.561 234.749 326.387 223.667 328.506 210.334C330.631 223.66 339.457 234.749 351.427 240.043C339.457 245.337 330.631 256.419 328.506 269.751Z" fill="#163336"/>
<path d="M417.226 460.654C415.782 451.597 409.781 444.059 401.649 440.465C409.781 436.871 415.782 429.333 417.226 420.276C418.669 429.333 424.67 436.871 432.802 440.465C424.67 444.059 418.669 451.597 417.226 460.654Z" fill="#F8C4D8"/>
<path d="M693.527 263.039C692.084 253.982 686.083 246.444 677.951 242.85C686.083 239.256 692.084 231.718 693.527 222.661C694.971 231.718 700.972 239.256 709.104 242.85C700.972 246.444 694.971 253.982 693.527 263.039Z" fill="#163336"/>
<path d="M277.115 376.816C276.915 376.816 276.759 376.654 276.759 376.46V55.2415C276.759 55.0415 276.921 54.8853 277.115 54.8853C277.309 54.8853 277.471 55.0478 277.471 55.2415V376.46C277.471 376.66 277.309 376.816 277.115 376.816Z" fill="#003F46"/>
<path d="M311.424 216.16H116.553C116.353 216.16 116.196 215.998 116.196 215.804C116.196 215.61 116.359 215.448 116.553 215.448H311.43C311.63 215.448 311.786 215.61 311.786 215.804C311.786 215.998 311.624 216.16 311.43 216.16H311.424Z" fill="#003F46"/>
<path d="M177.545 376.41H116.553C116.353 376.41 116.196 376.248 116.196 376.054C116.196 375.86 116.359 375.698 116.553 375.698H177.545C177.745 375.698 177.901 375.86 177.901 376.054C177.901 376.248 177.738 376.41 177.545 376.41Z" fill="#003F46"/>
</g>
<defs>
<clipPath id="clip0_812_2576">
<rect width="982.719" height="738" fill="white"/>
</clipPath>
</defs>
</svg>
