<svg width="201" height="65" viewBox="0 0 201 65" fill="none" xmlns="http://www.w3.org/2000/svg">
<g clip-path="url(#clip0_780_1327)">
<g opacity="0.8">
<mask id="mask0_780_1327" style="mask-type:luminance" maskUnits="userSpaceOnUse" x="173" y="0" width="24" height="20">
<path d="M196.505 0H173.717V19.2542H196.505V0Z" fill="white"/>
</mask>
<g mask="url(#mask0_780_1327)">
<path d="M186.491 19.2542H173.717V10.0134C173.717 4.48583 178.198 0 183.73 0H187.264C192.368 0 196.505 4.13693 196.505 9.24081C196.505 14.7683 192.024 19.2542 186.491 19.2542Z" fill="#04B6C8"/>
</g>
</g>
<g opacity="0.8">
<mask id="mask1_780_1327" style="mask-type:luminance" maskUnits="userSpaceOnUse" x="182" y="6" width="19" height="17">
<path d="M200.999 6.32471H182.084V22.3092H200.999V6.32471Z" fill="white"/>
</mask>
<g mask="url(#mask1_780_1327)">
<path d="M192.685 22.3042H182.084V14.6335C182.084 10.043 185.802 6.32471 190.393 6.32471H193.323C197.56 6.32471 200.994 9.75886 200.994 13.9955C200.994 18.586 197.276 22.3042 192.685 22.3042Z" fill="#F8C4D8"/>
</g>
</g>
<g opacity="0.8">
<mask id="mask2_780_1327" style="mask-type:luminance" maskUnits="userSpaceOnUse" x="168" y="11" width="14" height="12">
<path d="M181.304 11.8975H168.943V22.3445H181.304V11.8975Z" fill="white"/>
</mask>
<g mask="url(#mask2_780_1327)">
<path d="M174.376 22.3396H181.304V17.3254C181.304 14.3249 178.872 11.8926 175.871 11.8926H173.958C171.186 11.8926 168.943 14.1355 168.943 16.9067C168.943 19.9073 171.376 22.3396 174.376 22.3396Z" fill="#FFC76F"/>
</g>
</g>
<path d="M27.4292 42.4705C27.4292 44.6785 26.8909 46.5675 25.8193 48.1425C24.7427 49.7126 23.1577 50.9088 21.0593 51.7163C18.961 52.5287 16.4041 52.9324 13.3985 52.9324C10.393 52.9324 8.0654 52.4938 6.01189 51.6116C3.95837 50.7344 2.44814 49.6328 1.47123 48.317C0.494316 47.0012 0.00585938 45.6753 0.00585938 44.3445C0.00585938 43.4673 0.319867 42.7147 0.942899 42.0867C1.56593 41.4636 2.35843 41.1496 3.3154 41.1496C4.15276 41.1496 4.80071 41.354 5.24929 41.7677C5.69788 42.1764 6.13151 42.7546 6.54022 43.4972C7.36262 44.9227 8.34452 45.9893 9.48591 46.6921C10.6273 47.3949 12.1874 47.7488 14.1611 47.7488C15.7611 47.7488 17.0769 47.3949 18.1037 46.6772C19.1304 45.9644 19.6438 45.147 19.6438 44.2299C19.6438 42.8243 19.1105 41.7976 18.0439 41.1546C16.9772 40.5117 15.2278 39.8936 12.7855 39.3104C10.0292 38.6276 7.79126 37.9099 6.06173 37.1572C4.33219 36.4046 2.95155 35.4128 1.91483 34.1816C0.878104 32.9505 0.359741 31.4353 0.359741 29.641C0.359741 28.041 0.83823 26.5258 1.79521 25.1003C2.75218 23.6748 4.16273 22.5334 6.02684 21.6861C7.89095 20.8338 10.1438 20.4102 12.7805 20.4102C14.849 20.4102 16.7131 20.6245 18.3629 21.0581C20.0127 21.4868 21.3883 22.0649 22.4948 22.7876C23.5963 23.5104 24.4387 24.3128 25.0119 25.1901C25.59 26.0673 25.8741 26.9296 25.8741 27.7669C25.8741 28.684 25.5651 29.4366 24.9521 30.0248C24.339 30.6129 23.4618 30.907 22.3303 30.907C21.5079 30.907 20.8101 30.6727 20.2369 30.2042C19.6588 29.7357 19.0009 29.0329 18.2582 28.0959C17.6551 27.3133 16.9374 26.6903 16.12 26.2218C15.2976 25.7533 14.1861 25.519 12.7805 25.519C11.3749 25.519 10.1339 25.828 9.17689 26.4411C8.21991 27.0542 7.74142 27.8217 7.74142 28.7388C7.74142 29.5762 8.0953 30.269 8.79808 30.8023C9.50086 31.3406 10.4479 31.7842 11.6391 32.1331C12.8303 32.487 14.4702 32.9156 16.5636 33.424C19.0457 34.0321 21.0693 34.7548 22.6443 35.5922C24.2144 36.4295 25.4106 37.4214 26.2181 38.5678C27.0255 39.7092 27.4342 41.0151 27.4342 42.4804" fill="#04B6C8"/>
<path d="M54.4135 48.4169C52.4797 49.9222 50.6106 51.0486 48.8013 51.8012C46.992 52.5538 44.9684 52.9277 42.7205 52.9277C40.667 52.9277 38.8677 52.5239 37.3126 51.7115C35.7625 50.9041 34.5613 49.8025 33.7239 48.4169C32.8816 47.0313 32.4629 45.5261 32.4629 43.9062C32.4629 41.7181 33.1557 39.854 34.5463 38.3089C35.9319 36.7637 37.8359 35.732 40.2583 35.2037C40.7667 35.089 42.0277 34.8199 44.0363 34.4112C46.05 34.0025 47.7745 33.6237 49.21 33.2847C50.6455 32.9458 52.2055 32.5271 53.8852 32.0387C53.7855 29.9303 53.3619 28.3802 52.6092 27.3933C51.8566 26.4065 50.3015 25.913 47.934 25.913C45.9004 25.913 44.3753 26.1971 43.3485 26.7653C42.3217 27.3335 41.4445 28.1808 40.7118 29.3173C39.9791 30.4487 39.4608 31.1963 39.1617 31.5602C38.8577 31.924 38.2097 32.1035 37.2129 32.1035C36.3157 32.1035 35.5382 31.8144 34.8852 31.2362C34.2323 30.658 33.9033 29.9204 33.9033 29.0232C33.9033 27.6176 34.4018 26.247 35.3986 24.9211C36.3955 23.5904 37.9506 22.4988 40.0589 21.6415C42.1672 20.7792 44.7939 20.3506 47.939 20.3506C51.4579 20.3506 54.2192 20.7643 56.2328 21.5966C58.2464 22.429 59.667 23.7399 60.4943 25.5392C61.3267 27.3385 61.7404 29.721 61.7404 32.6916C61.7404 34.5657 61.7354 36.1606 61.7254 37.4665C61.7155 38.7774 61.7005 40.2328 61.6806 41.8327C61.6806 43.338 61.9298 44.903 62.4282 46.5379C62.9267 48.1677 63.1759 49.2194 63.1759 49.6879C63.1759 50.5103 62.7921 51.2579 62.0195 51.9308C61.247 52.6037 60.3747 52.9426 59.3978 52.9426C58.5754 52.9426 57.768 52.5588 56.9655 51.7863C56.163 51.0137 55.3157 49.8972 54.4135 48.4319M53.8902 36.8435C52.7189 37.2721 51.0143 37.7257 48.7764 38.2042C46.5384 38.6827 44.9883 39.0366 44.131 39.2608C43.2688 39.4851 42.4513 39.9238 41.6688 40.5767C40.8863 41.2346 40.4975 42.1467 40.4975 43.318C40.4975 44.4893 40.9561 45.5609 41.8732 46.4083C42.7903 47.2556 43.9915 47.6842 45.4768 47.6842C47.0618 47.6842 48.5172 47.3353 49.8579 46.6425C51.1987 45.9497 52.1756 45.0575 52.8036 43.961C53.5264 42.7498 53.8902 40.7561 53.8902 37.9849V36.8435Z" fill="#04B6C8"/>
<path d="M89.782 49.2695L82.7193 37.6662L78.383 41.7682V48.1281C78.383 49.6733 77.9743 50.8595 77.1669 51.6869C76.3544 52.5193 75.4224 52.933 74.3657 52.933C73.1346 52.933 72.1676 52.5193 71.4649 51.7018C70.7621 50.8794 70.4082 49.6683 70.4082 48.0683V13.9561C70.4082 12.1817 70.7471 10.826 71.435 9.89891C72.1178 8.97184 73.0947 8.5083 74.3657 8.5083C75.6367 8.5083 76.5737 8.92698 77.2964 9.76932C78.0192 10.6117 78.383 11.8478 78.383 13.4926V32.8913L87.3796 23.4561C88.4961 22.2848 89.3434 21.4823 89.9315 21.0537C90.5197 20.625 91.2324 20.4107 92.0698 20.4107C93.0666 20.4107 93.894 20.7297 94.5619 21.3627C95.2248 21.9957 95.5588 22.7932 95.5588 23.7501C95.5588 24.9214 94.4772 26.4865 92.304 28.4403L88.0574 32.338L96.2615 45.2323C96.8646 46.1893 97.3032 46.917 97.5674 47.4154C97.8316 47.9138 97.9612 48.3873 97.9612 48.8359C97.9612 50.1069 97.6123 51.1087 96.9194 51.8364C96.2266 52.5691 95.3145 52.9379 94.1781 52.9379C93.2012 52.9379 92.4486 52.6738 91.9202 52.1454C91.3919 51.6171 90.6792 50.6601 89.782 49.2745" fill="#04B6C8"/>
<path d="M110.146 53.9249L110.879 52.1405L101.035 27.3488C100.427 25.9233 100.128 24.8866 100.128 24.2436C100.128 23.5608 100.302 22.9278 100.656 22.3397C101.005 21.7515 101.488 21.283 102.106 20.9341C102.719 20.5802 103.362 20.4058 104.025 20.4058C105.177 20.4058 106.049 20.7746 106.632 21.5073C107.22 22.24 107.734 23.2916 108.187 24.6573L114.956 44.3501L121.376 26.038C121.884 24.5527 122.342 23.3913 122.751 22.554C123.165 21.7166 123.598 21.1484 124.057 20.8543C124.516 20.5603 125.164 20.4157 126.006 20.4157C126.609 20.4157 127.192 20.5802 127.75 20.8992C128.309 21.2232 128.737 21.6568 129.041 22.2051C129.345 22.7533 129.495 23.3315 129.495 23.9346C129.415 24.3084 129.291 24.8368 129.116 25.5196C128.942 26.2024 128.727 26.8953 128.473 27.598L118.041 54.9068C117.144 57.3092 116.262 59.1932 115.404 60.5639C114.542 61.9296 113.406 62.9813 111.99 63.7139C110.575 64.4466 108.666 64.8105 106.263 64.8105C103.861 64.8105 102.161 64.5563 100.99 64.0479C99.8186 63.5395 99.2305 62.6124 99.2305 61.2667C99.2305 60.3446 99.5096 59.6418 100.068 59.1434C100.626 58.645 101.448 58.3957 102.545 58.3957C102.974 58.3957 103.392 58.4556 103.806 58.5702C104.314 58.6848 104.753 58.7446 105.127 58.7446C106.044 58.7446 106.767 58.6101 107.295 58.3359C107.823 58.0618 108.297 57.5883 108.716 56.9154C109.134 56.2425 109.618 55.2507 110.166 53.9398" fill="#04B6C8"/>
<path d="M142.56 24.8318V25.7987C143.965 23.9446 145.505 22.5789 147.175 21.7116C148.845 20.8444 150.764 20.4058 152.932 20.4058C155.1 20.4058 156.924 20.8643 158.589 21.7864C160.249 22.7035 161.49 24.0044 162.307 25.6841C162.836 26.661 163.175 27.7177 163.334 28.8491C163.489 29.9805 163.568 31.4259 163.568 33.1854V48.0734C163.568 49.6733 163.204 50.8845 162.472 51.7069C161.739 52.5293 160.787 52.938 159.616 52.938C158.445 52.938 157.458 52.5143 156.715 51.677C155.972 50.8396 155.603 49.6384 155.603 48.0734V34.7405C155.603 32.1038 155.24 30.0852 154.507 28.6896C153.774 27.294 152.314 26.5962 150.126 26.5962C148.7 26.5962 147.399 27.0199 146.228 27.8722C145.057 28.7245 144.195 29.8908 143.651 31.3761C143.262 32.5673 143.063 34.7953 143.063 38.055V48.0783C143.063 49.6982 142.684 50.9144 141.937 51.7268C141.184 52.5392 140.212 52.943 139.021 52.943C137.83 52.943 136.923 52.5193 136.18 51.682C135.437 50.8446 135.068 49.6434 135.068 48.0783V24.9564C135.068 23.4312 135.402 22.2948 136.065 21.5422C136.728 20.7896 137.64 20.4157 138.792 20.4157C139.494 20.4157 140.127 20.5852 140.696 20.9142C141.264 21.2481 141.717 21.7465 142.056 22.4094C142.4 23.0723 142.57 23.8848 142.57 24.8417" fill="#04B6C8"/>
</g>
<defs>
<clipPath id="clip0_780_1327">
<rect width="201" height="64.8003" fill="white"/>
</clipPath>
</defs>
</svg>
