<svg width="678" height="1140" viewBox="0 0 678 1140" fill="none" xmlns="http://www.w3.org/2000/svg">
<path d="M678 758.621C650.547 779.388 603.924 784.536 603.924 784.536C603.924 784.536 583.157 922.865 565.526 943.278C547.894 963.69 404.18 951.028 404.18 951.028L416.901 1139.35H149.767L174.143 931.267C174.143 931.267 -22.879 795.777 2.20731 567.515C27.2936 339.253 179.113 237.133 379.331 271.686C536.889 298.902 620.432 391.793 604.753 585.679L678 758.621Z" fill="white"/>
<path d="M521.388 365.464C553.1 401.614 554.58 480.719 483.344 506.574C412.108 532.43 263.188 545.86 211.358 580.117C159.529 614.374 40.0731 643.661 56.5804 521.543C75.691 379.9 163.611 300.618 251.118 286.004C328.507 273.046 446.306 279.91 521.388 365.523V365.464Z" fill="#FFC76F"/>
<path d="M433.411 633.484C447.67 648.216 464.118 659.872 484.472 664.013C501.452 667.504 519.202 664.842 536.005 661.528C540.797 660.582 541.981 668.096 537.248 669.043C517.782 672.888 498.02 675.077 478.555 670.403C458.379 665.611 441.754 652.89 427.554 638.217C424.122 634.726 430.098 629.993 433.471 633.484H433.411Z" fill="#FFC76F"/>
<path d="M446.243 565.976C441.392 565.444 442.22 557.93 447.071 558.403C478.903 561.775 514.816 561.243 540.849 540.002C544.636 536.926 549.428 542.842 545.583 545.919C517.952 568.402 480.086 569.467 446.243 565.917V565.976Z" fill="#FFC76F"/>
<path d="M122.848 616.326C152.49 598.99 185.386 609.344 210.236 629.697C217.927 636.028 225.146 643.365 231.062 651.411C233.725 655.08 227.631 658.57 224.968 654.961C212.011 637.152 191.539 621.414 169.766 615.912C152.017 611.415 131.249 616.326 117.582 628.573C108.826 636.442 105.216 648.394 104.27 659.813C101.785 689.455 115.156 719.866 131.664 743.769C150.833 771.459 179.351 793.409 212.898 799.563C213.549 799.681 214.2 799.799 214.851 799.859C219.288 800.628 217.395 807.373 212.958 806.663C152.017 796.664 104.743 736.374 97.584 676.912C94.6849 652.831 101.075 629.165 122.789 616.385L122.848 616.326Z" fill="#FFC76F"/>
<path d="M217.865 762.052C217.865 762.052 218.279 761.933 218.457 761.874C220.114 761.756 221.652 760.691 221.356 758.561C216.682 718.624 191.655 689.1 156.806 670.64C152.783 668.51 149.233 674.604 153.256 676.734C171.538 686.438 187.217 699.336 198.222 715.429C184.377 714.009 166.509 717.44 169.29 734.894C173.018 758.324 197.394 764.418 217.865 762.052ZM203.015 723.298C208.34 733.001 212.067 743.651 213.842 755.425C200.707 756.312 184.259 754.123 178.342 740.929C169.941 722.174 189.584 720.103 203.015 723.298Z" fill="#FFC76F"/>
<path d="M306.202 674.013C296.084 700.933 314.958 732.942 348.269 745.485C381.638 758.028 416.901 746.373 427.018 719.393C437.136 692.472 418.321 660.464 384.892 647.921C351.523 635.377 316.26 647.033 306.143 673.954L306.202 674.013Z" fill="#FFC76F"/>
<path d="M515.002 199.565C492.992 211.22 471.87 214.356 467.846 206.665C463.764 198.973 478.319 183.294 500.269 171.698C522.279 160.101 543.401 156.906 547.484 164.598C551.566 172.289 537.011 187.968 515.002 199.565Z" fill="#F8C4D8"/>
<path d="M477.136 159.864C464.475 181.283 460.333 202.227 467.847 206.665C475.361 211.102 491.632 197.316 504.293 175.898C516.955 154.48 521.096 133.536 513.642 129.098C506.127 124.661 489.798 138.446 477.136 159.864Z" fill="#F8C4D8"/>
<path d="M511.275 187.021C493.288 204.179 473.823 212.995 467.788 206.723C461.753 200.392 471.456 181.4 489.502 164.183C507.488 147.025 526.954 138.209 532.989 144.48C539.023 150.811 529.261 169.803 511.275 187.021Z" fill="#F8C4D8"/>
<path d="M515.295 211.869C491.037 217.49 469.796 215.123 467.844 206.663C465.891 198.143 483.937 186.724 508.136 181.162C532.394 175.541 553.575 177.908 555.587 186.369C557.539 194.889 539.494 206.308 515.236 211.869H515.295Z" fill="#F8C4D8"/>
<path d="M464.887 159.035C458.142 182.997 459.444 204.297 467.845 206.664C476.247 209.03 488.494 191.517 495.239 167.555C501.984 143.593 500.623 122.293 492.281 119.927C483.879 117.56 471.632 135.073 464.887 159.035Z" fill="#F8C4D8"/>
<path d="M384.949 315.114C404.947 273.876 434.648 236.365 469.793 207.373C471.568 205.894 469.024 203.409 467.249 204.888C431.631 234.294 401.693 272.397 381.458 314.286C382.405 314.463 383.351 314.641 384.298 314.878C384.535 314.878 384.712 315.055 384.949 315.055V315.114Z" fill="#CDF0F4"/>
<path d="M401.577 262.221C436.366 216.9 411.339 181.755 411.339 181.755C411.339 181.755 378.621 209.918 401.577 262.221Z" fill="#AEDDCD"/>
<path d="M406.549 274.941C400.041 259.025 403.236 241.276 408.798 225.538C409.567 223.348 406.076 222.461 405.307 224.65C399.568 240.921 396.373 259.44 403.059 275.888C403.946 278.018 407.378 277.071 406.49 274.882L406.549 274.941Z" fill="#CDF0F4"/>
<path d="M119.71 128.803C155.15 147.558 189.229 152.646 195.797 140.281C202.364 127.856 178.935 102.592 143.494 83.8365C107.995 65.0809 73.9743 59.9926 67.4069 72.3583C60.8395 84.7831 84.2692 110.047 119.71 128.743V128.803Z" fill="#F8C4D8"/>
<path d="M180.773 64.8419C201.185 99.3948 207.93 133.179 195.801 140.278C183.731 147.378 157.402 125.191 136.99 90.6383C116.578 56.0854 109.833 22.3017 121.962 15.2018C134.032 8.04269 160.361 30.2891 180.773 64.7828V64.8419Z" fill="#F8C4D8"/>
<path d="M125.695 108.566C154.687 136.256 186.104 150.456 195.748 140.279C205.451 130.103 189.772 99.3957 160.781 71.7652C131.789 44.0756 100.372 29.8757 90.6691 40.0523C80.9658 50.2288 96.6448 80.8767 125.695 108.566Z" fill="#F8C4D8"/>
<path d="M119.299 148.68C158.407 157.733 192.664 153.946 195.8 140.279C198.995 126.612 169.885 108.152 130.777 99.1585C91.6681 90.1062 57.4702 93.8928 54.2753 107.56C51.1395 121.227 80.2491 139.687 119.299 148.68Z" fill="#F8C4D8"/>
<path d="M200.592 63.4821C211.479 102.117 209.349 136.493 195.8 140.279C182.31 144.066 162.549 115.844 151.662 77.2678C140.776 38.6916 142.965 4.25709 156.455 0.47047C170.004 -3.31615 189.765 24.906 200.652 63.4821H200.592Z" fill="#F8C4D8" style="mix-blend-mode:multiply"/>
<path d="M329.398 315.115C297.094 248.613 249.229 188.145 192.607 141.463C189.767 139.097 193.849 135.073 196.689 137.44C254.14 184.832 302.419 246.305 335.019 313.814C333.481 314.109 331.943 314.405 330.404 314.819C330.049 314.879 329.694 315.056 329.339 315.174L329.398 315.115Z" fill="#CDF0F4"/>
<path d="M302.652 229.855C246.622 156.726 286.914 100.104 286.914 100.104C286.914 100.104 339.631 145.485 302.652 229.855Z" fill="#AEDDCD"/>
<path d="M294.545 250.388C305.076 224.71 299.87 196.133 290.876 170.751C289.634 167.26 295.255 165.84 296.497 169.331C305.786 195.541 310.934 225.479 300.106 251.986C298.686 255.358 293.184 253.879 294.545 250.388Z" fill="#CDF0F4"/>
<path style="mix-blend-mode:multiply" d="M148.289 434.393C140.893 442.38 136.515 452.202 136.515 462.792C136.515 489.831 164.856 511.782 199.823 511.782C200.119 511.782 200.355 511.782 200.592 511.782C204.793 531.602 226.388 546.69 252.421 546.69C274.549 546.69 293.482 535.803 301.233 520.361C307.682 521.899 314.486 522.727 321.527 522.727C355.37 522.727 383.947 503.617 393.118 477.466C397.318 478.235 401.697 478.59 406.134 478.59C444.474 478.59 475.536 449.539 475.536 413.803C475.536 382.268 451.396 355.998 419.387 350.2C415.601 329.669 396.845 314.049 374.244 314.049C367.735 314.049 361.523 315.351 355.902 317.718C348.211 305.707 332.591 297.483 314.545 297.483C296.5 297.483 281.057 305.648 273.307 317.599C265.378 313.99 256.385 311.919 246.8 311.919C219.939 311.919 197.397 328.013 190.711 349.786C188.167 349.312 185.564 349.016 182.901 349.016C157.282 349.016 136.456 372.032 136.456 400.372C136.456 413.448 140.893 425.4 148.23 434.452L148.289 434.393Z" fill="#FFC76F"/>
<path d="M195.327 343.691C188.345 373.688 199.646 409.306 233.903 413.862C236.388 414.216 236.447 418.181 233.903 417.826C197.043 412.915 183.849 375.522 191.481 342.626C192.073 340.141 195.918 341.206 195.327 343.691Z" fill="#FFC76F"/>
<path d="M149.468 431.908C163.963 433.268 170.531 420.429 169.939 407.531C169.821 404.987 173.785 404.987 173.903 407.531C174.613 422.5 166.093 437.41 149.468 435.872C146.924 435.635 146.924 431.671 149.468 431.908Z" fill="#FFC76F"/>
<path d="M391.102 477.405C389.209 457.288 377.139 439.361 360.336 428.534C340.516 415.754 318.387 421.138 302.59 437.35C296.2 443.917 291.94 451.254 283.894 455.987C277.563 459.714 269.871 461.903 262.653 462.791C245.436 464.921 227.331 462.081 213.309 451.313C211.297 449.774 213.309 446.343 215.32 447.881C233.248 461.667 259.34 462.968 279.575 453.738C290.106 448.946 296.023 437.941 304.188 430.19C310.637 424.096 318.683 420.073 327.262 418.061C361.638 410.074 392.108 446.402 395.007 477.464C395.244 480.008 391.28 480.008 391.043 477.464L391.102 477.405Z" fill="#FFC76F"/>
<path d="M213.369 449.537C212.54 433.799 202.068 419.303 185.62 417.883C183.076 417.647 183.076 413.683 185.62 413.919C204.316 415.576 216.386 431.492 217.392 449.596C217.51 452.141 213.546 452.141 213.428 449.596L213.369 449.537Z" fill="#FFC76F"/>
<path d="M214.843 452.023C201.412 450.84 194.667 466.223 199.992 477.346C201.117 479.654 197.685 481.665 196.561 479.358C190.053 465.809 198.277 446.639 214.843 448.059C217.387 448.296 217.387 452.26 214.843 452.023Z" fill="#FFC76F"/>
<path d="M236.089 490.068C227.096 502.256 216.091 510.48 201.122 513.616C198.637 514.148 197.572 510.302 200.057 509.77C213.961 506.812 224.315 499.357 232.657 487.997C234.136 485.985 237.627 487.997 236.089 490.008V490.068Z" fill="#FFC76F"/>
<path d="M301.168 521.484C293.003 517.993 286.376 511.249 281.88 503.675C280.578 501.486 284.009 499.474 285.311 501.664C289.453 508.704 295.606 514.798 303.12 518.053C305.487 519.058 303.416 522.49 301.108 521.484H301.168Z" fill="#FFC76F"/>
<path d="M395.125 477.346C386.723 490.363 369.861 494.859 355.366 490.777C339.864 486.399 329.451 467.88 325.605 453.443C324.954 450.958 328.741 449.893 329.451 452.378C332.942 465.454 340.633 477.938 352.348 485.097C364.832 492.729 384.061 487.227 391.693 475.335C393.054 473.205 396.545 475.157 395.125 477.346Z" fill="#FFC76F"/>
<path d="M381.279 441.255C406.661 447.645 431.333 425.99 426.659 399.779C426.186 397.294 430.032 396.17 430.505 398.714C435.712 427.824 408.732 452.2 380.214 445.041C377.729 444.39 378.794 440.604 381.279 441.196V441.255Z" fill="#FFC76F"/>
<path d="M421.748 352.447C410.743 353.335 400.093 354.637 390.627 360.671C378.38 368.422 376.664 384.811 381.279 397.236C382.166 399.662 378.32 400.668 377.433 398.301C373.232 386.941 373.765 372.86 382.048 363.275C392.106 351.619 407.312 349.607 421.807 348.424C424.351 348.187 424.351 352.211 421.807 352.388L421.748 352.447Z" fill="#FFC76F"/>
<path d="M377.786 376.882C359.503 376.941 337.375 364.28 339.209 343.69C339.446 341.146 343.41 341.146 343.174 343.69C341.576 362.15 361.574 372.977 377.786 372.918C380.33 372.918 380.33 376.882 377.786 376.882Z" fill="#FFC76F"/>
<path d="M286.434 451.728C266.199 438.061 263.36 405.46 275.489 385.581C276.849 383.391 280.281 385.403 278.92 387.592C267.974 405.52 270.045 435.872 288.446 448.296C290.576 449.716 288.564 453.148 286.434 451.728Z" fill="#FFC76F"/>
<path d="M310.99 377.061C300.754 382.919 291.229 388.776 279.04 388.125C267.858 387.534 256.853 380.256 248.57 373.334C246.618 371.677 249.398 368.896 251.351 370.494C260.107 377.83 270.461 383.688 282.117 384.279C291.761 384.812 300.991 378.185 308.919 373.63C311.168 372.328 313.12 375.76 310.931 377.061H310.99Z" fill="#FFC76F"/>
<path d="M271.941 314.581C285.43 322.154 297.382 330.911 302.589 345.998C303.417 348.424 299.571 349.489 298.743 347.063C293.891 332.981 282.354 324.994 269.929 318.012C267.681 316.77 269.692 313.338 271.941 314.581Z" fill="#FFC76F"/>
</svg>
