<svg width="76" height="76" viewBox="0 0 76 76" fill="none" xmlns="http://www.w3.org/2000/svg">
<g clip-path="url(#clip0_780_1142)">
<path d="M28.4993 31.6667C37.2439 31.6667 44.3327 24.5778 44.3327 15.8333C44.3327 7.08882 37.2439 0 28.4993 0C19.7548 0 12.666 7.08882 12.666 15.8333C12.666 24.5778 19.7548 31.6667 28.4993 31.6667Z" fill="#F29E97"/>
<path d="M30.0833 55.4167C30.0833 48.6685 32.7528 42.5442 37.069 38H15.0417C6.74817 38 0 44.7482 0 53.0417V64.125C0 65.436 1.064 66.5 2.375 66.5H32.6705C31.0302 63.1465 30.0833 59.394 30.0833 55.4167Z" fill="#F29E97"/>
<path d="M55.4173 34.8335C44.068 34.8335 34.834 44.0675 34.834 55.4168C34.834 66.7662 44.068 76.0002 55.4173 76.0002C66.7667 76.0002 76.0007 66.7662 76.0007 55.4168C76.0007 44.0675 66.7667 34.8335 55.4173 34.8335ZM62.4062 62.4057C61.7887 63.0232 60.978 63.3335 60.1673 63.3335C59.3567 63.3335 58.546 63.0232 57.9285 62.4057L53.1785 57.6557C52.5831 57.0635 52.2507 56.2592 52.2507 55.4168V47.5002C52.2507 45.749 53.6693 44.3335 55.4173 44.3335C57.1653 44.3335 58.584 45.749 58.584 47.5002V54.1058L62.4062 57.928C63.6443 59.1662 63.6443 61.1675 62.4062 62.4057Z" fill="#F29E97"/>
</g>
<defs>
<clipPath id="clip0_780_1142">
<rect width="76" height="76" fill="white"/>
</clipPath>
</defs>
</svg>
