<svg width="148" height="148" viewBox="0 0 148 148" fill="none" xmlns="http://www.w3.org/2000/svg">
<path d="M69.5551 135.134C69.5536 135.134 69.5557 135.134 69.5542 135.134C50.3645 135.134 34.2189 134.234 21.6395 133.131C13.8854 132.45 9.03031 124.423 12.003 117.229C20.2488 97.2739 30.4293 77.561 42.3722 58.4424C50.5015 45.4285 58.3493 34.4594 64.9856 25.8292C69.6138 19.8103 78.6681 19.8086 83.2965 25.8272C89.8999 34.4143 97.7057 45.3212 105.795 58.2551C117.676 77.2537 127.819 96.8426 136.051 116.675C139.04 123.875 134.166 131.915 126.4 132.597C107.223 134.283 88.1652 135.134 69.5551 135.134Z" fill="#DD636E"/>
<path d="M76.8528 21.6352C74.601 22.2272 72.4932 23.6392 70.9346 25.8682C64.8466 34.5748 57.6481 45.6421 50.1914 58.7716C39.2354 78.0599 29.8961 97.9477 22.3333 118.078C19.8613 124.654 23.2872 131.921 29.246 133.738C26.5817 133.546 24.0463 133.341 21.6399 133.131C13.8846 132.45 9.03154 124.424 12.0022 117.228C20.2483 97.2747 30.4303 77.5615 42.3732 58.4427C50.5028 45.4296 58.3494 34.4583 64.9862 25.8303C67.9159 22.0196 72.6224 20.6206 76.8528 21.6352Z" fill="#DA4A54"/>
<path d="M127.719 78.6426V77.8061C127.719 74.8553 130.003 72.4084 132.948 72.2064L142.003 71.5852C145.247 71.3626 148 73.9338 148 77.1849V79.2638C148 82.5149 145.246 85.0861 142.003 84.8635L132.948 84.2424C130.004 84.0406 127.719 81.5937 127.719 78.6426Z" fill="#DD636E"/>
<path d="M120.731 51.7271L120.313 51.0025C118.838 48.4469 119.593 45.1854 122.041 43.5386L129.573 38.4731C132.271 36.6586 135.941 37.5085 137.566 40.3239L138.606 42.1245C140.232 44.94 139.132 48.5434 136.212 49.9725L128.059 53.9622C125.409 55.2595 122.207 54.2828 120.731 51.7271Z" fill="#DD636E"/>
<path d="M101.221 31.9116L100.497 31.4934C97.9411 30.018 96.9647 26.8158 98.2617 24.1653L102.251 16.0126C103.68 13.0925 107.284 11.9935 110.099 13.6189L111.9 14.6584C114.715 16.284 115.565 19.954 113.751 22.6518L108.685 30.1833C107.038 32.6317 103.777 33.387 101.221 31.9116Z" fill="#DD636E"/>
<path d="M20.2812 78.6426V77.8061C20.2812 74.8553 17.9965 72.4084 15.0524 72.2064L5.99689 71.5852C2.75361 71.3626 0 73.9338 0 77.1849V79.2638C0 82.5149 2.75361 85.0861 5.99689 84.8635L15.0524 84.2424C17.9962 84.0406 20.2812 81.5937 20.2812 78.6426Z" fill="#DD636E"/>
<path d="M27.2685 51.7271L27.6867 51.0025C29.1621 48.4469 28.4068 45.1854 25.9584 43.5386L18.4269 38.4731C15.7291 36.6586 12.0592 37.5085 10.4335 40.3239L9.394 42.1245C7.76831 44.94 8.86762 48.5434 11.7877 49.9725L19.9404 53.9622C22.5909 55.2595 25.7931 54.2828 27.2685 51.7271Z" fill="#DD636E"/>
<path d="M46.7788 31.9116L47.5034 31.4934C50.059 30.018 51.0355 26.8158 49.7385 24.1653L45.7488 16.0126C44.3197 13.0925 40.7163 11.9935 37.9008 13.6189L36.1002 14.6584C33.2847 16.284 32.4349 19.954 34.2493 22.6518L39.3149 30.1833C40.9617 32.6317 44.2232 33.387 46.7788 31.9116Z" fill="#DD636E"/>
<path d="M70.7922 52.0659C72.9515 51.8489 75.1108 51.8489 77.2701 52.0659C80.002 52.3408 82.0934 54.6224 82.1943 57.3662C82.5235 66.3413 82.5235 75.3164 82.1943 84.2915C82.0937 87.0353 80.002 89.3171 77.2701 89.5917C75.1108 89.8088 72.9515 89.8088 70.7922 89.5917C68.0603 89.3168 65.9689 87.0353 65.868 84.2915C65.5388 75.3164 65.5388 66.3413 65.868 57.3662C65.9689 54.6221 68.0603 52.3405 70.7922 52.0659Z" fill="white"/>
<path d="M70.9486 99.4418C73.0035 99.3436 75.0585 99.3436 77.1134 99.4418C79.9454 99.5774 82.2197 101.857 82.3475 104.689C82.4721 107.45 82.4721 110.211 82.3475 112.973C82.2197 115.805 79.9454 118.085 77.1134 118.22C75.0585 118.318 73.0035 118.318 70.9486 118.22C68.1166 118.085 65.8423 115.805 65.7145 112.973C65.5899 110.212 65.5899 107.451 65.7145 104.689C65.8423 101.857 68.1166 99.5774 70.9486 99.4418Z" fill="white"/>
</svg>
